<svg xmlns="http://www.w3.org/2000/svg" xmlns:xlink="http://www.w3.org/1999/xlink" contentStyleType="text/css" data-diagram-type="CLASS" height="457px" preserveAspectRatio="none" style="width:760px;height:457px;background:#FFFFFF;" version="1.1" viewBox="0 0 760 457" width="760px" zoomAndPan="magnify"><defs/><g><!--class Versichertenstammdaten--><g class="entity" data-entity="Versichertenstammdaten" data-source-line="10" data-uid="ent0002" id="entity_Versichertenstammdaten"><rect fill="#E6E6E6" height="80.5938" rx="2.5" ry="2.5" style="stroke:#000E52;stroke-width:0.5;" width="286.3467" x="100.5" y="7"/><ellipse cx="150.3613" cy="23" fill="#A9DCDF" rx="11" ry="11" style="stroke:#181818;stroke-width:1;"/><path d="M150.4707,18.3438 L149.3145,23.4219 L151.6426,23.4219 L150.4707,18.3438 Z M148.9863,16.1094 L151.9707,16.1094 L155.3301,28.5 L152.877,28.5 L152.1113,25.4375 L148.8301,25.4375 L148.0801,28.5 L145.6426,28.5 L148.9863,16.1094 Z " fill="#000000"/><text fill="#000E52" font-family="sans-serif" font-size="14" font-style="italic" lengthAdjust="spacing" textLength="178.124" x="170.8613" y="27.8467">Versichertenstammdaten</text><line style="stroke:#000E52;stroke-width:0.5;" x1="101.5" x2="385.8467" y1="39" y2="39"/><line style="stroke:#000E52;stroke-width:0.5;" x1="101.5" x2="385.8467" y1="47" y2="47"/><text fill="#000E52" font-family="sans-serif" font-size="14" lengthAdjust="spacing" textLength="33.9131" x="106.5" y="63.9951">get()</text><text fill="#000E52" font-family="sans-serif" font-size="14" lengthAdjust="spacing" textLength="274.3467" x="106.5" y="80.292">get(queryParams isTreatmentCovered)</text></g><g class="entity" data-entity="GMN3" data-source-line="14" data-uid="ent0004" id="entity_GMN3"><path d="M422,20 L422,43.5 L386.61,47.5 L422,51.5 L422,75.3984 A0,0 0 0 0 422,75.3984 L753.3687,75.3984 A0,0 0 0 0 753.3687,75.3984 L753.3687,30 L743.3687,20 L422,20 A0,0 0 0 0 422,20" fill="#FEFFDD" style="stroke:#181818;stroke-width:0.5;"/><path d="M743.3687,20 L743.3687,30 L753.3687,30 L743.3687,20" fill="#FEFFDD" style="stroke:#181818;stroke-width:0.5;"/><text fill="#000000" font-family="sans-serif" font-size="13" lengthAdjust="spacing" textLength="310.3687" x="428" y="37.0669">VSD consist of Patient and Coverage resources.</text><text fill="#000000" font-family="sans-serif" font-size="13" lengthAdjust="spacing" textLength="259.6382" x="428" y="52.1997">They are queried from an http-interface</text><text fill="#000000" font-family="sans-serif" font-size="13" lengthAdjust="spacing" textLength="285.5684" x="428" y="67.3325">and returned in a (probably signed) Bundle.</text></g><!--class Bundle--><g class="entity" data-entity="Bundle" data-source-line="16" data-uid="ent0006" id="entity_Bundle"><rect fill="#E6E6E6" height="48" rx="2.5" ry="2.5" style="stroke:#000E52;stroke-width:0.5;" width="80.7402" x="203" y="148"/><ellipse cx="218" cy="164" fill="#ADD1B2" rx="11" ry="11" style="stroke:#181818;stroke-width:1;"/><path d="M220.9688,169.6406 Q220.3906,169.9375 219.75,170.0781 Q219.1094,170.2344 218.4063,170.2344 Q215.9063,170.2344 214.5781,168.5938 Q213.2656,166.9375 213.2656,163.8125 Q213.2656,160.6875 214.5781,159.0313 Q215.9063,157.375 218.4063,157.375 Q219.1094,157.375 219.75,157.5313 Q220.4063,157.6875 220.9688,157.9844 L220.9688,160.7031 Q220.3438,160.125 219.75,159.8594 Q219.1563,159.5781 218.5313,159.5781 Q217.1875,159.5781 216.5,160.6563 Q215.8125,161.7188 215.8125,163.8125 Q215.8125,165.9063 216.5,166.9844 Q217.1875,168.0469 218.5313,168.0469 Q219.1563,168.0469 219.75,167.7813 Q220.3438,167.5 220.9688,166.9219 L220.9688,169.6406 Z " fill="#000000"/><text fill="#000E52" font-family="sans-serif" font-size="14" lengthAdjust="spacing" textLength="48.7402" x="232" y="168.8467">Bundle</text><line style="stroke:#000E52;stroke-width:0.5;" x1="204" x2="282.7402" y1="180" y2="180"/><line style="stroke:#000E52;stroke-width:0.5;" x1="204" x2="282.7402" y1="188" y2="188"/></g><!--class PatientInformation--><g class="entity" data-entity="PatientInformation" data-source-line="20" data-uid="ent0007" id="entity_PatientInformation"><rect fill="#E6E6E6" height="145.7813" rx="2.5" ry="2.5" style="stroke:#000E52;stroke-width:0.5;" width="162.6621" x="7" y="280.5"/><ellipse cx="22" cy="296.5" fill="#ADD1B2" rx="11" ry="11" style="stroke:#181818;stroke-width:1;"/><path d="M24.9688,302.1406 Q24.3906,302.4375 23.75,302.5781 Q23.1094,302.7344 22.4063,302.7344 Q19.9063,302.7344 18.5781,301.0938 Q17.2656,299.4375 17.2656,296.3125 Q17.2656,293.1875 18.5781,291.5313 Q19.9063,289.875 22.4063,289.875 Q23.1094,289.875 23.75,290.0313 Q24.4063,290.1875 24.9688,290.4844 L24.9688,293.2031 Q24.3438,292.625 23.75,292.3594 Q23.1563,292.0781 22.5313,292.0781 Q21.1875,292.0781 20.5,293.1563 Q19.8125,294.2188 19.8125,296.3125 Q19.8125,298.4063 20.5,299.4844 Q21.1875,300.5469 22.5313,300.5469 Q23.1563,300.5469 23.75,300.2813 Q24.3438,300 24.9688,299.4219 L24.9688,302.1406 Z " fill="#000000"/><text fill="#000E52" font-family="sans-serif" font-size="14" lengthAdjust="spacing" textLength="130.6621" x="36" y="301.3467">PatientInformation</text><line style="stroke:#000E52;stroke-width:0.5;" x1="8" x2="168.6621" y1="312.5" y2="312.5"/><text fill="#000E52" font-family="sans-serif" font-size="14" lengthAdjust="spacing" textLength="98.54" x="13" y="329.4951">Identifier kvnr</text><text fill="#000E52" font-family="sans-serif" font-size="14" lengthAdjust="spacing" textLength="135.9463" x="13" y="345.792">HumanName name</text><text fill="#000E52" font-family="sans-serif" font-size="14" lengthAdjust="spacing" textLength="89.9199" x="13" y="362.0889">Code gender</text><text fill="#000E52" font-family="sans-serif" font-size="14" lengthAdjust="spacing" textLength="116.0674" x="13" y="378.3857">Address address</text><text fill="#000E52" font-family="sans-serif" font-size="14" lengthAdjust="spacing" textLength="104.2686" x="13" y="394.6826">Date birthDate</text><text fill="#000E52" font-family="sans-serif" font-size="14" lengthAdjust="spacing" textLength="13.3506" x="13" y="410.9795">...</text><line style="stroke:#000E52;stroke-width:0.5;" x1="8" x2="168.6621" y1="418.2813" y2="418.2813"/></g><!--class CoverageInformation--><g class="entity" data-entity="CoverageInformation" data-source-line="29" data-uid="ent0008" id="entity_CoverageInformation"><rect fill="#E6E6E6" height="194.6719" rx="2.5" ry="2.5" style="stroke:#000E52;stroke-width:0.5;" width="388.9609" x="205" y="256"/><ellipse cx="321.0503" cy="272" fill="#ADD1B2" rx="11" ry="11" style="stroke:#181818;stroke-width:1;"/><path d="M324.019,277.6406 Q323.4409,277.9375 322.8003,278.0781 Q322.1597,278.2344 321.4565,278.2344 Q318.9565,278.2344 317.6284,276.5938 Q316.3159,274.9375 316.3159,271.8125 Q316.3159,268.6875 317.6284,267.0313 Q318.9565,265.375 321.4565,265.375 Q322.1597,265.375 322.8003,265.5313 Q323.4565,265.6875 324.019,265.9844 L324.019,268.7031 Q323.394,268.125 322.8003,267.8594 Q322.2065,267.5781 321.5815,267.5781 Q320.2378,267.5781 319.5503,268.6563 Q318.8628,269.7188 318.8628,271.8125 Q318.8628,273.9063 319.5503,274.9844 Q320.2378,276.0469 321.5815,276.0469 Q322.2065,276.0469 322.8003,275.7813 Q323.394,275.5 324.019,274.9219 L324.019,277.6406 Z " fill="#000000"/><text fill="#000E52" font-family="sans-serif" font-size="14" lengthAdjust="spacing" textLength="148.3604" x="341.5503" y="276.8467">CoverageInformation</text><line style="stroke:#000E52;stroke-width:0.5;" x1="206" x2="592.9609" y1="288" y2="288"/><text fill="#000E52" font-family="sans-serif" font-size="14" lengthAdjust="spacing" textLength="130.3477" x="211" y="304.9951">Identifier identifier</text><text fill="#000E52" font-family="sans-serif" font-size="14" lengthAdjust="spacing" textLength="83.3096" x="211" y="321.292">Code status</text><text fill="#000E52" font-family="sans-serif" font-size="14" lengthAdjust="spacing" textLength="203.2734" x="211" y="337.5889">Reference beneficiaryPatient</text><text fill="#000E52" font-family="sans-serif" font-size="14" lengthAdjust="spacing" textLength="157.7529" x="211" y="353.8857">Period coveragePeriod</text><text fill="#000E52" font-family="sans-serif" font-size="14" lengthAdjust="spacing" textLength="105.3691" x="211" y="370.1826">PayorInsurer ik</text><text fill="#000E52" font-family="sans-serif" font-size="14" lengthAdjust="spacing" textLength="351.873" x="211" y="386.4795">CostToBeneficiary coPaymentAndPersonengruppe</text><text fill="#000E52" font-family="sans-serif" font-size="14" lengthAdjust="spacing" textLength="189.9502" x="211" y="402.7764">ExtensionDMP[] dmpCodes</text><text fill="#000E52" font-family="sans-serif" font-size="14" lengthAdjust="spacing" textLength="376.9609" x="211" y="419.0732">ExtensionSelektivVertraege[] selektivVertraegeCodes</text><text fill="#000E52" font-family="sans-serif" font-size="14" lengthAdjust="spacing" textLength="13.3506" x="211" y="435.3701">...</text><line style="stroke:#000E52;stroke-width:0.5;" x1="206" x2="592.9609" y1="442.6719" y2="442.6719"/></g><!--reverse link Versichertenstammdaten to Bundle--><g class="link" data-entity-1="Versichertenstammdaten" data-entity-2="Bundle" data-source-line="41" data-uid="lnk9" id="link_Versichertenstammdaten_Bundle"><path codeLine="41" d="M243.5,106.27 C243.5,125.97 243.5,131.07 243.5,147.84" fill="none" id="Versichertenstammdaten-backto-Bundle" style="stroke:#000E52;stroke-width:1;"/><polygon fill="none" points="243.5,88.27,237.5,106.27,249.5,106.27,243.5,88.27" style="stroke:#000E52;stroke-width:1;"/></g><!--reverse link Bundle to PatientInformation--><g class="link" data-entity-1="Bundle" data-entity-2="PatientInformation" data-source-line="42" data-uid="lnk10" id="link_Bundle_PatientInformation"><path codeLine="42" d="M215.7079,205.183 C197.3179,226.483 176.85,250.19 150.89,280.25" fill="none" id="Bundle-backto-PatientInformation" style="stroke:#000E52;stroke-width:1;"/><polygon fill="#000E52" points="223.55,196.1,216.6013,198.0275,215.7079,205.183,222.6566,203.2555,223.55,196.1" style="stroke:#000E52;stroke-width:1;"/></g><!--reverse link Bundle to CoverageInformation--><g class="link" data-entity-1="Bundle" data-entity-2="CoverageInformation" data-source-line="43" data-uid="lnk11" id="link_Bundle_CoverageInformation"><path codeLine="43" d="M271.4433,205.156 C285.0233,220.776 296.1,233.52 315.54,255.89" fill="none" id="Bundle-backto-CoverageInformation" style="stroke:#000E52;stroke-width:1;"/><polygon fill="#000E52" points="263.57,196.1,264.488,203.2524,271.4433,205.156,270.5253,198.0036,263.57,196.1" style="stroke:#000E52;stroke-width:1;"/></g></g></svg>