<svg xmlns="http://www.w3.org/2000/svg" xmlns:xlink="http://www.w3.org/1999/xlink" contentStyleType="text/css" height="457px" preserveAspectRatio="none" style="width:760px;height:457px;background:#FFFFFF;" version="1.1" viewBox="0 0 760 457" width="760px" zoomAndPan="magnify"><defs/><g><!--class Versichertenstammdaten--><g id="elem_Versichertenstammdaten"><rect codeLine="10" fill="#E6E6E6" height="80.5938" id="Versichertenstammdaten" rx="2.5" ry="2.5" style="stroke:#000E52;stroke-width:0.5;" width="286.3467" x="100.16" y="7"/><ellipse cx="150.0213" cy="23" fill="#A9DCDF" rx="11" ry="11" style="stroke:#181818;stroke-width:1.0;"/><path d="M150.1307,18.3438 L148.9745,23.4219 L151.3026,23.4219 L150.1307,18.3438 Z M148.6463,16.1094 L151.6307,16.1094 L154.9901,28.5 L152.537,28.5 L151.7713,25.4375 L148.4901,25.4375 L147.7401,28.5 L145.3026,28.5 L148.6463,16.1094 Z " fill="#000000"/><text fill="#000E52" font-family="sans-serif" font-size="14" font-style="italic" lengthAdjust="spacing" textLength="178.124" x="170.5213" y="27.8467">Versichertenstammdaten</text><line style="stroke:#000E52;stroke-width:0.5;" x1="101.16" x2="385.5067" y1="39" y2="39"/><line style="stroke:#000E52;stroke-width:0.5;" x1="101.16" x2="385.5067" y1="47" y2="47"/><text fill="#000E52" font-family="sans-serif" font-size="14" lengthAdjust="spacing" textLength="33.9131" x="106.16" y="63.9951">get()</text><text fill="#000E52" font-family="sans-serif" font-size="14" lengthAdjust="spacing" textLength="274.3467" x="106.16" y="80.292">get(queryParams isTreatmentCovered)</text></g><g id="elem_GMN3"><path d="M421.65,19.6 L421.65,43.3 L386.78,47.3 L421.65,51.3 L421.65,74.9984 A0,0 0 0 0 421.65,74.9984 L753.0187,74.9984 A0,0 0 0 0 753.0187,74.9984 L753.0187,29.6 L743.0187,19.6 L421.65,19.6 A0,0 0 0 0 421.65,19.6 " fill="#FEFFDD" style="stroke:#181818;stroke-width:0.5;"/><path d="M743.0187,19.6 L743.0187,29.6 L753.0187,29.6 L743.0187,19.6 " fill="#FEFFDD" style="stroke:#181818;stroke-width:0.5;"/><text fill="#000000" font-family="sans-serif" font-size="13" lengthAdjust="spacing" textLength="310.3687" x="427.65" y="36.6669">VSD consist of Patient and Coverage resources.</text><text fill="#000000" font-family="sans-serif" font-size="13" lengthAdjust="spacing" textLength="259.6382" x="427.65" y="51.7997">They are queried from an http-interface</text><text fill="#000000" font-family="sans-serif" font-size="13" lengthAdjust="spacing" textLength="285.5684" x="427.65" y="66.9325">and returned in a (probably signed) Bundle.</text></g><!--class Bundle--><g id="elem_Bundle"><rect codeLine="16" fill="#E6E6E6" height="48" id="Bundle" rx="2.5" ry="2.5" style="stroke:#000E52;stroke-width:0.5;" width="80.7402" x="202.96" y="147.6"/><ellipse cx="217.96" cy="163.6" fill="#ADD1B2" rx="11" ry="11" style="stroke:#181818;stroke-width:1.0;"/><path d="M220.9288,169.2406 Q220.3506,169.5375 219.71,169.6781 Q219.0694,169.8344 218.3663,169.8344 Q215.8663,169.8344 214.5381,168.1937 Q213.2256,166.5375 213.2256,163.4125 Q213.2256,160.2875 214.5381,158.6312 Q215.8663,156.975 218.3663,156.975 Q219.0694,156.975 219.71,157.1312 Q220.3663,157.2875 220.9288,157.5844 L220.9288,160.3031 Q220.3038,159.725 219.71,159.4594 Q219.1163,159.1781 218.4913,159.1781 Q217.1475,159.1781 216.46,160.2562 Q215.7725,161.3187 215.7725,163.4125 Q215.7725,165.5062 216.46,166.5844 Q217.1475,167.6469 218.4913,167.6469 Q219.1163,167.6469 219.71,167.3812 Q220.3038,167.1 220.9288,166.5219 L220.9288,169.2406 Z " fill="#000000"/><text fill="#000E52" font-family="sans-serif" font-size="14" lengthAdjust="spacing" textLength="48.7402" x="231.96" y="168.4467">Bundle</text><line style="stroke:#000E52;stroke-width:0.5;" x1="203.96" x2="282.7002" y1="179.6" y2="179.6"/><line style="stroke:#000E52;stroke-width:0.5;" x1="203.96" x2="282.7002" y1="187.6" y2="187.6"/></g><!--class PatientInformation--><g id="elem_PatientInformation"><rect codeLine="20" fill="#E6E6E6" height="145.7813" id="PatientInformation" rx="2.5" ry="2.5" style="stroke:#000E52;stroke-width:0.5;" width="162.6621" x="7" y="280.04"/><ellipse cx="22" cy="296.04" fill="#ADD1B2" rx="11" ry="11" style="stroke:#181818;stroke-width:1.0;"/><path d="M24.9688,301.6806 Q24.3906,301.9775 23.75,302.1181 Q23.1094,302.2744 22.4063,302.2744 Q19.9063,302.2744 18.5781,300.6337 Q17.2656,298.9775 17.2656,295.8525 Q17.2656,292.7275 18.5781,291.0712 Q19.9063,289.415 22.4063,289.415 Q23.1094,289.415 23.75,289.5712 Q24.4063,289.7275 24.9688,290.0244 L24.9688,292.7431 Q24.3438,292.165 23.75,291.8994 Q23.1563,291.6181 22.5313,291.6181 Q21.1875,291.6181 20.5,292.6962 Q19.8125,293.7587 19.8125,295.8525 Q19.8125,297.9462 20.5,299.0244 Q21.1875,300.0869 22.5313,300.0869 Q23.1563,300.0869 23.75,299.8212 Q24.3438,299.54 24.9688,298.9619 L24.9688,301.6806 Z " fill="#000000"/><text fill="#000E52" font-family="sans-serif" font-size="14" lengthAdjust="spacing" textLength="130.6621" x="36" y="300.8867">PatientInformation</text><line style="stroke:#000E52;stroke-width:0.5;" x1="8" x2="168.6621" y1="312.04" y2="312.04"/><text fill="#000E52" font-family="sans-serif" font-size="14" lengthAdjust="spacing" textLength="98.54" x="13" y="329.0351">Identifier kvnr</text><text fill="#000E52" font-family="sans-serif" font-size="14" lengthAdjust="spacing" textLength="135.9463" x="13" y="345.332">HumanName name</text><text fill="#000E52" font-family="sans-serif" font-size="14" lengthAdjust="spacing" textLength="89.9199" x="13" y="361.6289">Code gender</text><text fill="#000E52" font-family="sans-serif" font-size="14" lengthAdjust="spacing" textLength="116.0674" x="13" y="377.9257">Address address</text><text fill="#000E52" font-family="sans-serif" font-size="14" lengthAdjust="spacing" textLength="104.2686" x="13" y="394.2226">Date birthDate</text><text fill="#000E52" font-family="sans-serif" font-size="14" lengthAdjust="spacing" textLength="13.3506" x="13" y="410.5195">...</text><line style="stroke:#000E52;stroke-width:0.5;" x1="8" x2="168.6621" y1="417.8212" y2="417.8212"/></g><!--class CoverageInformation--><g id="elem_CoverageInformation"><rect codeLine="29" fill="#E6E6E6" height="194.6719" id="CoverageInformation" rx="2.5" ry="2.5" style="stroke:#000E52;stroke-width:0.5;" width="388.9609" x="204.85" y="255.6"/><ellipse cx="320.9003" cy="271.6" fill="#ADD1B2" rx="11" ry="11" style="stroke:#181818;stroke-width:1.0;"/><path d="M323.869,277.2406 Q323.2909,277.5375 322.6503,277.6781 Q322.0097,277.8344 321.3065,277.8344 Q318.8065,277.8344 317.4784,276.1938 Q316.1659,274.5375 316.1659,271.4125 Q316.1659,268.2875 317.4784,266.6313 Q318.8065,264.975 321.3065,264.975 Q322.0097,264.975 322.6503,265.1313 Q323.3065,265.2875 323.869,265.5844 L323.869,268.3031 Q323.244,267.725 322.6503,267.4594 Q322.0565,267.1781 321.4315,267.1781 Q320.0878,267.1781 319.4003,268.2563 Q318.7128,269.3188 318.7128,271.4125 Q318.7128,273.5063 319.4003,274.5844 Q320.0878,275.6469 321.4315,275.6469 Q322.0565,275.6469 322.6503,275.3813 Q323.244,275.1 323.869,274.5219 L323.869,277.2406 Z " fill="#000000"/><text fill="#000E52" font-family="sans-serif" font-size="14" lengthAdjust="spacing" textLength="148.3604" x="341.4003" y="276.4467">CoverageInformation</text><line style="stroke:#000E52;stroke-width:0.5;" x1="205.85" x2="592.8109" y1="287.6" y2="287.6"/><text fill="#000E52" font-family="sans-serif" font-size="14" lengthAdjust="spacing" textLength="130.3477" x="210.85" y="304.5951">Identifier identifier</text><text fill="#000E52" font-family="sans-serif" font-size="14" lengthAdjust="spacing" textLength="83.3096" x="210.85" y="320.892">Code status</text><text fill="#000E52" font-family="sans-serif" font-size="14" lengthAdjust="spacing" textLength="203.2734" x="210.85" y="337.1889">Reference beneficiaryPatient</text><text fill="#000E52" font-family="sans-serif" font-size="14" lengthAdjust="spacing" textLength="157.7529" x="210.85" y="353.4857">Period coveragePeriod</text><text fill="#000E52" font-family="sans-serif" font-size="14" lengthAdjust="spacing" textLength="105.3691" x="210.85" y="369.7826">PayorInsurer ik</text><text fill="#000E52" font-family="sans-serif" font-size="14" lengthAdjust="spacing" textLength="351.873" x="210.85" y="386.0795">CostToBeneficiary coPaymentAndPersonengruppe</text><text fill="#000E52" font-family="sans-serif" font-size="14" lengthAdjust="spacing" textLength="189.9502" x="210.85" y="402.3764">ExtensionDMP[] dmpCodes</text><text fill="#000E52" font-family="sans-serif" font-size="14" lengthAdjust="spacing" textLength="376.9609" x="210.85" y="418.6732">ExtensionSelektivVertraege[] selektivVertraegeCodes</text><text fill="#000E52" font-family="sans-serif" font-size="14" lengthAdjust="spacing" textLength="13.3506" x="210.85" y="434.9701">...</text><line style="stroke:#000E52;stroke-width:0.5;" x1="205.85" x2="592.8109" y1="442.2719" y2="442.2719"/></g><!--reverse link Versichertenstammdaten to Bundle--><g id="link_Versichertenstammdaten_Bundle"><path codeLine="41" d="M243.33,106.01 C243.33,125.54 243.33,130.41 243.33,147.12 " fill="none" id="Versichertenstammdaten-backto-Bundle" style="stroke:#000E52;stroke-width:1.0;"/><polygon fill="none" points="243.33,88.01,237.33,106.01,249.33,106.01,243.33,88.01" style="stroke:#000E52;stroke-width:1.0;"/></g><!--reverse link Bundle to PatientInformation--><g id="link_Bundle_PatientInformation"><path codeLine="42" d="M215.224,205.1197 C196.844,226.3897 176.6,249.81 150.82,279.64 " fill="none" id="Bundle-backto-PatientInformation" style="stroke:#000E52;stroke-width:1.0;"/><polygon fill="#000E52" points="223.07,196.04,216.1204,197.9645,215.224,205.1197,222.1736,203.1952,223.07,196.04" style="stroke:#000E52;stroke-width:1.0;"/></g><!--reverse link Bundle to CoverageInformation--><g id="link_Bundle_CoverageInformation"><path codeLine="43" d="M271.6044,205.095 C285.1444,220.665 296.05,233.2 315.32,255.36 " fill="none" id="Bundle-backto-CoverageInformation" style="stroke:#000E52;stroke-width:1.0;"/><polygon fill="#000E52" points="263.73,196.04,264.6489,203.1923,271.6044,205.095,270.6856,197.9427,263.73,196.04" style="stroke:#000E52;stroke-width:1.0;"/></g><!--SRC=[VLB1ZjD03BtdAonnsI8rgf3WWBYqMn0zW2gssWkx1pVZfACsdk1n2XNmxtWosItGXKHAFC_ss7xFSU-vGy4MgWF62DyBi6U1rRwHqBEx3eSWy8nUfNVmpKN2rn6UpMRqyaLE2U98Bl5tWVKIdQkAt_PAb-wVHO7Rg8ALZZtTaaHVxKYKE2gshKEpnbORqgl9e_Mb9pcjqpmHVDm8eRQKAXn9o4tiSWvA8BxPARo6svibL86ZZmgXXZMgjsX0TZ2aO6En54Cl5SNoZZSxEW4AGQhZoK4jeRLmsAbsKyzAKcD5Tvnk4D9Us88y0y9L9s6BsyC9ecyCdS32w3rGMHHvodoqgH836HhxMN4Tf3KxF0ozSWRxsfF0_iWoOE_x5laZjWHidm6w3ewC5ZPXCklEsJGHCFy7R6bSmjQBxf8rG6LPddjuuE6_JVX7yrpNbD8-r_X4jT7FbHKYfjfN7fDAmt13mDhO3CwaoBNoCNlm56J5iPTKPZzU7tKJ5kUhBD7Yaj1pTfOS0nCtqdTT7kZjjxGvrldom_hpFRYsInt6FtqtTA2z-gDjcoqVDMIHyM_id3UIz8_TVFDZEis25gEkpwVJ9_JytVi4qqNn2m00]--></g></svg>