<?plantuml 1.2026.2?><svg xmlns="http://www.w3.org/2000/svg" xmlns:xlink="http://www.w3.org/1999/xlink" contentStyleType="text/css" data-diagram-type="SEQUENCE" height="2337px" preserveAspectRatio="none" style="width:1571px;height:2337px;background:#FFFFFF;" version="1.1" viewBox="0 0 1571 2337" width="1571px" zoomAndPan="magnify"><title>VSDM 2.0 Sequenzdiagramm "Versichertenstammdaten und Pr&#252;fziffer abrufen"</title><defs/><g><text fill="#000000" font-family="sans-serif" font-size="14" font-weight="bold" lengthAdjust="spacing" textLength="570.7666" x="496.2961" y="28.5352">VSDM 2.0 Sequenzdiagramm "Versichertenstammdaten und Pr&#252;fziffer abrufen"</text><g><title>LEI-Mitarbeiter</title><rect fill="#FFFFFF" height="132.2422" style="stroke:#181818;stroke-width:1;" width="10" x="122.8369" y="193.5977"/></g><g><title>.LEI</title><rect fill="#FFFFFF" height="1793.4297" style="stroke:#181818;stroke-width:1;" width="10" x="315.8647" y="247.2188"/></g><g><title>.VSD-Dienst</title><rect fill="#FFFFFF" height="1112.0664" style="stroke:#181818;stroke-width:1;" width="10" x="850.8208" y="928.582"/></g><g><title>.VSD-Dienst</title><rect fill="#FFFFFF" height="712.7188" style="stroke:#181818;stroke-width:1;" width="10" x="1133.9746" y="1327.9297"/></g><g><title>.VSD-Dienst</title><rect fill="#FFFFFF" height="28" style="stroke:#181818;stroke-width:1;" width="10" x="1138.9746" y="2012.6484"/></g><rect fill="none" height="88.9316" style="stroke:#000000;stroke-width:1.5;" width="518.4302" x="64.1313" y="208.5977"/><rect fill="none" height="46.6211" style="stroke:#000000;stroke-width:1.5;" width="673.8271" x="253.2925" y="985.8926"/><rect fill="none" height="46.6211" style="stroke:#000000;stroke-width:1.5;" width="673.8271" x="253.2925" y="1088.8242"/><rect fill="none" height="46.6211" style="stroke:#000000;stroke-width:1.5;" width="673.8271" x="253.2925" y="1207.0664"/><rect fill="none" height="75.9316" style="stroke:#000000;stroke-width:1.5;" width="970.1118" x="253.2925" y="1385.2402"/><rect fill="none" height="416.5449" style="stroke:#000000;stroke-width:1.5;" width="1345.6108" x="64.1313" y="1517.4824"/><g class="participant-lifeline" data-entity-uid="part1" data-qualified-name="Ver" id="part1-lifeline"><g><title>Patient</title><rect fill="#000000" fill-opacity="0.00000" height="2211.4219" width="8" x="27.2388" y="118.9766"/><line style="stroke:#181818;stroke-width:0.5;stroke-dasharray:5,5;" x1="31" x2="31" y1="118.9766" y2="2330.3984"/></g></g><g class="participant-lifeline" data-entity-uid="part2" data-qualified-name="LE" id="part2-lifeline"><g><title>LEI-Mitarbeiter</title><rect fill="#000000" fill-opacity="0.00000" height="2211.4219" width="8" x="123.8369" y="118.9766"/><line style="stroke:#181818;stroke-width:0.5;stroke-dasharray:5,5;" x1="127.1313" x2="127.1313" y1="118.9766" y2="2330.3984"/></g></g><g class="participant-lifeline" data-entity-uid="part3" data-qualified-name="PS" id="part3-lifeline"><g><title>.LEI</title><rect fill="#000000" fill-opacity="0.00000" height="2211.4219" width="8" x="316.8647" y="118.9766"/><line style="stroke:#181818;stroke-width:0.5;stroke-dasharray:5,5;" x1="320.2925" x2="320.2925" y1="118.9766" y2="2330.3984"/></g></g><g class="participant-lifeline" data-entity-uid="part4" data-qualified-name="VSDD_AuthZ" id="part4-lifeline"><g><title>.VSD-Dienst</title><rect fill="#000000" fill-opacity="0.00000" height="2211.4219" width="8" x="689.2349" y="118.9766"/><line style="stroke:#181818;stroke-width:0.5;stroke-dasharray:5,5;" x1="692.9478" x2="692.9478" y1="118.9766" y2="2330.3984"/></g></g><g class="participant-lifeline" data-entity-uid="part5" data-qualified-name="VSDD_Proxy" id="part5-lifeline"><g><title>.VSD-Dienst</title><rect fill="#000000" fill-opacity="0.00000" height="2211.4219" width="8" x="851.8208" y="118.9766"/><line style="stroke:#181818;stroke-width:0.5;stroke-dasharray:5,5;" x1="855.522" x2="855.522" y1="118.9766" y2="2330.3984"/></g></g><g class="participant-lifeline" data-entity-uid="part6" data-qualified-name="VSDD_Server" id="part6-lifeline"><g><title>.VSD-Dienst</title><rect fill="#000000" fill-opacity="0.00000" height="2211.4219" width="8" x="1134.9746" y="118.9766"/><line style="stroke:#181818;stroke-width:0.5;stroke-dasharray:5,5;" x1="1138.5449" x2="1138.5449" y1="118.9766" y2="2330.3984"/></g></g><g class="participant-lifeline" data-entity-uid="part7" data-qualified-name="PoPP" id="part7-lifeline"><g><title>.PoPP-Service</title><rect fill="#000000" fill-opacity="0.00000" height="2211.4219" width="8" x="1487.4683" y="118.9766"/><line style="stroke:#181818;stroke-width:0.5;stroke-dasharray:5,5;" x1="1490.5776" x2="1490.5776" y1="118.9766" y2="2330.3984"/></g></g><g class="participant participant-head" data-entity-uid="part1" data-qualified-name="Ver" id="part1-head"><text fill="#000000" font-family="sans-serif" font-size="14" lengthAdjust="spacing" textLength="46.4775" x="5" y="116.0234">Patient</text><ellipse cx="31.2388" cy="50.9883" fill="#E2E2F0" rx="8" ry="8" style="stroke:#181818;stroke-width:0.5;"/><path d="M31.2388,58.9883 L31.2388,85.9883 M18.2388,66.9883 L44.2388,66.9883 M31.2388,85.9883 L18.2388,100.9883 M31.2388,85.9883 L44.2388,100.9883" fill="none" style="stroke:#181818;stroke-width:0.5;"/></g><g class="participant participant-head" data-entity-uid="part2" data-qualified-name="LE" id="part2-head"><text fill="#000000" font-family="sans-serif" font-size="14" lengthAdjust="spacing" textLength="101.4111" x="74.1313" y="116.0234">LEI-Mitarbeiter</text><ellipse cx="127.8369" cy="50.9883" fill="#E2E2F0" rx="8" ry="8" style="stroke:#181818;stroke-width:0.5;"/><path d="M127.8369,58.9883 L127.8369,85.9883 M114.8369,66.9883 L140.8369,66.9883 M127.8369,85.9883 L114.8369,100.9883 M127.8369,85.9883 L140.8369,100.9883" fill="none" style="stroke:#181818;stroke-width:0.5;"/></g><g class="participant participant-head" data-entity-uid="part3" data-qualified-name="PS" id="part3-head"><rect fill="#E2E2F0" height="61.4961" rx="2.5" ry="2.5" style="stroke:#181818;stroke-width:0.5;" width="115.1445" x="263.2925" y="56.4805"/><text fill="#000000" font-family="sans-serif" font-size="18" font-weight="bold" lengthAdjust="spacing" textLength="27.2461" x="307.2417" y="80.8828">LEI</text><line style="stroke:#181818;stroke-width:1;" x1="263.2925" x2="378.437" y1="89.6797" y2="89.6797"/><text fill="#000000" font-family="monospace" font-size="14" lengthAdjust="spacing" textLength="101.1445" x="270.2925" y="107.6748">Prim&#228;rsystem</text></g><g class="participant participant-head" data-entity-uid="part4" data-qualified-name="VSDD_AuthZ" id="part4-head"><rect fill="#E2E2F0" height="61.4961" rx="2.5" ry="2.5" style="stroke:#181818;stroke-width:0.5;" width="182.5742" x="601.9478" y="56.4805"/><text fill="#000000" font-family="sans-serif" font-size="18" font-weight="bold" lengthAdjust="spacing" textLength="108.5977" x="638.936" y="80.8828">VSD-Dienst</text><line style="stroke:#181818;stroke-width:1;" x1="601.9478" x2="784.522" y1="89.6797" y2="89.6797"/><text fill="#000000" font-family="monospace" font-size="14" lengthAdjust="spacing" textLength="168.5742" x="608.9478" y="107.6748">Authorization-Server</text></g><g class="participant participant-head" data-entity-uid="part5" data-qualified-name="VSDD_Proxy" id="part5-head"><rect fill="#E2E2F0" height="61.4961" rx="2.5" ry="2.5" style="stroke:#181818;stroke-width:0.5;" width="122.5977" x="794.522" y="56.4805"/><text fill="#000000" font-family="sans-serif" font-size="18" font-weight="bold" lengthAdjust="spacing" textLength="108.5977" x="801.522" y="80.8828">VSD-Dienst</text><line style="stroke:#181818;stroke-width:1;" x1="794.522" x2="917.1196" y1="89.6797" y2="89.6797"/><text fill="#000000" font-family="monospace" font-size="14" lengthAdjust="spacing" textLength="84.2871" x="813.6772" y="107.6748">HTTP-Proxy</text></g><g class="participant participant-head" data-entity-uid="part6" data-qualified-name="VSDD_Server" id="part6-head"><rect fill="#E2E2F0" height="61.4961" rx="2.5" ry="2.5" style="stroke:#181818;stroke-width:0.5;" width="148.8594" x="1064.5449" y="56.4805"/><text fill="#000000" font-family="sans-serif" font-size="18" font-weight="bold" lengthAdjust="spacing" textLength="108.5977" x="1084.6758" y="80.8828">VSD-Dienst</text><line style="stroke:#181818;stroke-width:1;" x1="1064.5449" x2="1213.4043" y1="89.6797" y2="89.6797"/><text fill="#000000" font-family="monospace" font-size="14" lengthAdjust="spacing" textLength="134.8594" x="1071.5449" y="107.6748">Ressource-Server</text></g><g class="participant participant-head" data-entity-uid="part7" data-qualified-name="PoPP" id="part7-head"><rect fill="#E2E2F0" height="61.4961" rx="2.5" ry="2.5" style="stroke:#181818;stroke-width:0.5;" width="135.7813" x="1423.5776" y="56.4805"/><text fill="#000000" font-family="sans-serif" font-size="18" font-weight="bold" lengthAdjust="spacing" textLength="121.7813" x="1430.5776" y="80.8828">PoPP-Service</text><line style="stroke:#181818;stroke-width:1;" x1="1423.5776" x2="1559.3589" y1="89.6797" y2="89.6797"/><text fill="#000000" font-family="monospace" font-size="14" lengthAdjust="spacing" textLength="101.1445" x="1440.896" y="107.6748">PoPP-Service</text></g><g><title>LEI-Mitarbeiter</title><rect fill="#FFFFFF" height="132.2422" style="stroke:#181818;stroke-width:1;" width="10" x="122.8369" y="193.5977"/></g><g><title>.LEI</title><rect fill="#FFFFFF" height="1793.4297" style="stroke:#181818;stroke-width:1;" width="10" x="315.8647" y="247.2188"/></g><g><title>.VSD-Dienst</title><rect fill="#FFFFFF" height="1112.0664" style="stroke:#181818;stroke-width:1;" width="10" x="850.8208" y="928.582"/></g><g><title>.VSD-Dienst</title><rect fill="#FFFFFF" height="712.7188" style="stroke:#181818;stroke-width:1;" width="10" x="1133.9746" y="1327.9297"/></g><g><title>.VSD-Dienst</title><rect fill="#FFFFFF" height="28" style="stroke:#181818;stroke-width:1;" width="10" x="1138.9746" y="2012.6484"/></g><rect fill="#D1F2EB" height="3" style="stroke:#D1F2EB;stroke-width:1;" width="1564.3589" x="0" y="149.6318"/><line style="stroke:#000000;stroke-width:1;" x1="0" x2="1564.3589" y1="149.6318" y2="149.6318"/><line style="stroke:#000000;stroke-width:1;" x1="0" x2="1564.3589" y1="152.6318" y2="152.6318"/><rect fill="#D1F2EB" height="23.3105" style="stroke:#000000;stroke-width:2;" width="49.8008" x="757.2791" y="138.9766"/><text fill="#000000" font-family="sans-serif" font-size="13" font-weight="bold" lengthAdjust="spacing" textLength="31.5161" x="763.2791" y="155.5449">Start</text><g class="message" data-entity-1="part1" data-entity-2="part2" id="msg1"><polygon fill="#181818" points="110.8369,189.5977,120.8369,193.5977,110.8369,197.5977,114.8369,193.5977" style="stroke:#181818;stroke-width:1;"/><line style="stroke:#181818;stroke-width:1;" x1="31.2388" x2="116.8369" y1="193.5977" y2="193.5977"/><text fill="#000000" font-family="sans-serif" font-size="13" lengthAdjust="spacing" textLength="72.5981" x="38.2388" y="188.8555">Anmeldung</text></g><path d="M64.1313,208.5977 L126.27,208.5977 L126.27,215.9082 L116.27,225.9082 L64.1313,225.9082 L64.1313,208.5977" fill="#EEEEEE" style="stroke:#000000;stroke-width:1.5;"/><rect fill="none" height="88.9316" style="stroke:#000000;stroke-width:1.5;" width="518.4302" x="64.1313" y="208.5977"/><text fill="#000000" font-family="sans-serif" font-size="13" font-weight="bold" lengthAdjust="spacing" textLength="17.1387" x="79.1313" y="222.166">alt</text><text fill="#000000" font-family="sans-serif" font-size="11" font-weight="bold" lengthAdjust="spacing" textLength="83.4937" x="141.27" y="221.2324">[neuer Patient]</text><g class="message" data-entity-1="part2" data-entity-2="part3" id="msg2"><polygon fill="#181818" points="303.8647,243.2188,313.8647,247.2188,303.8647,251.2188,307.8647,247.2188" style="stroke:#181818;stroke-width:1;"/><line style="stroke:#181818;stroke-width:1;" x1="132.8369" x2="309.8647" y1="247.2188" y2="247.2188"/><text fill="#000000" font-family="sans-serif" font-size="13" lengthAdjust="spacing" textLength="121.1895" x="139.8369" y="242.4766">Patientenaufnahme</text></g><g class="message" data-entity-1="part3" data-entity-2="part3" id="msg3"><line style="stroke:#181818;stroke-width:1;" x1="325.8647" x2="367.8647" y1="276.5293" y2="276.5293"/><line style="stroke:#181818;stroke-width:1;" x1="367.8647" x2="367.8647" y1="276.5293" y2="289.5293"/><line style="stroke:#181818;stroke-width:1;" x1="326.8647" x2="367.8647" y1="289.5293" y2="289.5293"/><polygon fill="#181818" points="336.8647,285.5293,326.8647,289.5293,336.8647,293.5293,332.8647,289.5293" style="stroke:#181818;stroke-width:1;"/><text fill="#000000" font-family="sans-serif" font-size="13" lengthAdjust="spacing" textLength="227.6968" x="332.8647" y="271.7871">initialen Patientenstamm generieren</text></g><g class="message" data-entity-1="part2" data-entity-2="part3" id="msg4"><polygon fill="#181818" points="303.8647,321.8398,313.8647,325.8398,303.8647,329.8398,307.8647,325.8398" style="stroke:#181818;stroke-width:1;"/><line style="stroke:#181818;stroke-width:1;" x1="127.8369" x2="309.8647" y1="325.8398" y2="325.8398"/><text fill="#000000" font-family="sans-serif" font-size="13" lengthAdjust="spacing" textLength="159.0278" x="134.8369" y="321.0977">Patientenstamm aufrufen</text></g><rect fill="#D1F2EB" height="3" style="stroke:#D1F2EB;stroke-width:1;" width="1564.3589" x="0" y="354.4951"/><line style="stroke:#000000;stroke-width:1;" x1="0" x2="1564.3589" y1="354.4951" y2="354.4951"/><line style="stroke:#000000;stroke-width:1;" x1="0" x2="1564.3589" y1="357.4951" y2="357.4951"/><rect fill="#D1F2EB" height="23.3105" style="stroke:#000000;stroke-width:2;" width="588.3613" x="487.9988" y="343.8398"/><text fill="#000000" font-family="sans-serif" font-size="13" font-weight="bold" lengthAdjust="spacing" textLength="570.0767" x="493.9988" y="360.4082">Versorgungskontext herstellen (nur bei erstmaliger Patientenversorgung im Quartal)</text><rect fill="#EBF5FB" height="39.4434" style="stroke:#000000;stroke-width:1.5;" width="1560.3589" x="2" y="377.1504"/><path d="M2,377.1504 L65,377.1504 L65,384.1504 L55,394.1504 L2,394.1504 L2,377.1504" fill="#EEEEEE" style="stroke:#000000;stroke-width:2;"/><text fill="#000000" font-family="sans-serif" font-size="13" font-weight="bold" lengthAdjust="spacing" textLength="18.916" x="15" y="391.7188">ref</text><text fill="#000000" font-family="sans-serif" font-size="12" lengthAdjust="spacing" textLength="526.3652" x="518.9968" y="409.752">Versorgungskontext mit eGK oder GesundheitsID herstellen (siehe gemSpec_PoPP_Service)</text><g class="message" data-entity-1="part7" data-entity-2="part3" id="msg5"><polygon fill="#181818" points="336.8647,454.2148,326.8647,458.2148,336.8647,462.2148,332.8647,458.2148" style="stroke:#181818;stroke-width:1;"/><line style="stroke:#181818;stroke-width:1;" x1="330.8647" x2="1490.4683" y1="458.2148" y2="458.2148"/><text fill="#000000" font-family="sans-serif" font-size="13" lengthAdjust="spacing" textLength="101.0483" x="342.8647" y="438.1621">PoPP-Token mit</text><text fill="#000000" font-family="sans-serif" font-size="13" lengthAdjust="spacing" textLength="231.1055" x="342.8647" y="453.4727">KVNR, IK-Nummer, OID, Zeitstempel</text></g><g class="message" data-entity-1="part3" data-entity-2="part3" id="msg6"><line style="stroke:#181818;stroke-width:1;" x1="325.8647" x2="367.8647" y1="502.8359" y2="502.8359"/><line style="stroke:#181818;stroke-width:1;" x1="367.8647" x2="367.8647" y1="502.8359" y2="515.8359"/><line style="stroke:#181818;stroke-width:1;" x1="326.8647" x2="367.8647" y1="515.8359" y2="515.8359"/><polygon fill="#181818" points="336.8647,511.8359,326.8647,515.8359,336.8647,519.8359,332.8647,515.8359" style="stroke:#181818;stroke-width:1;"/><text fill="#000000" font-family="sans-serif" font-size="13" lengthAdjust="spacing" textLength="141.4575" x="332.8647" y="482.7832">PoPP-Token speichern</text><text fill="#000000" font-family="sans-serif" font-size="13" lengthAdjust="spacing" textLength="171.1074" x="332.8647" y="498.0938">(bspw. im Patientenstamm)</text></g><g class="message" data-entity-1="part3" data-entity-2="part3" id="msg7"><line style="stroke:#181818;stroke-width:1;" x1="325.8647" x2="367.8647" y1="560.457" y2="560.457"/><line style="stroke:#181818;stroke-width:1;" x1="367.8647" x2="367.8647" y1="560.457" y2="573.457"/><line style="stroke:#181818;stroke-width:1;" x1="326.8647" x2="367.8647" y1="573.457" y2="573.457"/><polygon fill="#181818" points="336.8647,569.457,326.8647,573.457,336.8647,577.457,332.8647,573.457" style="stroke:#181818;stroke-width:1;"/><text fill="#000000" font-family="sans-serif" font-size="13" lengthAdjust="spacing" textLength="300.9551" x="332.8647" y="540.4043">PoPP-Token dekodieren und KVNR, IK-Nummer</text><text fill="#000000" font-family="sans-serif" font-size="13" lengthAdjust="spacing" textLength="236.3867" x="332.8647" y="555.7148">(bspw. im Patientenstamm) speichern</text></g><rect fill="#D1F2EB" height="3" style="stroke:#D1F2EB;stroke-width:1;" width="1564.3589" x="0" y="602.1123"/><line style="stroke:#000000;stroke-width:1;" x1="0" x2="1564.3589" y1="602.1123" y2="602.1123"/><line style="stroke:#000000;stroke-width:1;" x1="0" x2="1564.3589" y1="605.1123" y2="605.1123"/><rect fill="#D1F2EB" height="23.3105" style="stroke:#000000;stroke-width:2;" width="411.1157" x="576.6216" y="591.457"/><text fill="#000000" font-family="sans-serif" font-size="13" font-weight="bold" lengthAdjust="spacing" textLength="392.8311" x="582.6216" y="608.0254">Fachdienst VSDM 2.0 Dienstlokalisierung (alle 24 Stunden)</text><rect fill="#EBF5FB" height="39.4434" style="stroke:#000000;stroke-width:1.5;" width="1302.0664" x="260.2925" y="624.7676"/><path d="M260.2925,624.7676 L323.2925,624.7676 L323.2925,631.7676 L313.2925,641.7676 L260.2925,641.7676 L260.2925,624.7676" fill="#EEEEEE" style="stroke:#000000;stroke-width:2;"/><text fill="#000000" font-family="sans-serif" font-size="13" font-weight="bold" lengthAdjust="spacing" textLength="18.916" x="273.2925" y="639.3359">ref</text><text fill="#000000" font-family="sans-serif" font-size="12" lengthAdjust="spacing" textLength="383.3789" x="719.6362" y="657.3691">Dienstlokalisierung mit FQDN &lt;ik-nummer&gt;.vsdm2.ti-dienste.de</text><rect fill="#D1F2EB" height="3" style="stroke:#D1F2EB;stroke-width:1;" width="1564.3589" x="0" y="689.8662"/><line style="stroke:#000000;stroke-width:1;" x1="0" x2="1564.3589" y1="689.8662" y2="689.8662"/><line style="stroke:#000000;stroke-width:1;" x1="0" x2="1564.3589" y1="692.8662" y2="692.8662"/><rect fill="#D1F2EB" height="23.3105" style="stroke:#000000;stroke-width:2;" width="242.5664" x="660.8962" y="679.2109"/><text fill="#000000" font-family="sans-serif" font-size="13" font-weight="bold" lengthAdjust="spacing" textLength="224.2817" x="666.8962" y="695.7793">Versichertenstammdaten abrufen</text><rect fill="#EBF5FB" height="39.4434" style="stroke:#000000;stroke-width:1.5;" width="659.8271" x="260.2925" y="712.5215"/><path d="M260.2925,712.5215 L323.2925,712.5215 L323.2925,719.5215 L313.2925,729.5215 L260.2925,729.5215 L260.2925,712.5215" fill="#EEEEEE" style="stroke:#000000;stroke-width:2;"/><text fill="#000000" font-family="sans-serif" font-size="13" font-weight="bold" lengthAdjust="spacing" textLength="18.916" x="273.2925" y="727.0898">ref</text><text fill="#000000" font-family="sans-serif" font-size="12" lengthAdjust="spacing" textLength="434.4492" x="372.9814" y="745.123">Endpunkt-Lokalisierung Fachdienst VSDM 2.0 (siehe gemSpec_Zero-Trust)</text><rect fill="#EBF5FB" height="39.4434" style="stroke:#000000;stroke-width:1.5;" width="527.2295" x="260.2925" y="756.9648"/><path d="M260.2925,756.9648 L323.2925,756.9648 L323.2925,763.9648 L313.2925,773.9648 L260.2925,773.9648 L260.2925,756.9648" fill="#EEEEEE" style="stroke:#000000;stroke-width:2;"/><text fill="#000000" font-family="sans-serif" font-size="13" font-weight="bold" lengthAdjust="spacing" textLength="18.916" x="273.2925" y="771.5332">ref</text><text fill="#000000" font-family="sans-serif" font-size="12" lengthAdjust="spacing" textLength="476.4082" x="285.7031" y="789.5664">LEI-Authentifizierung (SMC-B) und LEI-Autorisierung (siehe gemSpec_Zero-Trust)</text><g class="message" data-entity-1="part4" data-entity-2="part3" id="msg8"><polygon fill="#181818" points="336.8647,834.0293,326.8647,838.0293,336.8647,842.0293,332.8647,838.0293" style="stroke:#181818;stroke-width:1;"/><line style="stroke:#181818;stroke-width:1;" x1="330.8647" x2="692.2349" y1="838.0293" y2="838.0293"/><text fill="#000000" font-family="sans-serif" font-size="13" lengthAdjust="spacing" textLength="84.6523" x="342.8647" y="817.9766">HTTP 200 OK</text><text fill="#000000" font-family="sans-serif" font-size="13" lengthAdjust="spacing" textLength="343.3701" x="342.8647" y="833.2871">{Refresh-Token, Access-Token} mit scope : vsdservice</text></g><g class="message" data-entity-1="part3" data-entity-2="part5" id="msg9"><polygon fill="#181818" points="838.8208,924.582,848.8208,928.582,838.8208,932.582,842.8208,928.582" style="stroke:#181818;stroke-width:1;"/><line style="stroke:#181818;stroke-width:1;" x1="325.8647" x2="844.8208" y1="928.582" y2="928.582"/><text fill="#000000" font-family="sans-serif" font-size="13" lengthAdjust="spacing" textLength="206.4639" x="332.8647" y="862.5977">GET /vsdservice/v1/vsdmbundle</text><text fill="#000000" font-family="sans-serif" font-size="13" lengthAdjust="spacing" textLength="234.6855" x="332.8647" y="877.9082">Authorization: DPoP &lt;access_token&gt;</text><text fill="#000000" font-family="sans-serif" font-size="13" lengthAdjust="spacing" textLength="159.6055" x="332.8647" y="893.2188">DPoP: &lt;dpop_proof_jwt&gt;</text><text fill="#000000" font-family="sans-serif" font-size="13" lengthAdjust="spacing" textLength="133.2246" x="332.8647" y="908.5293">PoPP: &lt;popp_token&gt;</text><text fill="#000000" font-family="sans-serif" font-size="13" lengthAdjust="spacing" textLength="199.9067" x="332.8647" y="923.8398">If-None-Match: "&lt;etag_value&gt;"</text></g><g class="message" data-entity-1="part5" data-entity-2="part5" id="msg10"><line style="stroke:#181818;stroke-width:1;" x1="860.8208" x2="902.8208" y1="957.8926" y2="957.8926"/><line style="stroke:#181818;stroke-width:1;" x1="902.8208" x2="902.8208" y1="957.8926" y2="970.8926"/><line style="stroke:#181818;stroke-width:1;" x1="861.8208" x2="902.8208" y1="970.8926" y2="970.8926"/><polygon fill="#181818" points="871.8208,966.8926,861.8208,970.8926,871.8208,974.8926,867.8208,970.8926" style="stroke:#181818;stroke-width:1;"/><text fill="#000000" font-family="sans-serif" font-size="13" lengthAdjust="spacing" textLength="135.1924" x="867.8208" y="953.1504">Access-Token pr&#252;fen</text></g><path d="M253.2925,985.8926 L315.4312,985.8926 L315.4312,993.2031 L305.4312,1003.2031 L253.2925,1003.2031 L253.2925,985.8926" fill="#EEEEEE" style="stroke:#000000;stroke-width:1.5;"/><rect fill="none" height="46.6211" style="stroke:#000000;stroke-width:1.5;" width="673.8271" x="253.2925" y="985.8926"/><text fill="#000000" font-family="sans-serif" font-size="13" font-weight="bold" lengthAdjust="spacing" textLength="17.1387" x="268.2925" y="999.4609">alt</text><text fill="#000000" font-family="sans-serif" font-size="11" font-weight="bold" lengthAdjust="spacing" textLength="265.939" x="330.4312" y="998.5273">[Access-Token nicht vorhanden oder ung&#252;ltig]</text><g class="message" data-entity-1="part5" data-entity-2="part3" id="msg11"><polygon fill="#181818" points="336.8647,1020.5137,326.8647,1024.5137,336.8647,1028.5137,332.8647,1024.5137" style="stroke:#181818;stroke-width:1;"/><line style="stroke:#181818;stroke-width:1;" x1="330.8647" x2="849.8208" y1="1024.5137" y2="1024.5137"/><text fill="#000000" font-family="sans-serif" font-size="13" lengthAdjust="spacing" textLength="151.2583" x="342.8647" y="1019.7715">HTTP 401 Unauthorized</text></g><g class="message" data-entity-1="part5" data-entity-2="part5" id="msg12"><line style="stroke:#181818;stroke-width:1;" x1="860.8208" x2="902.8208" y1="1060.8242" y2="1060.8242"/><line style="stroke:#181818;stroke-width:1;" x1="902.8208" x2="902.8208" y1="1060.8242" y2="1073.8242"/><line style="stroke:#181818;stroke-width:1;" x1="861.8208" x2="902.8208" y1="1073.8242" y2="1073.8242"/><polygon fill="#181818" points="871.8208,1069.8242,861.8208,1073.8242,871.8208,1077.8242,867.8208,1073.8242" style="stroke:#181818;stroke-width:1;"/><text fill="#000000" font-family="sans-serif" font-size="13" lengthAdjust="spacing" textLength="121.9512" x="867.8208" y="1056.082">PoPP-Token pr&#252;fen</text></g><path d="M253.2925,1088.8242 L315.4312,1088.8242 L315.4312,1096.1348 L305.4312,1106.1348 L253.2925,1106.1348 L253.2925,1088.8242" fill="#EEEEEE" style="stroke:#000000;stroke-width:1.5;"/><rect fill="none" height="46.6211" style="stroke:#000000;stroke-width:1.5;" width="673.8271" x="253.2925" y="1088.8242"/><text fill="#000000" font-family="sans-serif" font-size="13" font-weight="bold" lengthAdjust="spacing" textLength="17.1387" x="268.2925" y="1102.3926">alt</text><text fill="#000000" font-family="sans-serif" font-size="11" font-weight="bold" lengthAdjust="spacing" textLength="254.5093" x="330.4312" y="1101.459">[PoPP-Token nicht vorhanden oder ung&#252;ltig]</text><g class="message" data-entity-1="part5" data-entity-2="part3" id="msg13"><polygon fill="#181818" points="336.8647,1123.4453,326.8647,1127.4453,336.8647,1131.4453,332.8647,1127.4453" style="stroke:#181818;stroke-width:1;"/><line style="stroke:#181818;stroke-width:1;" x1="330.8647" x2="849.8208" y1="1127.4453" y2="1127.4453"/><text fill="#000000" font-family="sans-serif" font-size="13" lengthAdjust="spacing" textLength="129.9556" x="342.8647" y="1122.7031">HTTP 403 Forbidden</text></g><g class="message" data-entity-1="part5" data-entity-2="part5" id="msg14"><line style="stroke:#181818;stroke-width:1;" x1="860.8208" x2="902.8208" y1="1179.0664" y2="1179.0664"/><line style="stroke:#181818;stroke-width:1;" x1="902.8208" x2="902.8208" y1="1179.0664" y2="1192.0664"/><line style="stroke:#181818;stroke-width:1;" x1="861.8208" x2="902.8208" y1="1192.0664" y2="1192.0664"/><polygon fill="#181818" points="871.8208,1188.0664,861.8208,1192.0664,871.8208,1196.0664,867.8208,1192.0664" style="stroke:#181818;stroke-width:1;"/><text fill="#000000" font-family="sans-serif" font-size="13" lengthAdjust="spacing" textLength="215.522" x="867.8208" y="1159.0137">HTTP-Methode und API-Endpunkt</text><text fill="#000000" font-family="sans-serif" font-size="13" lengthAdjust="spacing" textLength="166.5879" x="867.8208" y="1174.3242">des Client-Request pr&#252;fen</text></g><path d="M253.2925,1207.0664 L315.4312,1207.0664 L315.4312,1214.377 L305.4312,1224.377 L253.2925,1224.377 L253.2925,1207.0664" fill="#EEEEEE" style="stroke:#000000;stroke-width:1.5;"/><rect fill="none" height="46.6211" style="stroke:#000000;stroke-width:1.5;" width="673.8271" x="253.2925" y="1207.0664"/><text fill="#000000" font-family="sans-serif" font-size="13" font-weight="bold" lengthAdjust="spacing" textLength="17.1387" x="268.2925" y="1220.6348">alt</text><text fill="#000000" font-family="sans-serif" font-size="11" font-weight="bold" lengthAdjust="spacing" textLength="107.2178" x="330.4312" y="1219.7012">[Request not valid]</text><g class="message" data-entity-1="part5" data-entity-2="part3" id="msg15"><polygon fill="#181818" points="336.8647,1241.6875,326.8647,1245.6875,336.8647,1249.6875,332.8647,1245.6875" style="stroke:#181818;stroke-width:1;"/><line style="stroke:#181818;stroke-width:1;" x1="330.8647" x2="849.8208" y1="1245.6875" y2="1245.6875"/><text fill="#000000" font-family="sans-serif" font-size="13" lengthAdjust="spacing" textLength="143.4634" x="342.8647" y="1240.9453">HTTP 400 Bad Request</text></g><g class="message" data-entity-1="part5" data-entity-2="part6" id="msg16"><polygon fill="#181818" points="1121.9746,1323.9297,1131.9746,1327.9297,1121.9746,1331.9297,1125.9746,1327.9297" style="stroke:#181818;stroke-width:1;"/><line style="stroke:#181818;stroke-width:1;" x1="860.8208" x2="1127.9746" y1="1327.9297" y2="1327.9297"/><text fill="#000000" font-family="sans-serif" font-size="13" lengthAdjust="spacing" textLength="206.4639" x="867.8208" y="1277.2559">GET /vsdservice/v1/vsdmbundle</text><text fill="#000000" font-family="sans-serif" font-size="13" lengthAdjust="spacing" textLength="187.1543" x="867.8208" y="1292.5664">ZETA-User-Info &lt;user_info&gt;,</text><text fill="#000000" font-family="sans-serif" font-size="13" lengthAdjust="spacing" textLength="250.0405" x="867.8208" y="1307.877">ZETA-PoPP-Token-Content &lt;content&gt;,</text><text fill="#000000" font-family="sans-serif" font-size="13" lengthAdjust="spacing" textLength="199.9067" x="867.8208" y="1323.1875">If-None-Match: "&lt;etag_value&gt;"</text></g><g class="message" data-entity-1="part6" data-entity-2="part6" id="msg17"><line style="stroke:#181818;stroke-width:1;" x1="1143.9746" x2="1185.9746" y1="1357.2402" y2="1357.2402"/><line style="stroke:#181818;stroke-width:1;" x1="1185.9746" x2="1185.9746" y1="1357.2402" y2="1370.2402"/><line style="stroke:#181818;stroke-width:1;" x1="1144.9746" x2="1185.9746" y1="1370.2402" y2="1370.2402"/><polygon fill="#181818" points="1154.9746,1366.2402,1144.9746,1370.2402,1154.9746,1374.2402,1150.9746,1370.2402" style="stroke:#181818;stroke-width:1;"/><text fill="#000000" font-family="sans-serif" font-size="13" lengthAdjust="spacing" textLength="130.1079" x="1150.9746" y="1352.498">ZETA-Header pr&#252;fen</text></g><path d="M253.2925,1385.2402 L315.4312,1385.2402 L315.4312,1392.5508 L305.4312,1402.5508 L253.2925,1402.5508 L253.2925,1385.2402" fill="#EEEEEE" style="stroke:#000000;stroke-width:1.5;"/><rect fill="none" height="75.9316" style="stroke:#000000;stroke-width:1.5;" width="970.1118" x="253.2925" y="1385.2402"/><text fill="#000000" font-family="sans-serif" font-size="13" font-weight="bold" lengthAdjust="spacing" textLength="17.1387" x="268.2925" y="1398.8086">alt</text><text fill="#000000" font-family="sans-serif" font-size="11" font-weight="bold" lengthAdjust="spacing" textLength="356.3936" x="330.4312" y="1397.875">[Zero-Trust Access Header nicht vorhanden oder verarbeitbar]</text><g class="message" data-entity-1="part6" data-entity-2="part5" id="msg18"><polygon fill="#181818" points="871.8208,1419.8613,861.8208,1423.8613,871.8208,1427.8613,867.8208,1423.8613" style="stroke:#181818;stroke-width:1;"/><line style="stroke:#181818;stroke-width:1;" x1="865.8208" x2="1132.9746" y1="1423.8613" y2="1423.8613"/><text fill="#000000" font-family="sans-serif" font-size="13" lengthAdjust="spacing" textLength="143.4634" x="877.8208" y="1419.1191">HTTP 400 Bad Request</text></g><g class="message" data-entity-1="part5" data-entity-2="part3" id="msg19"><polygon fill="#181818" points="336.8647,1449.1719,326.8647,1453.1719,336.8647,1457.1719,332.8647,1453.1719" style="stroke:#181818;stroke-width:1;"/><line style="stroke:#181818;stroke-width:1;" x1="330.8647" x2="849.8208" y1="1453.1719" y2="1453.1719"/><text fill="#000000" font-family="sans-serif" font-size="13" lengthAdjust="spacing" textLength="143.4634" x="342.8647" y="1448.4297">HTTP 400 Bad Request</text></g><g class="message" data-entity-1="part6" data-entity-2="part6" id="msg20"><line style="stroke:#181818;stroke-width:1;" x1="1143.9746" x2="1185.9746" y1="1489.4824" y2="1489.4824"/><line style="stroke:#181818;stroke-width:1;" x1="1185.9746" x2="1185.9746" y1="1489.4824" y2="1502.4824"/><line style="stroke:#181818;stroke-width:1;" x1="1144.9746" x2="1185.9746" y1="1502.4824" y2="1502.4824"/><polygon fill="#181818" points="1154.9746,1498.4824,1144.9746,1502.4824,1154.9746,1506.4824,1150.9746,1502.4824" style="stroke:#181818;stroke-width:1;"/><text fill="#000000" font-family="sans-serif" font-size="13" lengthAdjust="spacing" textLength="120.561" x="1150.9746" y="1484.7402">vsd-version pr&#252;fen</text></g><path d="M64.1313,1517.4824 L126.27,1517.4824 L126.27,1524.793 L116.27,1534.793 L64.1313,1534.793 L64.1313,1517.4824" fill="#EEEEEE" style="stroke:#000000;stroke-width:1.5;"/><rect fill="none" height="416.5449" style="stroke:#000000;stroke-width:1.5;" width="1345.6108" x="64.1313" y="1517.4824"/><text fill="#000000" font-family="sans-serif" font-size="13" font-weight="bold" lengthAdjust="spacing" textLength="17.1387" x="79.1313" y="1531.0508">alt</text><text fill="#000000" font-family="sans-serif" font-size="11" font-weight="bold" lengthAdjust="spacing" textLength="232.4932" x="141.27" y="1530.1172">[etag_value(client) == etag_value(VSDD)]</text><g class="message" data-entity-1="part6" data-entity-2="part5" id="msg21"><polygon fill="#181818" points="871.8208,1582.7246,861.8208,1586.7246,871.8208,1590.7246,867.8208,1586.7246" style="stroke:#181818;stroke-width:1;"/><line style="stroke:#181818;stroke-width:1;" x1="865.8208" x2="1132.9746" y1="1586.7246" y2="1586.7246"/><text fill="#000000" font-family="sans-serif" font-size="13" lengthAdjust="spacing" textLength="147.7163" x="877.8208" y="1551.3613">HTTP 304 Not Modified</text><text fill="#000000" font-family="sans-serif" font-size="13" lengthAdjust="spacing" textLength="136.0239" x="877.8208" y="1566.6719">ETag: "&lt;etag_value&gt;"</text><text fill="#000000" font-family="sans-serif" font-size="13" lengthAdjust="spacing" textLength="146.1738" x="877.8208" y="1581.9824">VSDM-Pz: &lt;Pr&#252;fziffer&gt;</text></g><g class="message" data-entity-1="part5" data-entity-2="part3" id="msg22"><polygon fill="#181818" points="336.8647,1642.6563,326.8647,1646.6563,336.8647,1650.6563,332.8647,1646.6563" style="stroke:#181818;stroke-width:1;"/><line style="stroke:#181818;stroke-width:1;" x1="330.8647" x2="849.8208" y1="1646.6563" y2="1646.6563"/><text fill="#000000" font-family="sans-serif" font-size="13" lengthAdjust="spacing" textLength="147.7163" x="342.8647" y="1611.293">HTTP 304 Not Modified</text><text fill="#000000" font-family="sans-serif" font-size="13" lengthAdjust="spacing" textLength="136.0239" x="342.8647" y="1626.6035">ETag: "&lt;etag_value&gt;"</text><text fill="#000000" font-family="sans-serif" font-size="13" lengthAdjust="spacing" textLength="146.1738" x="342.8647" y="1641.9141">VSDM-Pz: &lt;Pr&#252;fziffer&gt;</text></g><line style="stroke:#000000;stroke-width:1;stroke-dasharray:2,2;" x1="64.1313" x2="1409.7422" y1="1655.6563" y2="1655.6563"/><text fill="#000000" font-family="sans-serif" font-size="11" font-weight="bold" lengthAdjust="spacing" textLength="227.1919" x="69.1313" y="1666.291">[etag_value(client) != etag_value(VSDD)]</text><g class="message" data-entity-1="part6" data-entity-2="part6" id="msg23"><line style="stroke:#181818;stroke-width:1;" x1="1143.9746" x2="1185.9746" y1="1690.9219" y2="1690.9219"/><line style="stroke:#181818;stroke-width:1;" x1="1185.9746" x2="1185.9746" y1="1690.9219" y2="1703.9219"/><line style="stroke:#181818;stroke-width:1;" x1="1144.9746" x2="1185.9746" y1="1703.9219" y2="1703.9219"/><polygon fill="#181818" points="1154.9746,1699.9219,1144.9746,1703.9219,1154.9746,1707.9219,1150.9746,1703.9219" style="stroke:#181818;stroke-width:1;"/><text fill="#000000" font-family="sans-serif" font-size="13" lengthAdjust="spacing" textLength="236.7676" x="1150.9746" y="1686.1797">lokalisiere VSD zu KVNR(PoPP-Token)</text></g><g class="message" data-entity-1="part6" data-entity-2="part5" id="msg24"><polygon fill="#181818" points="871.8208,1775.1641,861.8208,1779.1641,871.8208,1783.1641,867.8208,1779.1641" style="stroke:#181818;stroke-width:1;"/><line style="stroke:#181818;stroke-width:1;" x1="865.8208" x2="1132.9746" y1="1779.1641" y2="1779.1641"/><text fill="#000000" font-family="sans-serif" font-size="13" lengthAdjust="spacing" textLength="84.6523" x="877.8208" y="1728.4902">HTTP 200 OK</text><text fill="#000000" font-family="sans-serif" font-size="13" lengthAdjust="spacing" textLength="167.8511" x="877.8208" y="1743.8008">ETag: "&lt;new_etag_value&gt;"</text><text fill="#000000" font-family="sans-serif" font-size="13" lengthAdjust="spacing" textLength="146.1738" x="877.8208" y="1759.1113">VSDM-Pz: &lt;Pr&#252;fziffer&gt;</text><text fill="#000000" font-family="sans-serif" font-size="13" lengthAdjust="spacing" textLength="79.2314" x="877.8208" y="1774.4219">VSDMBundle</text></g><g class="message" data-entity-1="part5" data-entity-2="part3" id="msg25"><polygon fill="#181818" points="336.8647,1850.4063,326.8647,1854.4063,336.8647,1858.4063,332.8647,1854.4063" style="stroke:#181818;stroke-width:1;"/><line style="stroke:#181818;stroke-width:1;" x1="330.8647" x2="849.8208" y1="1854.4063" y2="1854.4063"/><text fill="#000000" font-family="sans-serif" font-size="13" lengthAdjust="spacing" textLength="84.6523" x="342.8647" y="1803.7324">HTTP 200 OK</text><text fill="#000000" font-family="sans-serif" font-size="13" lengthAdjust="spacing" textLength="167.8511" x="342.8647" y="1819.043">ETag: "&lt;new_etag_value&gt;"</text><text fill="#000000" font-family="sans-serif" font-size="13" lengthAdjust="spacing" textLength="146.1738" x="342.8647" y="1834.3535">VSDM-Pz: &lt;Pr&#252;fziffer&gt;</text><text fill="#000000" font-family="sans-serif" font-size="13" lengthAdjust="spacing" textLength="79.2314" x="342.8647" y="1849.6641">VSDMBundle</text></g><g class="message" data-entity-1="part3" data-entity-2="part3" id="msg26"><line style="stroke:#181818;stroke-width:1;" x1="325.8647" x2="367.8647" y1="1883.7168" y2="1883.7168"/><line style="stroke:#181818;stroke-width:1;" x1="367.8647" x2="367.8647" y1="1883.7168" y2="1896.7168"/><line style="stroke:#181818;stroke-width:1;" x1="326.8647" x2="367.8647" y1="1896.7168" y2="1896.7168"/><polygon fill="#181818" points="336.8647,1892.7168,326.8647,1896.7168,336.8647,1900.7168,332.8647,1896.7168" style="stroke:#181818;stroke-width:1;"/><text fill="#000000" font-family="sans-serif" font-size="13" lengthAdjust="spacing" textLength="103.7334" x="332.8647" y="1878.9746">Aktualisiere VSD</text></g><g class="message" data-entity-1="part3" data-entity-2="part2" id="msg27"><polygon fill="#181818" points="138.8369,1922.0273,128.8369,1926.0273,138.8369,1930.0273,134.8369,1926.0273" style="stroke:#181818;stroke-width:1;"/><line style="stroke:#181818;stroke-width:1;" x1="132.8369" x2="314.8647" y1="1926.0273" y2="1926.0273"/><text fill="#000000" font-family="sans-serif" font-size="13" lengthAdjust="spacing" textLength="82.9194" x="144.8369" y="1921.2852">Zeige VSD an</text></g><g class="message" data-entity-1="part3" data-entity-2="part3" id="msg28"><line style="stroke:#181818;stroke-width:1;" x1="325.8647" x2="367.8647" y1="1962.3379" y2="1962.3379"/><line style="stroke:#181818;stroke-width:1;" x1="367.8647" x2="367.8647" y1="1962.3379" y2="1975.3379"/><line style="stroke:#181818;stroke-width:1;" x1="326.8647" x2="367.8647" y1="1975.3379" y2="1975.3379"/><polygon fill="#181818" points="336.8647,1971.3379,326.8647,1975.3379,336.8647,1979.3379,332.8647,1975.3379" style="stroke:#181818;stroke-width:1;"/><text fill="#000000" font-family="sans-serif" font-size="13" lengthAdjust="spacing" textLength="137.1792" x="332.8647" y="1957.5957">Aktualisiere Pr&#252;fziffer</text></g><g class="message" data-entity-1="part6" data-entity-2="part6" id="msg29"><line style="stroke:#181818;stroke-width:1;" x1="1148.9746" x2="1190.9746" y1="2004.6484" y2="2004.6484"/><line style="stroke:#181818;stroke-width:1;" x1="1190.9746" x2="1190.9746" y1="2004.6484" y2="2017.6484"/><line style="stroke:#181818;stroke-width:1;" x1="1149.9746" x2="1190.9746" y1="2017.6484" y2="2017.6484"/><polygon fill="#181818" points="1159.9746,2013.6484,1149.9746,2017.6484,1159.9746,2021.6484,1155.9746,2017.6484" style="stroke:#181818;stroke-width:1;"/><text fill="#000000" font-family="sans-serif" font-size="13" lengthAdjust="spacing" textLength="318.4937" x="1155.9746" y="1999.9063">write Zugriffsprotokoll(KVNR) mit Inhalt: User-Info</text></g><rect fill="#D1F2EB" height="3" style="stroke:#D1F2EB;stroke-width:1;" width="1564.3589" x="0" y="2076.3037"/><line style="stroke:#000000;stroke-width:1;" x1="0" x2="1564.3589" y1="2076.3037" y2="2076.3037"/><line style="stroke:#000000;stroke-width:1;" x1="0" x2="1564.3589" y1="2079.3037" y2="2079.3037"/><rect fill="#D1F2EB" height="23.3105" style="stroke:#000000;stroke-width:2;" width="474.5605" x="544.8992" y="2065.6484"/><text fill="#000000" font-family="sans-serif" font-size="13" font-weight="bold" lengthAdjust="spacing" textLength="456.2759" x="550.8992" y="2082.2168">Fehlerbehandlung HTTP 401 Unauthorized (Access-Token ung&#252;ltig)</text><rect fill="#EBF5FB" height="39.4434" style="stroke:#000000;stroke-width:1.5;" width="527.2295" x="260.2925" y="2098.959"/><path d="M260.2925,2098.959 L323.2925,2098.959 L323.2925,2105.959 L313.2925,2115.959 L260.2925,2115.959 L260.2925,2098.959" fill="#EEEEEE" style="stroke:#000000;stroke-width:2;"/><text fill="#000000" font-family="sans-serif" font-size="13" font-weight="bold" lengthAdjust="spacing" textLength="18.916" x="273.2925" y="2113.5273">ref</text><text fill="#000000" font-family="sans-serif" font-size="12" lengthAdjust="spacing" textLength="442.3184" x="302.748" y="2131.5605">LEI-Authentifizierung (SMC-B) und LEI-Autorisierung (siehe gemSpec_ZETA)</text><g class="message" data-entity-1="part4" data-entity-2="part3" id="msg30"><polygon fill="#181818" points="331.8647,2176.0234,321.8647,2180.0234,331.8647,2184.0234,327.8647,2180.0234" style="stroke:#181818;stroke-width:1;"/><line style="stroke:#181818;stroke-width:1;" x1="325.8647" x2="692.2349" y1="2180.0234" y2="2180.0234"/><text fill="#000000" font-family="sans-serif" font-size="13" lengthAdjust="spacing" textLength="84.6523" x="337.8647" y="2159.9707">HTTP 200 OK</text><text fill="#000000" font-family="sans-serif" font-size="13" lengthAdjust="spacing" textLength="343.3701" x="337.8647" y="2175.2813">{Refresh-Token, Access-Token} mit scope : vsdservice</text></g><rect fill="#D1F2EB" height="3" style="stroke:#D1F2EB;stroke-width:1;" width="1564.3589" x="0" y="2208.6787"/><line style="stroke:#000000;stroke-width:1;" x1="0" x2="1564.3589" y1="2208.6787" y2="2208.6787"/><line style="stroke:#000000;stroke-width:1;" x1="0" x2="1564.3589" y1="2211.6787" y2="2211.6787"/><rect fill="#D1F2EB" height="23.3105" style="stroke:#000000;stroke-width:2;" width="614.4502" x="474.9543" y="2198.0234"/><text fill="#000000" font-family="sans-serif" font-size="13" font-weight="bold" lengthAdjust="spacing" textLength="596.1655" x="480.9543" y="2214.5918">Fehlerbehandlung HTTP 403 Forbidden (Versorgungskontext bzw. PoPP-Token ung&#252;ltig)</text><rect fill="#EBF5FB" height="39.4434" style="stroke:#000000;stroke-width:1.5;" width="1560.3589" x="2" y="2231.334"/><path d="M2,2231.334 L65,2231.334 L65,2238.334 L55,2248.334 L2,2248.334 L2,2231.334" fill="#EEEEEE" style="stroke:#000000;stroke-width:2;"/><text fill="#000000" font-family="sans-serif" font-size="13" font-weight="bold" lengthAdjust="spacing" textLength="18.916" x="15" y="2245.9023">ref</text><text fill="#000000" font-family="sans-serif" font-size="12" lengthAdjust="spacing" textLength="526.3652" x="518.9968" y="2263.9355">Versorgungskontext mit eGK oder GesundheitsID herstellen (siehe gemSpec_PoPP_Service)</text><g class="message" data-entity-1="part7" data-entity-2="part3" id="msg31"><polygon fill="#181818" points="331.8647,2308.3984,321.8647,2312.3984,331.8647,2316.3984,327.8647,2312.3984" style="stroke:#181818;stroke-width:1;"/><line style="stroke:#181818;stroke-width:1;" x1="325.8647" x2="1490.4683" y1="2312.3984" y2="2312.3984"/><text fill="#000000" font-family="sans-serif" font-size="13" lengthAdjust="spacing" textLength="101.0483" x="337.8647" y="2292.3457">PoPP-Token mit</text><text fill="#000000" font-family="sans-serif" font-size="13" lengthAdjust="spacing" textLength="231.1055" x="337.8647" y="2307.6563">KVNR, IK-Nummer, OID, Zeitstempel</text></g><?plantuml-src rLTVSzf647_sVOejVGZC8CTsqXU6CECOx3B-4yKGFxZfC49QmHNfZfvEE26JRzEFaJT_iUwT198mu7JQJgSyYTNjtlxvxMzNKnuWX5BgiVp4cEOwGhWRTA_XvF081lXxYc8PS6-Yl3Y6sXsgXFjJL1f5eaaKUFG4gGZ0LO_VmYKFGrJWZLKQegWnvlbQAhWpiWHghgSv2btBnLSzAxtgzPrhhZqrHgvHrTZSKvhxVEu93Uu0f0f8_nX-OGTlw2mxSEZ73cerL_7uyG-LV4uqnhKQ-xMYIL5qHwUfdjwlB1nP4oHtkjpuNrWonwJYI_9F2cU0Qa5-R3NeAldfyyhWyKw3Fm-7hcFFRZUJNR6oSxBJpYqcYKoLZxkSSgNhvcPEilYCn9xcFfPoLP9Q8woTwCyHTXX0OiliOpUhCtmX6O12AgKHv_y1tdh-x499glQPZAX-F-8u_2aSsxTVsLVMVfcRJ6PSa9DaQh0slI2WAMDXKhOG78SdE6RipHiO408qq0CpS74w18yMd8eOeo0L4mCPlY2qaPXvaGQ1AHtB4SKE24kauWvQAn4ABms5Duqf2MjTTy0E257vIIwuvbv405xhM53310KgRg87XY9WMund1-aAYtGMODa_4uvf5Qacv7eoawJnIGFr3I4rCXVMHQg0y0v657iHdnJ1e5YiTO77y3wbn7XHWtB3NkmrowXc80smw5WpmqPhcoSnru0Nbo0DRYumeO9CgVcIVhVYPC9nYfIDU317VsJCZN88DPWrRhD2LrXq3UMCb8pfZ-BoxkQs2VrBvoQDO-FBktwt2VVc3khLEKPiLOQgTZ97oo-2RDJ7oVpXq6IWclN63jq0PpB8gcO8QSE5VGQBQstfpZr_6jX6BAWmQyn8pgXMb1PbQbFtA4rmyfgWInUYi1LQby0Th2kmJTdawVnzzmRQVEO8wsBdS944yScXvavsFHu6k0RJ5jxDUTO2m_8Az4GmJyNCm71zMnaNngaIZxNM2ivLnRjjATY0mpqgwGnLckW6Us48b1BAGxxCBPWId7uWcb_R93gmjYmdvtm60P7RD7pyDjtkPiRVBJ0pukaTzS7rcVEsOU_AJvJks-DloVOAI8QnYKAFuDqbGUNBBOOAasa6hIQS-ZunSVRlgwrTuiivaXwLBCd9DiTb9RyNlI6yBCwyN1oRV_6ON2RiV1ILoKD88SH0sxEtZRIvhKE7ZBG5xM0kvwEvaZ8S_VQWpGk3Btf1ydbnkXywDrAWS-rfVzg2MXkrDnajl2Z5JgtWqS9DnaekRmPGZXpcPiXJeLuC-4HuEgN6DhurrzaWrPmXW4er9QAcquQkAsO4OLd3GggfP_eceo4gsUEtIFE9dITLZueAlJuwXWz4xLdMCB3ylC__4a5iyNw84SQK-rc_Mo-xIArSULTOQTXmIbQV2UPWToIlu5ogCGz8wzamx49nZHGsxMksjzo-isfUAdg02Pn5XjISMpDpgN5NuHf_Lp8XoLNgys2VNqSqwOELoaxFyWP-7kBtlU6fyu7UEdqHIcYdz3ZYzDXfhjuMwNJEp8YYnQRjPm_sq5-1TEPNxdBkv1EVxQq_esTgLSvJGH8vOY4_jBNAP2lRMiUUAb2xSMUvWa-Ikn_gkmgnAofAksDs1wAIIbH5jkg-nOYPL6MfCTF88R7F_LT7h-6687HDWpRa651fUaDlibaH4XkcTzmbaLFfmw2p6tL_sp962MuBz8Vl3NITnM9EMqJ1ChMxH8K3da_LUfIimX3uCFgkK3BvMzi-knFsJzalxLAdCvsM8r-zfFMtPNQtIPOFBsUhNPgbk_R3zK7HznxSfnD5XnCQR3J2P1JLJRORTiZsXHaXBLYpn_PUBstVjE6N_fLctARqgUeESRxFd-CqGcfsq_-HMI-sZYEeJ95Y36JB-_zXIo9Y_DVseprfBCr2g6_vOXalQNClJTrgPglVFLUzvaPkoajlirpe_-uZwNk-aVu4?></g></svg>