<svg xmlns="http://www.w3.org/2000/svg" xmlns:xlink="http://www.w3.org/1999/xlink" contentStyleType="text/css" data-diagram-type="SEQUENCE" height="2322px" preserveAspectRatio="none" style="width:1612px;height:2322px;background:#FFFFFF;" version="1.1" viewBox="0 0 1612 2322" width="1612px" zoomAndPan="magnify"><title>VSDM 2.0 Sequenzdiagramm "Versichertenstammdaten und Pr&#252;fziffer abrufen"</title><defs/><g><text fill="#000000" font-family="sans-serif" font-size="14" font-weight="bold" lengthAdjust="spacing" textLength="629.1523" x="487.8833" y="27.9951">VSDM 2.0 Sequenzdiagramm "Versichertenstammdaten und Pr&#252;fziffer abrufen"</text><g><title>LEI-Mitarbeiter</title><rect fill="#FFFFFF" height="131.5313" style="stroke:#181818;stroke-width:1;" width="10" x="126.0762" y="192.8594"/></g><g><title>=LEI</title><rect fill="#FFFFFF" height="1781.7813" style="stroke:#181818;stroke-width:1;" width="10" x="326.6387" y="246.125"/></g><g><title>=VSD-Dienst</title><rect fill="#FFFFFF" height="1104.9844" style="stroke:#181818;stroke-width:1;" width="10" x="879.1987" y="922.9219"/></g><g><title>=VSD-Dienst</title><rect fill="#FFFFFF" height="708.125" style="stroke:#181818;stroke-width:1;" width="10" x="1163.0127" y="1319.7813"/></g><g><title>=VSD-Dienst</title><rect fill="#FFFFFF" height="28" style="stroke:#181818;stroke-width:1;" width="10" x="1168.0127" y="1999.9063"/></g><rect fill="none" height="88.3984" style="stroke:#000000;stroke-width:1.5;" width="537.522" x="66.6426" y="207.8594"/><rect fill="none" height="46.2656" style="stroke:#000000;stroke-width:1.5;" width="694.5117" x="264.0664" y="980.0547"/><rect fill="none" height="46.2656" style="stroke:#000000;stroke-width:1.5;" width="694.5117" x="264.0664" y="1082.4531"/><rect fill="none" height="46.2656" style="stroke:#000000;stroke-width:1.5;" width="694.5117" x="264.0664" y="1199.9844"/><rect fill="none" height="75.3984" style="stroke:#000000;stroke-width:1.5;" width="988.376" x="264.0664" y="1376.9141"/><rect fill="none" height="413.1953" style="stroke:#000000;stroke-width:1.5;" width="1378.1362" x="66.6426" y="1508.4453"/><g><title>Patient</title><rect fill="#000000" fill-opacity="0.00000" height="2197.3125" width="8" x="28.688" y="118.5938"/><line style="stroke:#181818;stroke-width:0.5;stroke-dasharray:5.0,5.0;" x1="32" x2="32" y1="118.5938" y2="2315.9063"/></g><g><title>LEI-Mitarbeiter</title><rect fill="#000000" fill-opacity="0.00000" height="2197.3125" width="8" x="127.0762" y="118.5938"/><line style="stroke:#181818;stroke-width:0.5;stroke-dasharray:5.0,5.0;" x1="130.6426" x2="130.6426" y1="118.5938" y2="2315.9063"/></g><g><title>=LEI</title><rect fill="#000000" fill-opacity="0.00000" height="2197.3125" width="8" x="327.6387" y="118.5938"/><line style="stroke:#181818;stroke-width:0.5;stroke-dasharray:5.0,5.0;" x1="331.0664" x2="331.0664" y1="118.5938" y2="2315.9063"/></g><g><title>=VSD-Dienst</title><rect fill="#000000" fill-opacity="0.00000" height="2197.3125" width="8" x="714.5322" y="118.5938"/><line style="stroke:#181818;stroke-width:0.5;stroke-dasharray:5.0,5.0;" x1="718.2451" x2="718.2451" y1="118.5938" y2="2315.9063"/></g><g><title>=VSD-Dienst</title><rect fill="#000000" fill-opacity="0.00000" height="2197.3125" width="8" x="880.1987" y="118.5938"/><line style="stroke:#181818;stroke-width:0.5;stroke-dasharray:5.0,5.0;" x1="883.8193" x2="883.8193" y1="118.5938" y2="2315.9063"/></g><g><title>=VSD-Dienst</title><rect fill="#000000" fill-opacity="0.00000" height="2197.3125" width="8" x="1164.0127" y="118.5938"/><line style="stroke:#181818;stroke-width:0.5;stroke-dasharray:5.0,5.0;" x1="1167.583" x2="1167.583" y1="118.5938" y2="2315.9063"/></g><g><title>=PoPP-Service</title><rect fill="#000000" fill-opacity="0.00000" height="2197.3125" width="8" x="1522.7969" y="118.5938"/><line style="stroke:#181818;stroke-width:0.5;stroke-dasharray:5.0,5.0;" x1="1526.6748" x2="1526.6748" y1="118.5938" y2="2315.9063"/></g><g class="participant participant-head" data-participant="Ver"><text fill="#000000" font-family="sans-serif" font-size="14" lengthAdjust="spacing" textLength="49.376" x="5" y="115.292">Patient</text><ellipse cx="32.688" cy="50.7969" fill="#E2E2F0" rx="8" ry="8" style="stroke:#181818;stroke-width:0.5;"/><path d="M32.688,58.7969 L32.688,85.7969 M19.688,66.7969 L45.688,66.7969 M32.688,85.7969 L19.688,100.7969 M32.688,85.7969 L45.688,100.7969" fill="none" style="stroke:#181818;stroke-width:0.5;"/></g><g class="participant participant-head" data-participant="LE"><text fill="#000000" font-family="sans-serif" font-size="14" lengthAdjust="spacing" textLength="102.8672" x="76.6426" y="115.292">LEI-Mitarbeiter</text><ellipse cx="131.0762" cy="50.7969" fill="#E2E2F0" rx="8" ry="8" style="stroke:#181818;stroke-width:0.5;"/><path d="M131.0762,58.7969 L131.0762,85.7969 M118.0762,66.7969 L144.0762,66.7969 M131.0762,85.7969 L118.0762,100.7969 M131.0762,85.7969 L144.0762,100.7969" fill="none" style="stroke:#181818;stroke-width:0.5;"/></g><g class="participant participant-head" data-participant="PS"><rect fill="#E2E2F0" height="61.25" rx="2.5" ry="2.5" style="stroke:#181818;stroke-width:0.5;" width="115.1445" x="274.0664" y="56.3438"/><text fill="#000000" font-family="sans-serif" font-size="18" font-weight="bold" lengthAdjust="spacing" textLength="30.4629" x="316.4072" y="80.0518">LEI</text><line style="stroke:#181818;stroke-width:1;" x1="274.0664" x2="389.2109" y1="89.2969" y2="89.2969"/><text fill="#000000" font-family="monospace" font-size="14" lengthAdjust="spacing" textLength="101.1445" x="281.0664" y="107.292">Prim&#228;rsystem</text></g><g class="participant participant-head" data-participant="VSDD_AuthZ"><rect fill="#E2E2F0" height="61.25" rx="2.5" ry="2.5" style="stroke:#181818;stroke-width:0.5;" width="182.5742" x="627.2451" y="56.3438"/><text fill="#000000" font-family="sans-serif" font-size="18" font-weight="bold" lengthAdjust="spacing" textLength="114.7588" x="661.1528" y="80.0518">VSD-Dienst</text><line style="stroke:#181818;stroke-width:1;" x1="627.2451" x2="809.8193" y1="89.2969" y2="89.2969"/><text fill="#000000" font-family="monospace" font-size="14" lengthAdjust="spacing" textLength="168.5742" x="634.2451" y="107.292">Authorization-Server</text></g><g class="participant participant-head" data-participant="VSDD_Proxy"><rect fill="#E2E2F0" height="61.25" rx="2.5" ry="2.5" style="stroke:#181818;stroke-width:0.5;" width="128.7588" x="819.8193" y="56.3438"/><text fill="#000000" font-family="sans-serif" font-size="18" font-weight="bold" lengthAdjust="spacing" textLength="114.7588" x="826.8193" y="80.0518">VSD-Dienst</text><line style="stroke:#181818;stroke-width:1;" x1="819.8193" x2="948.5781" y1="89.2969" y2="89.2969"/><text fill="#000000" font-family="monospace" font-size="14" lengthAdjust="spacing" textLength="84.2871" x="842.0552" y="107.292">HTTP-Proxy</text></g><g class="participant participant-head" data-participant="VSDD_Server"><rect fill="#E2E2F0" height="61.25" rx="2.5" ry="2.5" style="stroke:#181818;stroke-width:0.5;" width="148.8594" x="1093.583" y="56.3438"/><text fill="#000000" font-family="sans-serif" font-size="18" font-weight="bold" lengthAdjust="spacing" textLength="114.7588" x="1110.6333" y="80.0518">VSD-Dienst</text><line style="stroke:#181818;stroke-width:1;" x1="1093.583" x2="1242.4424" y1="89.2969" y2="89.2969"/><text fill="#000000" font-family="monospace" font-size="14" lengthAdjust="spacing" textLength="134.8594" x="1100.583" y="107.292">Ressource-Server</text></g><g class="participant participant-head" data-participant="PoPP"><rect fill="#E2E2F0" height="61.25" rx="2.5" ry="2.5" style="stroke:#181818;stroke-width:0.5;" width="148.2441" x="1452.6748" y="56.3438"/><text fill="#000000" font-family="sans-serif" font-size="18" font-weight="bold" lengthAdjust="spacing" textLength="134.2441" x="1459.6748" y="80.0518">PoPP-Service</text><line style="stroke:#181818;stroke-width:1;" x1="1452.6748" x2="1600.9189" y1="89.2969" y2="89.2969"/><text fill="#000000" font-family="monospace" font-size="14" lengthAdjust="spacing" textLength="101.1445" x="1476.2246" y="107.292">PoPP-Service</text></g><g><title>LEI-Mitarbeiter</title><rect fill="#FFFFFF" height="131.5313" style="stroke:#181818;stroke-width:1;" width="10" x="126.0762" y="192.8594"/></g><g><title>=LEI</title><rect fill="#FFFFFF" height="1781.7813" style="stroke:#181818;stroke-width:1;" width="10" x="326.6387" y="246.125"/></g><g><title>=VSD-Dienst</title><rect fill="#FFFFFF" height="1104.9844" style="stroke:#181818;stroke-width:1;" width="10" x="879.1987" y="922.9219"/></g><g><title>=VSD-Dienst</title><rect fill="#FFFFFF" height="708.125" style="stroke:#181818;stroke-width:1;" width="10" x="1163.0127" y="1319.7813"/></g><g><title>=VSD-Dienst</title><rect fill="#FFFFFF" height="28" style="stroke:#181818;stroke-width:1;" width="10" x="1168.0127" y="1999.9063"/></g><rect fill="#D1F2EB" height="3" style="stroke:#D1F2EB;stroke-width:1;" width="1605.9189" x="0" y="149.1602"/><line style="stroke:#000000;stroke-width:1;" x1="0" x2="1605.9189" y1="149.1602" y2="149.1602"/><line style="stroke:#000000;stroke-width:1;" x1="0" x2="1605.9189" y1="152.1602" y2="152.1602"/><rect fill="#D1F2EB" height="23.1328" style="stroke:#000000;stroke-width:2;" width="55.501" x="775.209" y="138.5938"/><text fill="#000000" font-family="sans-serif" font-size="13" font-weight="bold" lengthAdjust="spacing" textLength="36.9751" x="781.209" y="154.6606">Start</text><g class="message" data-participant-1="Ver" data-participant-2="LE"><polygon fill="#181818" points="114.0762,188.8594,124.0762,192.8594,114.0762,196.8594,118.0762,192.8594" style="stroke:#181818;stroke-width:1;"/><line style="stroke:#181818;stroke-width:1;" x1="32.688" x2="120.0762" y1="192.8594" y2="192.8594"/><text fill="#000000" font-family="sans-serif" font-size="13" lengthAdjust="spacing" textLength="74.3882" x="39.688" y="187.7935">Anmeldung</text></g><path d="M66.6426,207.8594 L131.0854,207.8594 L131.0854,214.9922 L121.0854,224.9922 L66.6426,224.9922 L66.6426,207.8594" fill="#EEEEEE" style="stroke:#000000;stroke-width:1.5;"/><rect fill="none" height="88.3984" style="stroke:#000000;stroke-width:1.5;" width="537.522" x="66.6426" y="207.8594"/><text fill="#000000" font-family="sans-serif" font-size="13" font-weight="bold" lengthAdjust="spacing" textLength="19.4429" x="81.6426" y="220.9263">alt</text><text fill="#000000" font-family="sans-serif" font-size="11" font-weight="bold" lengthAdjust="spacing" textLength="94.9556" x="146.0854" y="220.0698">[neuer Patient]</text><g class="message" data-participant-1="LE" data-participant-2="PS"><polygon fill="#181818" points="314.6387,242.125,324.6387,246.125,314.6387,250.125,318.6387,246.125" style="stroke:#181818;stroke-width:1;"/><line style="stroke:#181818;stroke-width:1;" x1="136.0762" x2="320.6387" y1="246.125" y2="246.125"/><text fill="#000000" font-family="sans-serif" font-size="13" lengthAdjust="spacing" textLength="127.9751" x="143.0762" y="241.0591">Patientenaufnahme</text></g><g class="message" data-participant-1="PS" data-participant-2="PS"><line style="stroke:#181818;stroke-width:1;" x1="336.6387" x2="378.6387" y1="275.2578" y2="275.2578"/><line style="stroke:#181818;stroke-width:1;" x1="378.6387" x2="378.6387" y1="275.2578" y2="288.2578"/><line style="stroke:#181818;stroke-width:1;" x1="337.6387" x2="378.6387" y1="288.2578" y2="288.2578"/><polygon fill="#181818" points="347.6387,284.2578,337.6387,288.2578,347.6387,292.2578,343.6387,288.2578" style="stroke:#181818;stroke-width:1;"/><text fill="#000000" font-family="sans-serif" font-size="13" lengthAdjust="spacing" textLength="238.5259" x="343.6387" y="270.1919">initialen Patientenstamm generieren</text></g><g class="message" data-participant-1="LE" data-participant-2="PS"><polygon fill="#181818" points="314.6387,320.3906,324.6387,324.3906,314.6387,328.3906,318.6387,324.3906" style="stroke:#181818;stroke-width:1;"/><line style="stroke:#181818;stroke-width:1;" x1="131.0762" x2="320.6387" y1="324.3906" y2="324.3906"/><text fill="#000000" font-family="sans-serif" font-size="13" lengthAdjust="spacing" textLength="166.5625" x="138.0762" y="319.3247">Patientenstamm aufrufen</text></g><rect fill="#D1F2EB" height="3" style="stroke:#D1F2EB;stroke-width:1;" width="1605.9189" x="0" y="352.957"/><line style="stroke:#000000;stroke-width:1;" x1="0" x2="1605.9189" y1="352.957" y2="352.957"/><line style="stroke:#000000;stroke-width:1;" x1="0" x2="1605.9189" y1="355.957" y2="355.957"/><rect fill="#D1F2EB" height="23.1328" style="stroke:#000000;stroke-width:2;" width="646.6265" x="479.6462" y="342.3906"/><text fill="#000000" font-family="sans-serif" font-size="13" font-weight="bold" lengthAdjust="spacing" textLength="628.1006" x="485.6462" y="358.4575">Versorgungskontext herstellen (nur bei erstmaliger Patientenversorgung im Quartal)</text><rect fill="#EBF5FB" height="39.1016" style="stroke:#000000;stroke-width:1.5;" width="1601.9189" x="2" y="375.5234"/><path d="M2,375.5234 L67,375.5234 L67,382.5234 L57,392.5234 L2,392.5234 L2,375.5234" fill="#EEEEEE" style="stroke:#000000;stroke-width:2;"/><text fill="#000000" font-family="sans-serif" font-size="13" font-weight="bold" lengthAdjust="spacing" textLength="20.8838" x="15" y="389.5903">ref</text><text fill="#000000" font-family="sans-serif" font-size="12" lengthAdjust="spacing" textLength="550.1602" x="527.8794" y="407.6621">Versorgungskontext mit eGK oder GesundheitsID herstellen (siehe gemSpec_PoPP_Service)</text><g class="message" data-participant-1="PoPP" data-participant-2="PS"><polygon fill="#181818" points="347.6387,451.8906,337.6387,455.8906,347.6387,459.8906,343.6387,455.8906" style="stroke:#181818;stroke-width:1;"/><line style="stroke:#181818;stroke-width:1;" x1="341.6387" x2="1525.7969" y1="455.8906" y2="455.8906"/><text fill="#000000" font-family="sans-serif" font-size="13" lengthAdjust="spacing" textLength="101.3276" x="353.6387" y="435.6919">PoPP-Token mit</text><text fill="#000000" font-family="sans-serif" font-size="13" lengthAdjust="spacing" textLength="236.7358" x="353.6387" y="450.8247">KVNR, IK-Nummer, OID, Zeitstempel</text></g><g class="message" data-participant-1="PS" data-participant-2="PS"><line style="stroke:#181818;stroke-width:1;" x1="336.6387" x2="378.6387" y1="500.1563" y2="500.1563"/><line style="stroke:#181818;stroke-width:1;" x1="378.6387" x2="378.6387" y1="500.1563" y2="513.1563"/><line style="stroke:#181818;stroke-width:1;" x1="337.6387" x2="378.6387" y1="513.1563" y2="513.1563"/><polygon fill="#181818" points="347.6387,509.1563,337.6387,513.1563,347.6387,517.1563,343.6387,513.1563" style="stroke:#181818;stroke-width:1;"/><text fill="#000000" font-family="sans-serif" font-size="13" lengthAdjust="spacing" textLength="143.5586" x="343.6387" y="479.9575">PoPP-Token speichern</text><text fill="#000000" font-family="sans-serif" font-size="13" lengthAdjust="spacing" textLength="179.9751" x="343.6387" y="495.0903">(bspw. im Patientenstamm)</text></g><g class="message" data-participant-1="PS" data-participant-2="PS"><line style="stroke:#181818;stroke-width:1;" x1="336.6387" x2="378.6387" y1="557.4219" y2="557.4219"/><line style="stroke:#181818;stroke-width:1;" x1="378.6387" x2="378.6387" y1="557.4219" y2="570.4219"/><line style="stroke:#181818;stroke-width:1;" x1="337.6387" x2="378.6387" y1="570.4219" y2="570.4219"/><polygon fill="#181818" points="347.6387,566.4219,337.6387,570.4219,347.6387,574.4219,343.6387,570.4219" style="stroke:#181818;stroke-width:1;"/><text fill="#000000" font-family="sans-serif" font-size="13" lengthAdjust="spacing" textLength="304.2495" x="343.6387" y="537.2231">PoPP-Token dekodieren und KVNR, IK-Nummer</text><text fill="#000000" font-family="sans-serif" font-size="13" lengthAdjust="spacing" textLength="247.7109" x="343.6387" y="552.356">(bspw. im Patientenstamm) speichern</text></g><rect fill="#D1F2EB" height="3" style="stroke:#D1F2EB;stroke-width:1;" width="1605.9189" x="0" y="598.9883"/><line style="stroke:#000000;stroke-width:1;" x1="0" x2="1605.9189" y1="598.9883" y2="598.9883"/><line style="stroke:#000000;stroke-width:1;" x1="0" x2="1605.9189" y1="601.9883" y2="601.9883"/><rect fill="#D1F2EB" height="23.1328" style="stroke:#000000;stroke-width:2;" width="452.4263" x="576.7463" y="588.4219"/><text fill="#000000" font-family="sans-serif" font-size="13" font-weight="bold" lengthAdjust="spacing" textLength="433.9004" x="582.7463" y="604.4888">Fachdienst VSDM 2.0 Dienstlokalisierung (alle 24 Stunden)</text><rect fill="#EBF5FB" height="39.1016" style="stroke:#000000;stroke-width:1.5;" width="1332.8525" x="271.0664" y="621.5547"/><path d="M271.0664,621.5547 L336.0664,621.5547 L336.0664,628.5547 L326.0664,638.5547 L271.0664,638.5547 L271.0664,621.5547" fill="#EEEEEE" style="stroke:#000000;stroke-width:2;"/><text fill="#000000" font-family="sans-serif" font-size="13" font-weight="bold" lengthAdjust="spacing" textLength="20.8838" x="284.0664" y="635.6216">ref</text><text fill="#000000" font-family="sans-serif" font-size="12" lengthAdjust="spacing" textLength="389.6484" x="742.6685" y="653.6934">Dienstlokalisierung mit FQDN &lt;ik-nummer&gt;.vsdm2.ti-dienste.de</text><rect fill="#D1F2EB" height="3" style="stroke:#D1F2EB;stroke-width:1;" width="1605.9189" x="0" y="686.2227"/><line style="stroke:#000000;stroke-width:1;" x1="0" x2="1605.9189" y1="686.2227" y2="686.2227"/><line style="stroke:#000000;stroke-width:1;" x1="0" x2="1605.9189" y1="689.2227" y2="689.2227"/><rect fill="#D1F2EB" height="23.1328" style="stroke:#000000;stroke-width:2;" width="266.6621" x="669.6284" y="675.6563"/><text fill="#000000" font-family="sans-serif" font-size="13" font-weight="bold" lengthAdjust="spacing" textLength="248.1362" x="675.6284" y="691.7231">Versichertenstammdaten abrufen</text><rect fill="#EBF5FB" height="39.1016" style="stroke:#000000;stroke-width:1.5;" width="680.5117" x="271.0664" y="708.7891"/><path d="M271.0664,708.7891 L336.0664,708.7891 L336.0664,715.7891 L326.0664,725.7891 L271.0664,725.7891 L271.0664,708.7891" fill="#EEEEEE" style="stroke:#000000;stroke-width:2;"/><text fill="#000000" font-family="sans-serif" font-size="13" font-weight="bold" lengthAdjust="spacing" textLength="20.8838" x="284.0664" y="722.856">ref</text><text fill="#000000" font-family="sans-serif" font-size="12" lengthAdjust="spacing" textLength="446.5371" x="388.0537" y="740.9277">Endpunkt-Lokalisierung Fachdienst VSDM 2.0 (siehe gemSpec_Zero-Trust)</text><rect fill="#EBF5FB" height="39.1016" style="stroke:#000000;stroke-width:1.5;" width="541.7529" x="271.0664" y="752.8906"/><path d="M271.0664,752.8906 L336.0664,752.8906 L336.0664,759.8906 L326.0664,769.8906 L271.0664,769.8906 L271.0664,752.8906" fill="#EEEEEE" style="stroke:#000000;stroke-width:2;"/><text fill="#000000" font-family="sans-serif" font-size="13" font-weight="bold" lengthAdjust="spacing" textLength="20.8838" x="284.0664" y="766.9575">ref</text><text fill="#000000" font-family="sans-serif" font-size="12" lengthAdjust="spacing" textLength="485.0566" x="299.4146" y="785.0293">LEI-Authentifizierung (SMC-B) und LEI-Autorisierung (siehe gemSpec_Zero-Trust)</text><g class="message" data-participant-1="VSDD_AuthZ" data-participant-2="PS"><polygon fill="#181818" points="347.6387,829.2578,337.6387,833.2578,347.6387,837.2578,343.6387,833.2578" style="stroke:#181818;stroke-width:1;"/><line style="stroke:#181818;stroke-width:1;" x1="341.6387" x2="717.5322" y1="833.2578" y2="833.2578"/><text fill="#000000" font-family="sans-serif" font-size="13" lengthAdjust="spacing" textLength="85.3315" x="353.6387" y="813.0591">HTTP 200 OK</text><text fill="#000000" font-family="sans-serif" font-size="13" lengthAdjust="spacing" textLength="357.8936" x="353.6387" y="828.1919">{Refresh-Token, Access-Token} mit scope : vsdservice</text></g><g class="message" data-participant-1="PS" data-participant-2="VSDD_Proxy"><polygon fill="#181818" points="867.1987,918.9219,877.1987,922.9219,867.1987,926.9219,871.1987,922.9219" style="stroke:#181818;stroke-width:1;"/><line style="stroke:#181818;stroke-width:1;" x1="336.6387" x2="873.1987" y1="922.9219" y2="922.9219"/><text fill="#000000" font-family="sans-serif" font-size="13" lengthAdjust="spacing" textLength="208.7236" x="343.6387" y="857.3247">GET /vsdservice/v1/vsdmbundle</text><text fill="#000000" font-family="sans-serif" font-size="13" lengthAdjust="spacing" textLength="242.2646" x="343.6387" y="872.4575">Authorization: DPoP &lt;access_token&gt;</text><text fill="#000000" font-family="sans-serif" font-size="13" lengthAdjust="spacing" textLength="163.0713" x="343.6387" y="887.5903">DPoP: &lt;dpop_proof_jwt&gt;</text><text fill="#000000" font-family="sans-serif" font-size="13" lengthAdjust="spacing" textLength="185.4976" x="343.6387" y="902.7231">PoPP: Bearer &lt;popp_token&gt;</text><text fill="#000000" font-family="sans-serif" font-size="13" lengthAdjust="spacing" textLength="204.9531" x="343.6387" y="917.856">If-None-Match: "&lt;etag_value&gt;"</text></g><g class="message" data-participant-1="VSDD_Proxy" data-participant-2="VSDD_Proxy"><line style="stroke:#181818;stroke-width:1;" x1="889.1987" x2="931.1987" y1="952.0547" y2="952.0547"/><line style="stroke:#181818;stroke-width:1;" x1="931.1987" x2="931.1987" y1="952.0547" y2="965.0547"/><line style="stroke:#181818;stroke-width:1;" x1="890.1987" x2="931.1987" y1="965.0547" y2="965.0547"/><polygon fill="#181818" points="900.1987,961.0547,890.1987,965.0547,900.1987,969.0547,896.1987,965.0547" style="stroke:#181818;stroke-width:1;"/><text fill="#000000" font-family="sans-serif" font-size="13" lengthAdjust="spacing" textLength="135.8652" x="896.1987" y="946.9888">Access-Token pr&#252;fen</text></g><path d="M264.0664,980.0547 L328.5093,980.0547 L328.5093,987.1875 L318.5093,997.1875 L264.0664,997.1875 L264.0664,980.0547" fill="#EEEEEE" style="stroke:#000000;stroke-width:1.5;"/><rect fill="none" height="46.2656" style="stroke:#000000;stroke-width:1.5;" width="694.5117" x="264.0664" y="980.0547"/><text fill="#000000" font-family="sans-serif" font-size="13" font-weight="bold" lengthAdjust="spacing" textLength="19.4429" x="279.0664" y="993.1216">alt</text><text fill="#000000" font-family="sans-serif" font-size="11" font-weight="bold" lengthAdjust="spacing" textLength="287.6865" x="343.5093" y="992.2651">[Access-Token nicht vorhanden oder ung&#252;ltig]</text><g class="message" data-participant-1="VSDD_Proxy" data-participant-2="PS"><polygon fill="#181818" points="347.6387,1014.3203,337.6387,1018.3203,347.6387,1022.3203,343.6387,1018.3203" style="stroke:#181818;stroke-width:1;"/><line style="stroke:#181818;stroke-width:1;" x1="341.6387" x2="878.1987" y1="1018.3203" y2="1018.3203"/><text fill="#000000" font-family="sans-serif" font-size="13" lengthAdjust="spacing" textLength="153.8545" x="353.6387" y="1013.2544">HTTP 401 Unauthorized</text></g><g class="message" data-participant-1="VSDD_Proxy" data-participant-2="VSDD_Proxy"><line style="stroke:#181818;stroke-width:1;" x1="889.1987" x2="931.1987" y1="1054.4531" y2="1054.4531"/><line style="stroke:#181818;stroke-width:1;" x1="931.1987" x2="931.1987" y1="1054.4531" y2="1067.4531"/><line style="stroke:#181818;stroke-width:1;" x1="890.1987" x2="931.1987" y1="1067.4531" y2="1067.4531"/><polygon fill="#181818" points="900.1987,1063.4531,890.1987,1067.4531,900.1987,1071.4531,896.1987,1067.4531" style="stroke:#181818;stroke-width:1;"/><text fill="#000000" font-family="sans-serif" font-size="13" lengthAdjust="spacing" textLength="122.605" x="896.1987" y="1049.3872">PoPP-Token pr&#252;fen</text></g><path d="M264.0664,1082.4531 L328.5093,1082.4531 L328.5093,1089.5859 L318.5093,1099.5859 L264.0664,1099.5859 L264.0664,1082.4531" fill="#EEEEEE" style="stroke:#000000;stroke-width:1.5;"/><rect fill="none" height="46.2656" style="stroke:#000000;stroke-width:1.5;" width="694.5117" x="264.0664" y="1082.4531"/><text fill="#000000" font-family="sans-serif" font-size="13" font-weight="bold" lengthAdjust="spacing" textLength="19.4429" x="279.0664" y="1095.52">alt</text><text fill="#000000" font-family="sans-serif" font-size="11" font-weight="bold" lengthAdjust="spacing" textLength="277.3203" x="343.5093" y="1094.6636">[PoPP-Token nicht vorhanden oder ung&#252;ltig]</text><g class="message" data-participant-1="VSDD_Proxy" data-participant-2="PS"><polygon fill="#181818" points="347.6387,1116.7188,337.6387,1120.7188,347.6387,1124.7188,343.6387,1120.7188" style="stroke:#181818;stroke-width:1;"/><line style="stroke:#181818;stroke-width:1;" x1="341.6387" x2="878.1987" y1="1120.7188" y2="1120.7188"/><text fill="#000000" font-family="sans-serif" font-size="13" lengthAdjust="spacing" textLength="131.9551" x="353.6387" y="1115.6528">HTTP 403 Forbidden</text></g><g class="message" data-participant-1="VSDD_Proxy" data-participant-2="VSDD_Proxy"><line style="stroke:#181818;stroke-width:1;" x1="889.1987" x2="931.1987" y1="1171.9844" y2="1171.9844"/><line style="stroke:#181818;stroke-width:1;" x1="931.1987" x2="931.1987" y1="1171.9844" y2="1184.9844"/><line style="stroke:#181818;stroke-width:1;" x1="890.1987" x2="931.1987" y1="1184.9844" y2="1184.9844"/><polygon fill="#181818" points="900.1987,1180.9844,890.1987,1184.9844,900.1987,1188.9844,896.1987,1184.9844" style="stroke:#181818;stroke-width:1;"/><text fill="#000000" font-family="sans-serif" font-size="13" lengthAdjust="spacing" textLength="215.2554" x="896.1987" y="1151.7856">HTTP-Methode und API-Endpunkt</text><text fill="#000000" font-family="sans-serif" font-size="13" lengthAdjust="spacing" textLength="169.6538" x="896.1987" y="1166.9185">des Client-Request pr&#252;fen</text></g><path d="M264.0664,1199.9844 L328.5093,1199.9844 L328.5093,1207.1172 L318.5093,1217.1172 L264.0664,1217.1172 L264.0664,1199.9844" fill="#EEEEEE" style="stroke:#000000;stroke-width:1.5;"/><rect fill="none" height="46.2656" style="stroke:#000000;stroke-width:1.5;" width="694.5117" x="264.0664" y="1199.9844"/><text fill="#000000" font-family="sans-serif" font-size="13" font-weight="bold" lengthAdjust="spacing" textLength="19.4429" x="279.0664" y="1213.0513">alt</text><text fill="#000000" font-family="sans-serif" font-size="11" font-weight="bold" lengthAdjust="spacing" textLength="119.2705" x="343.5093" y="1212.1948">[Request not valid]</text><g class="message" data-participant-1="VSDD_Proxy" data-participant-2="PS"><polygon fill="#181818" points="347.6387,1234.25,337.6387,1238.25,347.6387,1242.25,343.6387,1238.25" style="stroke:#181818;stroke-width:1;"/><line style="stroke:#181818;stroke-width:1;" x1="341.6387" x2="878.1987" y1="1238.25" y2="1238.25"/><text fill="#000000" font-family="sans-serif" font-size="13" lengthAdjust="spacing" textLength="149.2334" x="353.6387" y="1233.1841">HTTP 400 Bad Request</text></g><g class="message" data-participant-1="VSDD_Proxy" data-participant-2="VSDD_Server"><polygon fill="#181818" points="1151.0127,1315.7813,1161.0127,1319.7813,1151.0127,1323.7813,1155.0127,1319.7813" style="stroke:#181818;stroke-width:1;"/><line style="stroke:#181818;stroke-width:1;" x1="889.1987" x2="1157.0127" y1="1319.7813" y2="1319.7813"/><text fill="#000000" font-family="sans-serif" font-size="13" lengthAdjust="spacing" textLength="208.7236" x="896.1987" y="1269.3169">GET /vsdservice/v1/vsdmbundle</text><text fill="#000000" font-family="sans-serif" font-size="13" lengthAdjust="spacing" textLength="186.856" x="896.1987" y="1284.4497">ZETA-User-Info &lt;user_info&gt;,</text><text fill="#000000" font-family="sans-serif" font-size="13" lengthAdjust="spacing" textLength="250.6816" x="896.1987" y="1299.5825">ZETA-PoPP-Token-Content &lt;content&gt;,</text><text fill="#000000" font-family="sans-serif" font-size="13" lengthAdjust="spacing" textLength="204.9531" x="896.1987" y="1314.7153">If-None-Match: "&lt;etag_value&gt;"</text></g><g class="message" data-participant-1="VSDD_Server" data-participant-2="VSDD_Server"><line style="stroke:#181818;stroke-width:1;" x1="1173.0127" x2="1215.0127" y1="1348.9141" y2="1348.9141"/><line style="stroke:#181818;stroke-width:1;" x1="1215.0127" x2="1215.0127" y1="1348.9141" y2="1361.9141"/><line style="stroke:#181818;stroke-width:1;" x1="1174.0127" x2="1215.0127" y1="1361.9141" y2="1361.9141"/><polygon fill="#181818" points="1184.0127,1357.9141,1174.0127,1361.9141,1184.0127,1365.9141,1180.0127,1361.9141" style="stroke:#181818;stroke-width:1;"/><text fill="#000000" font-family="sans-serif" font-size="13" lengthAdjust="spacing" textLength="132.7612" x="1180.0127" y="1343.8481">ZETA-Header pr&#252;fen</text></g><path d="M264.0664,1376.9141 L328.5093,1376.9141 L328.5093,1384.0469 L318.5093,1394.0469 L264.0664,1394.0469 L264.0664,1376.9141" fill="#EEEEEE" style="stroke:#000000;stroke-width:1.5;"/><rect fill="none" height="75.3984" style="stroke:#000000;stroke-width:1.5;" width="988.376" x="264.0664" y="1376.9141"/><text fill="#000000" font-family="sans-serif" font-size="13" font-weight="bold" lengthAdjust="spacing" textLength="19.4429" x="279.0664" y="1389.981">alt</text><text fill="#000000" font-family="sans-serif" font-size="11" font-weight="bold" lengthAdjust="spacing" textLength="389.458" x="343.5093" y="1389.1245">[Zero-Trust Access Header nicht vorhanden oder verarbeitbar]</text><g class="message" data-participant-1="VSDD_Server" data-participant-2="VSDD_Proxy"><polygon fill="#181818" points="900.1987,1411.1797,890.1987,1415.1797,900.1987,1419.1797,896.1987,1415.1797" style="stroke:#181818;stroke-width:1;"/><line style="stroke:#181818;stroke-width:1;" x1="894.1987" x2="1162.0127" y1="1415.1797" y2="1415.1797"/><text fill="#000000" font-family="sans-serif" font-size="13" lengthAdjust="spacing" textLength="149.2334" x="906.1987" y="1410.1138">HTTP 400 Bad Request</text></g><g class="message" data-participant-1="VSDD_Proxy" data-participant-2="PS"><polygon fill="#181818" points="347.6387,1440.3125,337.6387,1444.3125,347.6387,1448.3125,343.6387,1444.3125" style="stroke:#181818;stroke-width:1;"/><line style="stroke:#181818;stroke-width:1;" x1="341.6387" x2="878.1987" y1="1444.3125" y2="1444.3125"/><text fill="#000000" font-family="sans-serif" font-size="13" lengthAdjust="spacing" textLength="149.2334" x="353.6387" y="1439.2466">HTTP 400 Bad Request</text></g><g class="message" data-participant-1="VSDD_Server" data-participant-2="VSDD_Server"><line style="stroke:#181818;stroke-width:1;" x1="1173.0127" x2="1215.0127" y1="1480.4453" y2="1480.4453"/><line style="stroke:#181818;stroke-width:1;" x1="1215.0127" x2="1215.0127" y1="1480.4453" y2="1493.4453"/><line style="stroke:#181818;stroke-width:1;" x1="1174.0127" x2="1215.0127" y1="1493.4453" y2="1493.4453"/><polygon fill="#181818" points="1184.0127,1489.4453,1174.0127,1493.4453,1184.0127,1497.4453,1180.0127,1493.4453" style="stroke:#181818;stroke-width:1;"/><text fill="#000000" font-family="sans-serif" font-size="13" lengthAdjust="spacing" textLength="121.8052" x="1180.0127" y="1475.3794">vsd-version pr&#252;fen</text></g><path d="M66.6426,1508.4453 L131.0854,1508.4453 L131.0854,1515.5781 L121.0854,1525.5781 L66.6426,1525.5781 L66.6426,1508.4453" fill="#EEEEEE" style="stroke:#000000;stroke-width:1.5;"/><rect fill="none" height="413.1953" style="stroke:#000000;stroke-width:1.5;" width="1378.1362" x="66.6426" y="1508.4453"/><text fill="#000000" font-family="sans-serif" font-size="13" font-weight="bold" lengthAdjust="spacing" textLength="19.4429" x="81.6426" y="1521.5122">alt</text><text fill="#000000" font-family="sans-serif" font-size="11" font-weight="bold" lengthAdjust="spacing" textLength="259.9072" x="146.0854" y="1520.6558">[etag_value(client) == etag_value(VSDD)]</text><g class="message" data-participant-1="VSDD_Server" data-participant-2="VSDD_Proxy"><polygon fill="#181818" points="900.1987,1572.9766,890.1987,1576.9766,900.1987,1580.9766,896.1987,1576.9766" style="stroke:#181818;stroke-width:1;"/><line style="stroke:#181818;stroke-width:1;" x1="894.1987" x2="1162.0127" y1="1576.9766" y2="1576.9766"/><text fill="#000000" font-family="sans-serif" font-size="13" lengthAdjust="spacing" textLength="148.9541" x="906.1987" y="1541.645">HTTP 304 Not Modified</text><text fill="#000000" font-family="sans-serif" font-size="13" lengthAdjust="spacing" textLength="145.9517" x="906.1987" y="1556.7778">ETag: "&lt;etag_value&gt;"</text><text fill="#000000" font-family="sans-serif" font-size="13" lengthAdjust="spacing" textLength="146.9546" x="906.1987" y="1571.9106">VSDM-Pz: &lt;Pr&#252;fziffer&gt;</text></g><g class="message" data-participant-1="VSDD_Proxy" data-participant-2="PS"><polygon fill="#181818" points="347.6387,1632.375,337.6387,1636.375,347.6387,1640.375,343.6387,1636.375" style="stroke:#181818;stroke-width:1;"/><line style="stroke:#181818;stroke-width:1;" x1="341.6387" x2="878.1987" y1="1636.375" y2="1636.375"/><text fill="#000000" font-family="sans-serif" font-size="13" lengthAdjust="spacing" textLength="148.9541" x="353.6387" y="1601.0435">HTTP 304 Not Modified</text><text fill="#000000" font-family="sans-serif" font-size="13" lengthAdjust="spacing" textLength="145.9517" x="353.6387" y="1616.1763">ETag: "&lt;etag_value&gt;"</text><text fill="#000000" font-family="sans-serif" font-size="13" lengthAdjust="spacing" textLength="146.9546" x="353.6387" y="1631.3091">VSDM-Pz: &lt;Pr&#252;fziffer&gt;</text></g><line style="stroke:#000000;stroke-width:1;stroke-dasharray:2.0,2.0;" x1="66.6426" x2="1444.7788" y1="1645.375" y2="1645.375"/><text fill="#000000" font-family="sans-serif" font-size="11" font-weight="bold" lengthAdjust="spacing" textLength="255.707" x="71.6426" y="1655.5854">[etag_value(client) != etag_value(VSDD)]</text><g class="message" data-participant-1="VSDD_Server" data-participant-2="VSDD_Server"><line style="stroke:#181818;stroke-width:1;" x1="1173.0127" x2="1215.0127" y1="1680.3125" y2="1680.3125"/><line style="stroke:#181818;stroke-width:1;" x1="1215.0127" x2="1215.0127" y1="1680.3125" y2="1693.3125"/><line style="stroke:#181818;stroke-width:1;" x1="1174.0127" x2="1215.0127" y1="1693.3125" y2="1693.3125"/><polygon fill="#181818" points="1184.0127,1689.3125,1174.0127,1693.3125,1184.0127,1697.3125,1180.0127,1693.3125" style="stroke:#181818;stroke-width:1;"/><text fill="#000000" font-family="sans-serif" font-size="13" lengthAdjust="spacing" textLength="242.7661" x="1180.0127" y="1675.2466">lokalisiere VSD zu KVNR(PoPP-Token)</text></g><g class="message" data-participant-1="VSDD_Server" data-participant-2="VSDD_Proxy"><polygon fill="#181818" points="900.1987,1763.8438,890.1987,1767.8438,900.1987,1771.8438,896.1987,1767.8438" style="stroke:#181818;stroke-width:1;"/><line style="stroke:#181818;stroke-width:1;" x1="894.1987" x2="1162.0127" y1="1767.8438" y2="1767.8438"/><text fill="#000000" font-family="sans-serif" font-size="13" lengthAdjust="spacing" textLength="85.3315" x="906.1987" y="1717.3794">HTTP 200 OK</text><text fill="#000000" font-family="sans-serif" font-size="13" lengthAdjust="spacing" textLength="179.3213" x="906.1987" y="1732.5122">ETag: "&lt;new_etag_value&gt;"</text><text fill="#000000" font-family="sans-serif" font-size="13" lengthAdjust="spacing" textLength="146.9546" x="906.1987" y="1747.645">VSDM-Pz: &lt;Pr&#252;fziffer&gt;</text><text fill="#000000" font-family="sans-serif" font-size="13" lengthAdjust="spacing" textLength="83.6304" x="906.1987" y="1762.7778">VSDMBundle</text></g><g class="message" data-participant-1="VSDD_Proxy" data-participant-2="PS"><polygon fill="#181818" points="347.6387,1838.375,337.6387,1842.375,347.6387,1846.375,343.6387,1842.375" style="stroke:#181818;stroke-width:1;"/><line style="stroke:#181818;stroke-width:1;" x1="341.6387" x2="878.1987" y1="1842.375" y2="1842.375"/><text fill="#000000" font-family="sans-serif" font-size="13" lengthAdjust="spacing" textLength="85.3315" x="353.6387" y="1791.9106">HTTP 200 OK</text><text fill="#000000" font-family="sans-serif" font-size="13" lengthAdjust="spacing" textLength="179.3213" x="353.6387" y="1807.0435">ETag: "&lt;new_etag_value&gt;"</text><text fill="#000000" font-family="sans-serif" font-size="13" lengthAdjust="spacing" textLength="146.9546" x="353.6387" y="1822.1763">VSDM-Pz: &lt;Pr&#252;fziffer&gt;</text><text fill="#000000" font-family="sans-serif" font-size="13" lengthAdjust="spacing" textLength="83.6304" x="353.6387" y="1837.3091">VSDMBundle</text></g><g class="message" data-participant-1="PS" data-participant-2="PS"><line style="stroke:#181818;stroke-width:1;" x1="336.6387" x2="378.6387" y1="1871.5078" y2="1871.5078"/><line style="stroke:#181818;stroke-width:1;" x1="378.6387" x2="378.6387" y1="1871.5078" y2="1884.5078"/><line style="stroke:#181818;stroke-width:1;" x1="337.6387" x2="378.6387" y1="1884.5078" y2="1884.5078"/><polygon fill="#181818" points="347.6387,1880.5078,337.6387,1884.5078,347.6387,1888.5078,343.6387,1884.5078" style="stroke:#181818;stroke-width:1;"/><text fill="#000000" font-family="sans-serif" font-size="13" lengthAdjust="spacing" textLength="107.9609" x="343.6387" y="1866.4419">Aktualisiere VSD</text></g><g class="message" data-participant-1="PS" data-participant-2="LE"><polygon fill="#181818" points="142.0762,1909.6406,132.0762,1913.6406,142.0762,1917.6406,138.0762,1913.6406" style="stroke:#181818;stroke-width:1;"/><line style="stroke:#181818;stroke-width:1;" x1="136.0762" x2="325.6387" y1="1913.6406" y2="1913.6406"/><text fill="#000000" font-family="sans-serif" font-size="13" lengthAdjust="spacing" textLength="88.3911" x="148.0762" y="1908.5747">Zeige VSD an</text></g><g class="message" data-participant-1="PS" data-participant-2="PS"><line style="stroke:#181818;stroke-width:1;" x1="336.6387" x2="378.6387" y1="1949.7734" y2="1949.7734"/><line style="stroke:#181818;stroke-width:1;" x1="378.6387" x2="378.6387" y1="1949.7734" y2="1962.7734"/><line style="stroke:#181818;stroke-width:1;" x1="337.6387" x2="378.6387" y1="1962.7734" y2="1962.7734"/><polygon fill="#181818" points="347.6387,1958.7734,337.6387,1962.7734,347.6387,1966.7734,343.6387,1962.7734" style="stroke:#181818;stroke-width:1;"/><text fill="#000000" font-family="sans-serif" font-size="13" lengthAdjust="spacing" textLength="139.7373" x="343.6387" y="1944.7075">Aktualisiere Pr&#252;fziffer</text></g><g class="message" data-participant-1="VSDD_Server" data-participant-2="VSDD_Server"><line style="stroke:#181818;stroke-width:1;" x1="1178.0127" x2="1220.0127" y1="1991.9063" y2="1991.9063"/><line style="stroke:#181818;stroke-width:1;" x1="1220.0127" x2="1220.0127" y1="1991.9063" y2="2004.9063"/><line style="stroke:#181818;stroke-width:1;" x1="1179.0127" x2="1220.0127" y1="2004.9063" y2="2004.9063"/><polygon fill="#181818" points="1189.0127,2000.9063,1179.0127,2004.9063,1189.0127,2008.9063,1185.0127,2004.9063" style="stroke:#181818;stroke-width:1;"/><text fill="#000000" font-family="sans-serif" font-size="13" lengthAdjust="spacing" textLength="324.7842" x="1185.0127" y="1986.8403">write Zugriffsprotokoll(KVNR) mit Inhalt: User-Info</text></g><rect fill="#D1F2EB" height="3" style="stroke:#D1F2EB;stroke-width:1;" width="1605.9189" x="0" y="2063.4727"/><line style="stroke:#000000;stroke-width:1;" x1="0" x2="1605.9189" y1="2063.4727" y2="2063.4727"/><line style="stroke:#000000;stroke-width:1;" x1="0" x2="1605.9189" y1="2066.4727" y2="2066.4727"/><rect fill="#D1F2EB" height="23.1328" style="stroke:#000000;stroke-width:2;" width="511.9102" x="547.0044" y="2052.9063"/><text fill="#000000" font-family="sans-serif" font-size="13" font-weight="bold" lengthAdjust="spacing" textLength="493.3843" x="553.0044" y="2068.9731">Fehlerbehandlung HTTP 401 Unauthorized (Access-Token ung&#252;ltig)</text><rect fill="#EBF5FB" height="39.1016" style="stroke:#000000;stroke-width:1.5;" width="541.7529" x="271.0664" y="2086.0391"/><path d="M271.0664,2086.0391 L336.0664,2086.0391 L336.0664,2093.0391 L326.0664,2103.0391 L271.0664,2103.0391 L271.0664,2086.0391" fill="#EEEEEE" style="stroke:#000000;stroke-width:2;"/><text fill="#000000" font-family="sans-serif" font-size="13" font-weight="bold" lengthAdjust="spacing" textLength="20.8838" x="284.0664" y="2100.106">ref</text><text fill="#000000" font-family="sans-serif" font-size="12" lengthAdjust="spacing" textLength="453.3633" x="315.2612" y="2118.1777">LEI-Authentifizierung (SMC-B) und LEI-Autorisierung (siehe gemSpec_ZETA)</text><g class="message" data-participant-1="VSDD_AuthZ" data-participant-2="PS"><polygon fill="#181818" points="342.6387,2162.4063,332.6387,2166.4063,342.6387,2170.4063,338.6387,2166.4063" style="stroke:#181818;stroke-width:1;"/><line style="stroke:#181818;stroke-width:1;" x1="336.6387" x2="717.5322" y1="2166.4063" y2="2166.4063"/><text fill="#000000" font-family="sans-serif" font-size="13" lengthAdjust="spacing" textLength="85.3315" x="348.6387" y="2146.2075">HTTP 200 OK</text><text fill="#000000" font-family="sans-serif" font-size="13" lengthAdjust="spacing" textLength="357.8936" x="348.6387" y="2161.3403">{Refresh-Token, Access-Token} mit scope : vsdservice</text></g><rect fill="#D1F2EB" height="3" style="stroke:#D1F2EB;stroke-width:1;" width="1605.9189" x="0" y="2194.9727"/><line style="stroke:#000000;stroke-width:1;" x1="0" x2="1605.9189" y1="2194.9727" y2="2194.9727"/><line style="stroke:#000000;stroke-width:1;" x1="0" x2="1605.9189" y1="2197.9727" y2="2197.9727"/><rect fill="#D1F2EB" height="23.1328" style="stroke:#000000;stroke-width:2;" width="668.0942" x="468.9124" y="2184.4063"/><text fill="#000000" font-family="sans-serif" font-size="13" font-weight="bold" lengthAdjust="spacing" textLength="649.5684" x="474.9124" y="2200.4731">Fehlerbehandlung HTTP 403 Forbidden (Versorgungskontext bzw. PoPP-Token ung&#252;ltig)</text><rect fill="#EBF5FB" height="39.1016" style="stroke:#000000;stroke-width:1.5;" width="1601.9189" x="2" y="2217.5391"/><path d="M2,2217.5391 L67,2217.5391 L67,2224.5391 L57,2234.5391 L2,2234.5391 L2,2217.5391" fill="#EEEEEE" style="stroke:#000000;stroke-width:2;"/><text fill="#000000" font-family="sans-serif" font-size="13" font-weight="bold" lengthAdjust="spacing" textLength="20.8838" x="15" y="2231.606">ref</text><text fill="#000000" font-family="sans-serif" font-size="12" lengthAdjust="spacing" textLength="550.1602" x="527.8794" y="2249.6777">Versorgungskontext mit eGK oder GesundheitsID herstellen (siehe gemSpec_PoPP_Service)</text><g class="message" data-participant-1="PoPP" data-participant-2="PS"><polygon fill="#181818" points="342.6387,2293.9063,332.6387,2297.9063,342.6387,2301.9063,338.6387,2297.9063" style="stroke:#181818;stroke-width:1;"/><line style="stroke:#181818;stroke-width:1;" x1="336.6387" x2="1525.7969" y1="2297.9063" y2="2297.9063"/><text fill="#000000" font-family="sans-serif" font-size="13" lengthAdjust="spacing" textLength="101.3276" x="348.6387" y="2277.7075">PoPP-Token mit</text><text fill="#000000" font-family="sans-serif" font-size="13" lengthAdjust="spacing" textLength="236.7358" x="348.6387" y="2292.8403">KVNR, IK-Nummer, OID, Zeitstempel</text></g></g></svg>