<?xml version="1.0" encoding="us-ascii" standalone="no"?><svg xmlns="http://www.w3.org/2000/svg" xmlns:xlink="http://www.w3.org/1999/xlink" contentStyleType="text/css" height="457px" preserveAspectRatio="none" style="width:747px;height:457px;background:#FFFFFF;" version="1.1" viewBox="0 0 747 457" width="747px" zoomAndPan="magnify"><defs/><g><!--class Versichertenstammdaten--><g id="elem_Versichertenstammdaten"><rect codeLine="10" fill="#E6E6E6" height="80.5938" id="Versichertenstammdaten" rx="2.5" ry="2.5" style="stroke:#000E52;stroke-width:0.5;" width="280" x="97.5" y="7"/><ellipse cx="145.75" cy="23" fill="#A9DCDF" rx="11" ry="11" style="stroke:#181818;stroke-width:1.0;"/><path d="M145.8594,18.3438 L144.7031,23.4219 L147.0313,23.4219 L145.8594,18.3438 Z M144.375,16.1094 L147.3594,16.1094 L150.7188,28.5 L148.2656,28.5 L147.5,25.4375 L144.2188,25.4375 L143.4688,28.5 L141.0313,28.5 L144.375,16.1094 Z " fill="#000000"/><text fill="#000E52" font-family="sans-serif" font-size="14" font-style="italic" lengthAdjust="spacing" textLength="175" x="166.25" y="27.8467">Versichertenstammdaten</text><line style="stroke:#000E52;stroke-width:0.5;" x1="98.5" x2="376.5" y1="39" y2="39"/><line style="stroke:#000E52;stroke-width:0.5;" x1="98.5" x2="376.5" y1="47" y2="47"/><text fill="#000E52" font-family="sans-serif" font-size="14" lengthAdjust="spacing" textLength="33" x="103.5" y="63.9951">get()</text><text fill="#000E52" font-family="sans-serif" font-size="14" lengthAdjust="spacing" textLength="268" x="103.5" y="80.292">get(queryParams isTreatmentCovered)</text></g><g id="elem_GMN3"><path d="M413,19.6 L413,43.3 L377.87,47.3 L413,51.3 L413,74.9984 A0,0 0 0 0 413,74.9984 L740,74.9984 A0,0 0 0 0 740,74.9984 L740,29.6 L730,19.6 L413,19.6 A0,0 0 0 0 413,19.6 " fill="#FEFFDD" style="stroke:#181818;stroke-width:0.5;"/><path d="M730,19.6 L730,29.6 L740,29.6 L730,19.6 " fill="#FEFFDD" style="stroke:#181818;stroke-width:0.5;"/><text fill="#000000" font-family="sans-serif" font-size="13" lengthAdjust="spacing" textLength="306" x="419" y="36.6669">VSD consist of Patient and Coverage resources.</text><text fill="#000000" font-family="sans-serif" font-size="13" lengthAdjust="spacing" textLength="252" x="419" y="51.7997">They are queried from an http-interface</text><text fill="#000000" font-family="sans-serif" font-size="13" lengthAdjust="spacing" textLength="277" x="419" y="66.9325">and returned in a (probably signed) Bundle.</text></g><!--class Bundle--><g id="elem_Bundle"><rect codeLine="16" fill="#E6E6E6" height="48" id="Bundle" rx="2.5" ry="2.5" style="stroke:#000E52;stroke-width:0.5;" width="81" x="197" y="147.6"/><ellipse cx="212" cy="163.6" fill="#ADD1B2" rx="11" ry="11" style="stroke:#181818;stroke-width:1.0;"/><path d="M214.9688,169.2406 Q214.3906,169.5375 213.75,169.6781 Q213.1094,169.8344 212.4063,169.8344 Q209.9063,169.8344 208.5781,168.1937 Q207.2656,166.5375 207.2656,163.4125 Q207.2656,160.2875 208.5781,158.6312 Q209.9063,156.975 212.4063,156.975 Q213.1094,156.975 213.75,157.1312 Q214.4063,157.2875 214.9688,157.5844 L214.9688,160.3031 Q214.3438,159.725 213.75,159.4594 Q213.1563,159.1781 212.5313,159.1781 Q211.1875,159.1781 210.5,160.2562 Q209.8125,161.3187 209.8125,163.4125 Q209.8125,165.5062 210.5,166.5844 Q211.1875,167.6469 212.5313,167.6469 Q213.1563,167.6469 213.75,167.3812 Q214.3438,167.1 214.9688,166.5219 L214.9688,169.2406 Z " fill="#000000"/><text fill="#000E52" font-family="sans-serif" font-size="14" lengthAdjust="spacing" textLength="49" x="226" y="168.4467">Bundle</text><line style="stroke:#000E52;stroke-width:0.5;" x1="198" x2="277" y1="179.6" y2="179.6"/><line style="stroke:#000E52;stroke-width:0.5;" x1="198" x2="277" y1="187.6" y2="187.6"/></g><!--class PatientInformation--><g id="elem_PatientInformation"><rect codeLine="20" fill="#E6E6E6" height="145.7813" id="PatientInformation" rx="2.5" ry="2.5" style="stroke:#000E52;stroke-width:0.5;" width="157" x="7" y="280.04"/><ellipse cx="22" cy="296.04" fill="#ADD1B2" rx="11" ry="11" style="stroke:#181818;stroke-width:1.0;"/><path d="M24.9688,301.6806 Q24.3906,301.9775 23.75,302.1181 Q23.1094,302.2744 22.4063,302.2744 Q19.9063,302.2744 18.5781,300.6337 Q17.2656,298.9775 17.2656,295.8525 Q17.2656,292.7275 18.5781,291.0712 Q19.9063,289.415 22.4063,289.415 Q23.1094,289.415 23.75,289.5712 Q24.4063,289.7275 24.9688,290.0244 L24.9688,292.7431 Q24.3438,292.165 23.75,291.8994 Q23.1563,291.6181 22.5313,291.6181 Q21.1875,291.6181 20.5,292.6962 Q19.8125,293.7587 19.8125,295.8525 Q19.8125,297.9462 20.5,299.0244 Q21.1875,300.0869 22.5313,300.0869 Q23.1563,300.0869 23.75,299.8212 Q24.3438,299.54 24.9688,298.9619 L24.9688,301.6806 Z " fill="#000000"/><text fill="#000E52" font-family="sans-serif" font-size="14" lengthAdjust="spacing" textLength="125" x="36" y="300.8867">PatientInformation</text><line style="stroke:#000E52;stroke-width:0.5;" x1="8" x2="163" y1="312.04" y2="312.04"/><text fill="#000E52" font-family="sans-serif" font-size="14" lengthAdjust="spacing" textLength="92" x="13" y="329.0351">Identifier kvnr</text><text fill="#000E52" font-family="sans-serif" font-size="14" lengthAdjust="spacing" textLength="132" x="13" y="345.332">HumanName name</text><text fill="#000E52" font-family="sans-serif" font-size="14" lengthAdjust="spacing" textLength="91" x="13" y="361.6289">Code gender</text><text fill="#000E52" font-family="sans-serif" font-size="14" lengthAdjust="spacing" textLength="117" x="13" y="377.9257">Address address</text><text fill="#000E52" font-family="sans-serif" font-size="14" lengthAdjust="spacing" textLength="101" x="13" y="394.2226">Date birthDate</text><text fill="#000E52" font-family="sans-serif" font-size="14" lengthAdjust="spacing" textLength="12" x="13" y="410.5195">...</text><line style="stroke:#000E52;stroke-width:0.5;" x1="8" x2="163" y1="417.8212" y2="417.8212"/></g><!--class CoverageInformation--><g id="elem_CoverageInformation"><rect codeLine="29" fill="#E6E6E6" height="194.6719" id="CoverageInformation" rx="2.5" ry="2.5" style="stroke:#000E52;stroke-width:0.5;" width="380" x="199.5" y="255.6"/><ellipse cx="313.75" cy="271.6" fill="#ADD1B2" rx="11" ry="11" style="stroke:#181818;stroke-width:1.0;"/><path d="M316.7188,277.2406 Q316.1406,277.5375 315.5,277.6781 Q314.8594,277.8344 314.1563,277.8344 Q311.6563,277.8344 310.3281,276.1938 Q309.0156,274.5375 309.0156,271.4125 Q309.0156,268.2875 310.3281,266.6313 Q311.6563,264.975 314.1563,264.975 Q314.8594,264.975 315.5,265.1313 Q316.1563,265.2875 316.7188,265.5844 L316.7188,268.3031 Q316.0938,267.725 315.5,267.4594 Q314.9063,267.1781 314.2813,267.1781 Q312.9375,267.1781 312.25,268.2563 Q311.5625,269.3188 311.5625,271.4125 Q311.5625,273.5063 312.25,274.5844 Q312.9375,275.6469 314.2813,275.6469 Q314.9063,275.6469 315.5,275.3813 Q316.0938,275.1 316.7188,274.5219 L316.7188,277.2406 Z " fill="#000000"/><text fill="#000E52" font-family="sans-serif" font-size="14" lengthAdjust="spacing" textLength="143" x="334.25" y="276.4467">CoverageInformation</text><line style="stroke:#000E52;stroke-width:0.5;" x1="200.5" x2="578.5" y1="287.6" y2="287.6"/><text fill="#000E52" font-family="sans-serif" font-size="14" lengthAdjust="spacing" textLength="122" x="205.5" y="304.5951">Identifier identifier</text><text fill="#000E52" font-family="sans-serif" font-size="14" lengthAdjust="spacing" textLength="84" x="205.5" y="320.892">Code status</text><text fill="#000E52" font-family="sans-serif" font-size="14" lengthAdjust="spacing" textLength="198" x="205.5" y="337.1889">Reference beneficiaryPatient</text><text fill="#000E52" font-family="sans-serif" font-size="14" lengthAdjust="spacing" textLength="156" x="205.5" y="353.4857">Period coveragePeriod</text><text fill="#000E52" font-family="sans-serif" font-size="14" lengthAdjust="spacing" textLength="101" x="205.5" y="369.7826">PayorInsurer ik</text><text fill="#000E52" font-family="sans-serif" font-size="14" lengthAdjust="spacing" textLength="350" x="205.5" y="386.0795">CostToBeneficiary coPaymentAndPersonengruppe</text><text fill="#000E52" font-family="sans-serif" font-size="14" lengthAdjust="spacing" textLength="190" x="205.5" y="402.3764">ExtensionDMP[] dmpCodes</text><text fill="#000E52" font-family="sans-serif" font-size="14" lengthAdjust="spacing" textLength="368" x="205.5" y="418.6732">ExtensionSelektivVertraege[] selektivVertraegeCodes</text><text fill="#000E52" font-family="sans-serif" font-size="14" lengthAdjust="spacing" textLength="12" x="205.5" y="434.9701">...</text><line style="stroke:#000E52;stroke-width:0.5;" x1="200.5" x2="578.5" y1="442.2719" y2="442.2719"/></g><!--reverse link Versichertenstammdaten to Bundle--><g id="link_Versichertenstammdaten_Bundle"><path codeLine="41" d="M237.5,106.01 C237.5,125.54 237.5,130.41 237.5,147.12 " fill="none" id="Versichertenstammdaten-backto-Bundle" style="stroke:#000E52;stroke-width:1.0;"/><polygon fill="none" points="237.5,88.01,231.5,106.01,243.5,106.01,237.5,88.01" style="stroke:#000E52;stroke-width:1.0;"/></g><!--reverse link Bundle to PatientInformation--><g id="link_Bundle_PatientInformation"><path codeLine="42" d="M209.8706,205.1938 C191.8406,226.4638 172.06,249.81 146.78,279.64 " fill="none" id="Bundle-backto-PatientInformation" style="stroke:#000E52;stroke-width:1.0;"/><polygon fill="#000E52" points="217.63,196.04,210.699,198.0304,209.8706,205.1938,216.8016,203.2034,217.63,196.04" style="stroke:#000E52;stroke-width:1.0;"/></g><!--reverse link Bundle to CoverageInformation--><g id="link_Bundle_CoverageInformation"><path codeLine="43" d="M265.13,205.1933 C278.33,220.7633 288.87,233.2 307.65,255.36 " fill="none" id="Bundle-backto-CoverageInformation" style="stroke:#000E52;stroke-width:1.0;"/><polygon fill="#000E52" points="257.37,196.04,258.1989,203.2033,265.13,205.1933,264.3011,198.03,257.37,196.04" style="stroke:#000E52;stroke-width:1.0;"/></g><!--SRC=[VLB1ZjD03BtdAonnsI8rgf3WWBYqMn0zW2gssWkx1pVZfACsdk1n2XNmxtWosItGXKHAFC_ss7xFSU-vGy4MgWF62DyBi6U1rRwHqBEx3eSWy8nUfNVmpKN2rn6UpMRqyaLE2U98Bl5tWVKIdQkAt_PAb-wVHO7Rg8ALZZtTaaHVxKYKE2gshKEpnbORqgl9e_Mb9pcjqpmHVDm8eRQKAXn9o4tiSWvA8BxPARo6svibL86ZZmgXXZMgjsX0TZ2aO6En54Cl5SNoZZSxEW4AGQhZoK4jeRLmsAbsKyzAKcD5Tvnk4D9Us88y0y9L9s6BsyC9ecyCdS32w3rGMHHvodoqgH836HhxMN4Tf3KxF0ozSWRxsfF0_iWoOE_x5laZjWHidm6w3ewC5ZPXCklEsJGHCFy7R6bSmjQBxf8rG6LPddjuuE6_JVX7yrpNbD8-r_X4jT7FbHKYfjfN7fDAmt13mDhO3CwaoBNoCNlm56J5iPTKPZzU7tKJ5kUhBD7Yaj1pTfOS0nCtqdTT7kZjjxGvrldom_hpFRYsInt6FtqtTA2z-gDjcoqVDMIHyM_id3UIz8_TVFDZEis25gEkpwVJ9_JytVi4qqNn2m00]--></g></svg>