<?xml version="1.0" encoding="UTF-8" standalone="no"?><svg xmlns="http://www.w3.org/2000/svg" xmlns:xlink="http://www.w3.org/1999/xlink" contentStyleType="text/css" height="457px" preserveAspectRatio="none" style="width:747px;height:457px;background:#FFFFFF;" version="1.1" viewBox="0 0 747 457" width="747px" zoomAndPan="magnify"><defs/><g><!--MD5=[d23c9f1b7e1359cbedfaa56c483dc67c]
class Versichertenstammdaten--><g id="elem_Versichertenstammdaten"><rect codeLine="10" fill="#E6E6E6" height="80.5938" id="Versichertenstammdaten" rx="2.5" ry="2.5" style="stroke:#000E52;stroke-width:0.5;" width="280" x="97.5" y="7"/><ellipse cx="145.75" cy="23" fill="#A9DCDF" rx="11" ry="11" style="stroke:#181818;stroke-width:1.0;"/><path d="M145.8594,18.3438 L144.7031,23.4219 L147.0313,23.4219 L145.8594,18.3438 Z M144.375,16.1094 L147.3594,16.1094 L150.7188,28.5 L148.2656,28.5 L147.5,25.4375 L144.2188,25.4375 L143.4688,28.5 L141.0313,28.5 L144.375,16.1094 Z " fill="#000000"/><text fill="#000E52" font-family="sans-serif" font-size="14" font-style="italic" lengthAdjust="spacing" textLength="175" x="166.25" y="27.8467">Versichertenstammdaten</text><line style="stroke:#000E52;stroke-width:0.5;" x1="98.5" x2="376.5" y1="39" y2="39"/><line style="stroke:#000E52;stroke-width:0.5;" x1="98.5" x2="376.5" y1="47" y2="47"/><text fill="#000E52" font-family="sans-serif" font-size="14" lengthAdjust="spacing" textLength="33" x="103.5" y="63.9951">get()</text><text fill="#000E52" font-family="sans-serif" font-size="14" lengthAdjust="spacing" textLength="268" x="103.5" y="80.292">get(queryParams isTreatmentCovered)</text></g><g id="elem_GMN3"><path d="M413,20 L413,43.5 L377.54,47.5 L413,51.5 L413,75.3984 A0,0 0 0 0 413,75.3984 L740,75.3984 A0,0 0 0 0 740,75.3984 L740,30 L730,20 L413,20 A0,0 0 0 0 413,20 " fill="#FEFFDD" style="stroke:#181818;stroke-width:0.5;"/><path d="M730,20 L730,30 L740,30 L730,20 " fill="#FEFFDD" style="stroke:#181818;stroke-width:0.5;"/><text fill="#000000" font-family="sans-serif" font-size="13" lengthAdjust="spacing" textLength="306" x="419" y="37.0669">VSD consist of Patient and Coverage resources.</text><text fill="#000000" font-family="sans-serif" font-size="13" lengthAdjust="spacing" textLength="252" x="419" y="52.1997">They are queried from an http-interface</text><text fill="#000000" font-family="sans-serif" font-size="13" lengthAdjust="spacing" textLength="277" x="419" y="67.3325">and returned in a (probably signed) Bundle.</text></g><!--MD5=[536e464d8b1e54faa737ee1f4ae6355d]
class Bundle--><g id="elem_Bundle"><rect codeLine="16" fill="#E6E6E6" height="48" id="Bundle" rx="2.5" ry="2.5" style="stroke:#000E52;stroke-width:0.5;" width="81" x="197" y="148"/><ellipse cx="212" cy="164" fill="#ADD1B2" rx="11" ry="11" style="stroke:#181818;stroke-width:1.0;"/><path d="M214.9688,169.6406 Q214.3906,169.9375 213.75,170.0781 Q213.1094,170.2344 212.4063,170.2344 Q209.9063,170.2344 208.5781,168.5938 Q207.2656,166.9375 207.2656,163.8125 Q207.2656,160.6875 208.5781,159.0313 Q209.9063,157.375 212.4063,157.375 Q213.1094,157.375 213.75,157.5313 Q214.4063,157.6875 214.9688,157.9844 L214.9688,160.7031 Q214.3438,160.125 213.75,159.8594 Q213.1563,159.5781 212.5313,159.5781 Q211.1875,159.5781 210.5,160.6563 Q209.8125,161.7188 209.8125,163.8125 Q209.8125,165.9063 210.5,166.9844 Q211.1875,168.0469 212.5313,168.0469 Q213.1563,168.0469 213.75,167.7813 Q214.3438,167.5 214.9688,166.9219 L214.9688,169.6406 Z " fill="#000000"/><text fill="#000E52" font-family="sans-serif" font-size="14" lengthAdjust="spacing" textLength="49" x="226" y="168.8467">Bundle</text><line style="stroke:#000E52;stroke-width:0.5;" x1="198" x2="277" y1="180" y2="180"/><line style="stroke:#000E52;stroke-width:0.5;" x1="198" x2="277" y1="188" y2="188"/></g><!--MD5=[aa83dfb32089ddd9eaba08da5d73a9d8]
class PatientInformation--><g id="elem_PatientInformation"><rect codeLine="20" fill="#E6E6E6" height="145.7813" id="PatientInformation" rx="2.5" ry="2.5" style="stroke:#000E52;stroke-width:0.5;" width="157" x="7" y="280.5"/><ellipse cx="22" cy="296.5" fill="#ADD1B2" rx="11" ry="11" style="stroke:#181818;stroke-width:1.0;"/><path d="M24.9688,302.1406 Q24.3906,302.4375 23.75,302.5781 Q23.1094,302.7344 22.4063,302.7344 Q19.9063,302.7344 18.5781,301.0938 Q17.2656,299.4375 17.2656,296.3125 Q17.2656,293.1875 18.5781,291.5313 Q19.9063,289.875 22.4063,289.875 Q23.1094,289.875 23.75,290.0313 Q24.4063,290.1875 24.9688,290.4844 L24.9688,293.2031 Q24.3438,292.625 23.75,292.3594 Q23.1563,292.0781 22.5313,292.0781 Q21.1875,292.0781 20.5,293.1563 Q19.8125,294.2188 19.8125,296.3125 Q19.8125,298.4063 20.5,299.4844 Q21.1875,300.5469 22.5313,300.5469 Q23.1563,300.5469 23.75,300.2813 Q24.3438,300 24.9688,299.4219 L24.9688,302.1406 Z " fill="#000000"/><text fill="#000E52" font-family="sans-serif" font-size="14" lengthAdjust="spacing" textLength="125" x="36" y="301.3467">PatientInformation</text><line style="stroke:#000E52;stroke-width:0.5;" x1="8" x2="163" y1="312.5" y2="312.5"/><text fill="#000E52" font-family="sans-serif" font-size="14" lengthAdjust="spacing" textLength="92" x="13" y="329.4951">Identifier kvnr</text><text fill="#000E52" font-family="sans-serif" font-size="14" lengthAdjust="spacing" textLength="132" x="13" y="345.792">HumanName name</text><text fill="#000E52" font-family="sans-serif" font-size="14" lengthAdjust="spacing" textLength="91" x="13" y="362.0889">Code gender</text><text fill="#000E52" font-family="sans-serif" font-size="14" lengthAdjust="spacing" textLength="117" x="13" y="378.3857">Address address</text><text fill="#000E52" font-family="sans-serif" font-size="14" lengthAdjust="spacing" textLength="101" x="13" y="394.6826">Date birthDate</text><text fill="#000E52" font-family="sans-serif" font-size="14" lengthAdjust="spacing" textLength="12" x="13" y="410.9795">...</text><line style="stroke:#000E52;stroke-width:0.5;" x1="8" x2="163" y1="418.2813" y2="418.2813"/></g><!--MD5=[99b80a260059ed20231972ba38a7bfc2]
class CoverageInformation--><g id="elem_CoverageInformation"><rect codeLine="29" fill="#E6E6E6" height="194.6719" id="CoverageInformation" rx="2.5" ry="2.5" style="stroke:#000E52;stroke-width:0.5;" width="380" x="199.5" y="256"/><ellipse cx="313.75" cy="272" fill="#ADD1B2" rx="11" ry="11" style="stroke:#181818;stroke-width:1.0;"/><path d="M316.7188,277.6406 Q316.1406,277.9375 315.5,278.0781 Q314.8594,278.2344 314.1563,278.2344 Q311.6563,278.2344 310.3281,276.5938 Q309.0156,274.9375 309.0156,271.8125 Q309.0156,268.6875 310.3281,267.0313 Q311.6563,265.375 314.1563,265.375 Q314.8594,265.375 315.5,265.5313 Q316.1563,265.6875 316.7188,265.9844 L316.7188,268.7031 Q316.0938,268.125 315.5,267.8594 Q314.9063,267.5781 314.2813,267.5781 Q312.9375,267.5781 312.25,268.6563 Q311.5625,269.7188 311.5625,271.8125 Q311.5625,273.9063 312.25,274.9844 Q312.9375,276.0469 314.2813,276.0469 Q314.9063,276.0469 315.5,275.7813 Q316.0938,275.5 316.7188,274.9219 L316.7188,277.6406 Z " fill="#000000"/><text fill="#000E52" font-family="sans-serif" font-size="14" lengthAdjust="spacing" textLength="143" x="334.25" y="276.8467">CoverageInformation</text><line style="stroke:#000E52;stroke-width:0.5;" x1="200.5" x2="578.5" y1="288" y2="288"/><text fill="#000E52" font-family="sans-serif" font-size="14" lengthAdjust="spacing" textLength="122" x="205.5" y="304.9951">Identifier identifier</text><text fill="#000E52" font-family="sans-serif" font-size="14" lengthAdjust="spacing" textLength="84" x="205.5" y="321.292">Code status</text><text fill="#000E52" font-family="sans-serif" font-size="14" lengthAdjust="spacing" textLength="198" x="205.5" y="337.5889">Reference beneficiaryPatient</text><text fill="#000E52" font-family="sans-serif" font-size="14" lengthAdjust="spacing" textLength="156" x="205.5" y="353.8857">Period coveragePeriod</text><text fill="#000E52" font-family="sans-serif" font-size="14" lengthAdjust="spacing" textLength="101" x="205.5" y="370.1826">PayorInsurer ik</text><text fill="#000E52" font-family="sans-serif" font-size="14" lengthAdjust="spacing" textLength="350" x="205.5" y="386.4795">CostToBeneficiary coPaymentAndPersonengruppe</text><text fill="#000E52" font-family="sans-serif" font-size="14" lengthAdjust="spacing" textLength="190" x="205.5" y="402.7764">ExtensionDMP[] dmpCodes</text><text fill="#000E52" font-family="sans-serif" font-size="14" lengthAdjust="spacing" textLength="368" x="205.5" y="419.0732">ExtensionSelektivVertraege[] selektivVertraegeCodes</text><text fill="#000E52" font-family="sans-serif" font-size="14" lengthAdjust="spacing" textLength="12" x="205.5" y="435.3701">...</text><line style="stroke:#000E52;stroke-width:0.5;" x1="200.5" x2="578.5" y1="442.6719" y2="442.6719"/></g><!--MD5=[899cf81ee84ee9fffe7eb91174efbe6f]
reverse link Versichertenstammdaten to Bundle--><g id="link_Versichertenstammdaten_Bundle"><path codeLine="41" d="M237.5,108.42 C237.5,122.45 237.5,136.57 237.5,147.84 " fill="none" id="Versichertenstammdaten-backto-Bundle" style="stroke:#000E52;stroke-width:1.0;"/><polygon fill="none" points="230.5,108.27,237.5,88.27,244.5,108.27,230.5,108.27" style="stroke:#000E52;stroke-width:1.0;"/></g><!--MD5=[ece51598b2af08d8e2dfea5ed4a54c46]
reverse link Bundle to PatientInformation--><g id="link_Bundle_PatientInformation"><path codeLine="42" d="M209.3,206.3 C191.71,227.08 168.36,254.65 146.68,280.25 " fill="none" id="Bundle-backto-PatientInformation" style="stroke:#000E52;stroke-width:1.0;"/><polygon fill="#000E52" points="217.94,196.1,211.0095,198.0921,210.1828,205.2556,217.1133,203.2636,217.94,196.1" style="stroke:#000E52;stroke-width:1.0;"/></g><!--MD5=[c8cba1672ea63dad57a21b5bcce991ae]
reverse link Bundle to CoverageInformation--><g id="link_Bundle_CoverageInformation"><path codeLine="43" d="M265.73,206.34 C277.81,220.6 292.59,238.06 307.69,255.89 " fill="none" id="Bundle-backto-CoverageInformation" style="stroke:#000E52;stroke-width:1.0;"/><polygon fill="#000E52" points="257.06,196.1,257.8867,203.2636,264.8172,205.2556,263.9905,198.0921,257.06,196.1" style="stroke:#000E52;stroke-width:1.0;"/></g><!--MD5=[010ff38fdd348229ccb8f9eccd2cce9a]
@startuml "Info model VSDM 2"

skinparam class {
    BackgroundColor #e6e6e6
    ArrowColor #000e52
    BorderColor #000e52
    FontColor #000e52
    AttributeFontColor #000e52
}

abstract class Versichertenstammdaten {
    get()
    get(queryParams isTreatmentCovered)
}
note right : VSD consist of Patient and Coverage resources.\nThey are queried from an http-interface\nand returned in a (probably signed) Bundle.

class Bundle {

}

class PatientInformation {
    Identifier kvnr
    HumanName name
    Code gender
    Address address
    Date birthDate
    ...
}

class CoverageInformation {
    Identifier identifier
    Code status
    Reference beneficiaryPatient
    Period coveragePeriod
    PayorInsurer ik
    CostToBeneficiary coPaymentAndPersonengruppe
    ExtensionDMP[] dmpCodes
    ExtensionSelektivVertraege[] selektivVertraegeCodes
    ...
}

Versichertenstammdaten <|- -Bundle
Bundle *- - PatientInformation
Bundle *- - CoverageInformation


@enduml

PlantUML version 1.2022.13(Sat Nov 19 13:22:17 UTC 2022)
(GPL source distribution)
Java Runtime: OpenJDK Runtime Environment
JVM: OpenJDK 64-Bit Server VM
Default Encoding: UTF-8
Language: en
Country: null
--></g></svg>