<svg xmlns="http://www.w3.org/2000/svg" xmlns:xlink="http://www.w3.org/1999/xlink" contentStyleType="text/css" height="2540px" preserveAspectRatio="none" style="width:1726px;height:2540px;background:#FFFFFF;" version="1.1" viewBox="0 0 1726 2540" width="1726px" zoomAndPan="magnify"><title>VSDM 2.0 Sequenzdiagramm "Versichertenstammdaten und Pr&#252;fungsnachweis abrufen"</title><defs/><g><text fill="#000000" font-family="sans-serif" font-size="14" font-weight="bold" lengthAdjust="spacing" textLength="699.1523" x="509.8833" y="27.9951">VSDM 2.0 Sequenzdiagramm "Versichertenstammdaten und Pr&#252;fungsnachweis abrufen"</text><rect fill="#FFFFFF" height="1994.5781" style="stroke:#181818;stroke-width:1.0;" width="10" x="126.0762" y="192.8594"/><rect fill="#FFFFFF" height="1941.3125" style="stroke:#181818;stroke-width:1.0;" width="10" x="326.6387" y="246.125"/><rect fill="#FFFFFF" height="88.3672" style="stroke:#181818;stroke-width:1.0;" width="10" x="326.6387" y="2266.7031"/><rect fill="#FFFFFF" height="88.3672" style="stroke:#181818;stroke-width:1.0;" width="10" x="326.6387" y="2427.3359"/><rect fill="#FFFFFF" height="73.2344" style="stroke:#181818;stroke-width:1.0;" width="10" x="865.9565" y="803.1563"/><rect fill="#FFFFFF" height="88.3672" style="stroke:#181818;stroke-width:1.0;" width="10" x="865.9565" y="2266.7031"/><rect fill="#FFFFFF" height="1251.6484" style="stroke:#181818;stroke-width:1.0;" width="10" x="1031.623" y="935.7891"/><rect fill="#FFFFFF" height="839.6563" style="stroke:#181818;stroke-width:1.0;" width="10" x="1277.0127" y="1347.7813"/><rect fill="#FFFFFF" height="28" style="stroke:#181818;stroke-width:1.0;" width="10" x="1282.0127" y="2159.4375"/><rect fill="#FFFFFF" height="88.3672" style="stroke:#181818;stroke-width:1.0;" width="10" x="1635.7969" y="396.6563"/><rect fill="#FFFFFF" height="88.3672" style="stroke:#181818;stroke-width:1.0;" width="10" x="1635.7969" y="2427.3359"/><rect fill="none" height="88.3984" style="stroke:#000000;stroke-width:1.5;" width="537.522" x="66.6426" y="207.8594"/><rect fill="none" height="46.2656" style="stroke:#000000;stroke-width:1.5;" width="846.936" x="264.0664" y="992.9219"/><rect fill="none" height="46.2656" style="stroke:#000000;stroke-width:1.5;" width="846.936" x="264.0664" y="1095.3203"/><rect fill="none" height="46.2656" style="stroke:#000000;stroke-width:1.5;" width="846.936" x="264.0664" y="1212.8516"/><rect fill="none" height="75.3984" style="stroke:#000000;stroke-width:1.5;" width="1102.376" x="264.0664" y="1404.9141"/><rect fill="none" height="75.3984" style="stroke:#000000;stroke-width:1.5;" width="1102.376" x="264.0664" y="1536.4453"/><rect fill="none" height="413.1953" style="stroke:#000000;stroke-width:1.5;" width="1492.1362" x="66.6426" y="1667.9766"/><line style="stroke:#181818;stroke-width:0.5;stroke-dasharray:5.0,5.0;" x1="32" x2="32" y1="118.5938" y2="2533.7031"/><line style="stroke:#181818;stroke-width:0.5;stroke-dasharray:5.0,5.0;" x1="130.6426" x2="130.6426" y1="118.5938" y2="2533.7031"/><line style="stroke:#181818;stroke-width:0.5;stroke-dasharray:5.0,5.0;" x1="331.0664" x2="331.0664" y1="118.5938" y2="2533.7031"/><line style="stroke:#181818;stroke-width:0.5;stroke-dasharray:5.0,5.0;" x1="870.6694" x2="870.6694" y1="118.5938" y2="2533.7031"/><line style="stroke:#181818;stroke-width:0.5;stroke-dasharray:5.0,5.0;" x1="1036.2437" x2="1036.2437" y1="118.5938" y2="2533.7031"/><line style="stroke:#181818;stroke-width:0.5;stroke-dasharray:5.0,5.0;" x1="1281.583" x2="1281.583" y1="118.5938" y2="2533.7031"/><line style="stroke:#181818;stroke-width:0.5;stroke-dasharray:5.0,5.0;" x1="1640.6748" x2="1640.6748" y1="118.5938" y2="2533.7031"/><text fill="#000000" font-family="sans-serif" font-size="14" lengthAdjust="spacing" textLength="49.376" x="5" y="115.292">Patient</text><ellipse cx="32.688" cy="50.7969" fill="#E2E2F0" rx="8" ry="8" style="stroke:#181818;stroke-width:0.5;"/><path d="M32.688,58.7969 L32.688,85.7969 M19.688,66.7969 L45.688,66.7969 M32.688,85.7969 L19.688,100.7969 M32.688,85.7969 L45.688,100.7969 " fill="none" style="stroke:#181818;stroke-width:0.5;"/><text fill="#000000" font-family="sans-serif" font-size="14" lengthAdjust="spacing" textLength="102.8672" x="76.6426" y="115.292">LEI-Mitarbeiter</text><ellipse cx="131.0762" cy="50.7969" fill="#E2E2F0" rx="8" ry="8" style="stroke:#181818;stroke-width:0.5;"/><path d="M131.0762,58.7969 L131.0762,85.7969 M118.0762,66.7969 L144.0762,66.7969 M131.0762,85.7969 L118.0762,100.7969 M131.0762,85.7969 L144.0762,100.7969 " fill="none" style="stroke:#181818;stroke-width:0.5;"/><rect fill="#E2E2F0" height="61.25" rx="2.5" ry="2.5" style="stroke:#181818;stroke-width:0.5;" width="115.1445" x="274.0664" y="56.3438"/><text fill="#000000" font-family="sans-serif" font-size="18" font-weight="bold" lengthAdjust="spacing" textLength="30.4629" x="316.4072" y="80.0518">LEI</text><line style="stroke:#181818;stroke-width:1.0;" x1="274.0664" x2="389.2109" y1="89.2969" y2="89.2969"/><text fill="#000000" font-family="monospace" font-size="14" lengthAdjust="spacing" textLength="101.1445" x="281.0664" y="107.292">Prim&#228;rsystem</text><rect fill="#E2E2F0" height="61.25" rx="2.5" ry="2.5" style="stroke:#181818;stroke-width:0.5;" width="182.5742" x="779.6694" y="56.3438"/><text fill="#000000" font-family="sans-serif" font-size="18" font-weight="bold" lengthAdjust="spacing" textLength="114.7588" x="813.5771" y="80.0518">VSD-Dienst</text><line style="stroke:#181818;stroke-width:1.0;" x1="779.6694" x2="962.2437" y1="89.2969" y2="89.2969"/><text fill="#000000" font-family="monospace" font-size="14" lengthAdjust="spacing" textLength="168.5742" x="786.6694" y="107.292">Authorization-Server</text><rect fill="#E2E2F0" height="61.25" rx="2.5" ry="2.5" style="stroke:#181818;stroke-width:0.5;" width="128.7588" x="972.2437" y="56.3438"/><text fill="#000000" font-family="sans-serif" font-size="18" font-weight="bold" lengthAdjust="spacing" textLength="114.7588" x="979.2437" y="80.0518">VSD-Dienst</text><line style="stroke:#181818;stroke-width:1.0;" x1="972.2437" x2="1101.0024" y1="89.2969" y2="89.2969"/><text fill="#000000" font-family="monospace" font-size="14" lengthAdjust="spacing" textLength="84.2871" x="994.4795" y="107.292">HTTP-Proxy</text><rect fill="#E2E2F0" height="61.25" rx="2.5" ry="2.5" style="stroke:#181818;stroke-width:0.5;" width="148.8594" x="1207.583" y="56.3438"/><text fill="#000000" font-family="sans-serif" font-size="18" font-weight="bold" lengthAdjust="spacing" textLength="114.7588" x="1224.6333" y="80.0518">VSD-Dienst</text><line style="stroke:#181818;stroke-width:1.0;" x1="1207.583" x2="1356.4424" y1="89.2969" y2="89.2969"/><text fill="#000000" font-family="monospace" font-size="14" lengthAdjust="spacing" textLength="134.8594" x="1214.583" y="107.292">Ressource-Server</text><rect fill="#E2E2F0" height="61.25" rx="2.5" ry="2.5" style="stroke:#181818;stroke-width:0.5;" width="148.2441" x="1566.6748" y="56.3438"/><text fill="#000000" font-family="sans-serif" font-size="18" font-weight="bold" lengthAdjust="spacing" textLength="134.2441" x="1573.6748" y="80.0518">PoPP-Service</text><line style="stroke:#181818;stroke-width:1.0;" x1="1566.6748" x2="1714.9189" y1="89.2969" y2="89.2969"/><text fill="#000000" font-family="monospace" font-size="14" lengthAdjust="spacing" textLength="101.1445" x="1590.2246" y="107.292">PoPP-Service</text><rect fill="#FFFFFF" height="1994.5781" style="stroke:#181818;stroke-width:1.0;" width="10" x="126.0762" y="192.8594"/><rect fill="#FFFFFF" height="1941.3125" style="stroke:#181818;stroke-width:1.0;" width="10" x="326.6387" y="246.125"/><rect fill="#FFFFFF" height="88.3672" style="stroke:#181818;stroke-width:1.0;" width="10" x="326.6387" y="2266.7031"/><rect fill="#FFFFFF" height="88.3672" style="stroke:#181818;stroke-width:1.0;" width="10" x="326.6387" y="2427.3359"/><rect fill="#FFFFFF" height="73.2344" style="stroke:#181818;stroke-width:1.0;" width="10" x="865.9565" y="803.1563"/><rect fill="#FFFFFF" height="88.3672" style="stroke:#181818;stroke-width:1.0;" width="10" x="865.9565" y="2266.7031"/><rect fill="#FFFFFF" height="1251.6484" style="stroke:#181818;stroke-width:1.0;" width="10" x="1031.623" y="935.7891"/><rect fill="#FFFFFF" height="839.6563" style="stroke:#181818;stroke-width:1.0;" width="10" x="1277.0127" y="1347.7813"/><rect fill="#FFFFFF" height="28" style="stroke:#181818;stroke-width:1.0;" width="10" x="1282.0127" y="2159.4375"/><rect fill="#FFFFFF" height="88.3672" style="stroke:#181818;stroke-width:1.0;" width="10" x="1635.7969" y="396.6563"/><rect fill="#FFFFFF" height="88.3672" style="stroke:#181818;stroke-width:1.0;" width="10" x="1635.7969" y="2427.3359"/><rect fill="#D1F2EB" height="3" style="stroke:#D1F2EB;stroke-width:1.0;" width="1719.9189" x="0" y="149.1602"/><line style="stroke:#000000;stroke-width:1.0;" x1="0" x2="1719.9189" y1="149.1602" y2="149.1602"/><line style="stroke:#000000;stroke-width:1.0;" x1="0" x2="1719.9189" y1="152.1602" y2="152.1602"/><rect fill="#D1F2EB" height="23.1328" style="stroke:#000000;stroke-width:2.0;" width="55.501" x="832.209" y="138.5938"/><text fill="#000000" font-family="sans-serif" font-size="13" font-weight="bold" lengthAdjust="spacing" textLength="36.9751" x="838.209" y="154.6606">Start</text><polygon fill="#181818" points="114.0762,188.8594,124.0762,192.8594,114.0762,196.8594,118.0762,192.8594" style="stroke:#181818;stroke-width:1.0;"/><line style="stroke:#181818;stroke-width:1.0;" x1="32.688" x2="120.0762" y1="192.8594" y2="192.8594"/><text fill="#000000" font-family="sans-serif" font-size="13" lengthAdjust="spacing" textLength="74.3882" x="39.688" y="187.7935">Anmeldung</text><path d="M66.6426,207.8594 L131.0854,207.8594 L131.0854,214.9922 L121.0854,224.9922 L66.6426,224.9922 L66.6426,207.8594 " fill="#EEEEEE" style="stroke:#000000;stroke-width:1.5;"/><rect fill="none" height="88.3984" style="stroke:#000000;stroke-width:1.5;" width="537.522" x="66.6426" y="207.8594"/><text fill="#000000" font-family="sans-serif" font-size="13" font-weight="bold" lengthAdjust="spacing" textLength="19.4429" x="81.6426" y="220.9263">alt</text><text fill="#000000" font-family="sans-serif" font-size="11" font-weight="bold" lengthAdjust="spacing" textLength="94.9556" x="146.0854" y="220.0698">[neuer Patient]</text><polygon fill="#181818" points="314.6387,242.125,324.6387,246.125,314.6387,250.125,318.6387,246.125" style="stroke:#181818;stroke-width:1.0;"/><line style="stroke:#181818;stroke-width:1.0;" x1="136.0762" x2="320.6387" y1="246.125" y2="246.125"/><text fill="#000000" font-family="sans-serif" font-size="13" lengthAdjust="spacing" textLength="127.9751" x="143.0762" y="241.0591">Patientenaufnahme</text><line style="stroke:#181818;stroke-width:1.0;" x1="336.6387" x2="378.6387" y1="275.2578" y2="275.2578"/><line style="stroke:#181818;stroke-width:1.0;" x1="378.6387" x2="378.6387" y1="275.2578" y2="288.2578"/><line style="stroke:#181818;stroke-width:1.0;" x1="337.6387" x2="378.6387" y1="288.2578" y2="288.2578"/><polygon fill="#181818" points="347.6387,284.2578,337.6387,288.2578,347.6387,292.2578,343.6387,288.2578" style="stroke:#181818;stroke-width:1.0;"/><text fill="#000000" font-family="sans-serif" font-size="13" lengthAdjust="spacing" textLength="238.5259" x="343.6387" y="270.1919">initialen Patientenstamm generieren</text><polygon fill="#181818" points="314.6387,320.3906,324.6387,324.3906,314.6387,328.3906,318.6387,324.3906" style="stroke:#181818;stroke-width:1.0;"/><line style="stroke:#181818;stroke-width:1.0;" x1="136.0762" x2="320.6387" y1="324.3906" y2="324.3906"/><text fill="#000000" font-family="sans-serif" font-size="13" lengthAdjust="spacing" textLength="166.5625" x="143.0762" y="319.3247">Patientenstamm aufrufen</text><rect fill="#D1F2EB" height="3" style="stroke:#D1F2EB;stroke-width:1.0;" width="1719.9189" x="0" y="352.957"/><line style="stroke:#000000;stroke-width:1.0;" x1="0" x2="1719.9189" y1="352.957" y2="352.957"/><line style="stroke:#000000;stroke-width:1.0;" x1="0" x2="1719.9189" y1="355.957" y2="355.957"/><rect fill="#D1F2EB" height="23.1328" style="stroke:#000000;stroke-width:2.0;" width="646.6265" x="536.6462" y="342.3906"/><text fill="#000000" font-family="sans-serif" font-size="13" font-weight="bold" lengthAdjust="spacing" textLength="628.1006" x="542.6462" y="358.4575">Versorgungskontext herstellen (nur bei erstmaliger Patientenversorgung im Quartal)</text><polygon fill="#181818" points="314.6387,392.6563,324.6387,396.6563,314.6387,400.6563,318.6387,396.6563" style="stroke:#181818;stroke-width:1.0;"/><line style="stroke:#181818;stroke-width:1.0;" x1="136.0762" x2="320.6387" y1="396.6563" y2="396.6563"/><text fill="#000000" font-family="sans-serif" font-size="13" lengthAdjust="spacing" textLength="92.9678" x="143.0762" y="391.5903">PoPP initiieren</text><rect fill="#EBF5FB" height="39.1016" style="stroke:#000000;stroke-width:1.5;" width="1715.9189" x="2" y="404.6563"/><path d="M2,404.6563 L67,404.6563 L67,411.6563 L57,421.6563 L2,421.6563 L2,404.6563 " fill="#EEEEEE" style="stroke:#000000;stroke-width:2.0;"/><text fill="#000000" font-family="sans-serif" font-size="13" font-weight="bold" lengthAdjust="spacing" textLength="20.8838" x="15" y="418.7231">ref</text><text fill="#000000" font-family="sans-serif" font-size="12" lengthAdjust="spacing" textLength="544.3301" x="587.7944" y="436.7949">Versorgungskontext mit eGK oder GesundheitsID herstellen (siehe gemSpec_PoPP_Dienst)</text><polygon fill="#181818" points="347.6387,481.0234,337.6387,485.0234,347.6387,489.0234,343.6387,485.0234" style="stroke:#181818;stroke-width:1.0;"/><line style="stroke:#181818;stroke-width:1.0;" x1="341.6387" x2="1639.7969" y1="485.0234" y2="485.0234"/><text fill="#000000" font-family="sans-serif" font-size="13" lengthAdjust="spacing" textLength="101.3276" x="353.6387" y="464.8247">PoPP-Token mit</text><text fill="#000000" font-family="sans-serif" font-size="13" lengthAdjust="spacing" textLength="236.7358" x="353.6387" y="479.9575">KVNR, IK-Nummer, OID, Zeitstempel</text><line style="stroke:#181818;stroke-width:1.0;" x1="336.6387" x2="378.6387" y1="529.2891" y2="529.2891"/><line style="stroke:#181818;stroke-width:1.0;" x1="378.6387" x2="378.6387" y1="529.2891" y2="542.2891"/><line style="stroke:#181818;stroke-width:1.0;" x1="337.6387" x2="378.6387" y1="542.2891" y2="542.2891"/><polygon fill="#181818" points="347.6387,538.2891,337.6387,542.2891,347.6387,546.2891,343.6387,542.2891" style="stroke:#181818;stroke-width:1.0;"/><text fill="#000000" font-family="sans-serif" font-size="13" lengthAdjust="spacing" textLength="143.5586" x="343.6387" y="509.0903">PoPP-Token speichern</text><text fill="#000000" font-family="sans-serif" font-size="13" lengthAdjust="spacing" textLength="179.9751" x="343.6387" y="524.2231">(bspw. im Patientenstamm)</text><line style="stroke:#181818;stroke-width:1.0;" x1="336.6387" x2="378.6387" y1="586.5547" y2="586.5547"/><line style="stroke:#181818;stroke-width:1.0;" x1="378.6387" x2="378.6387" y1="586.5547" y2="599.5547"/><line style="stroke:#181818;stroke-width:1.0;" x1="337.6387" x2="378.6387" y1="599.5547" y2="599.5547"/><polygon fill="#181818" points="347.6387,595.5547,337.6387,599.5547,347.6387,603.5547,343.6387,599.5547" style="stroke:#181818;stroke-width:1.0;"/><text fill="#000000" font-family="sans-serif" font-size="13" lengthAdjust="spacing" textLength="304.2495" x="343.6387" y="566.356">PoPP-Token dekodieren und KVNR, IK-Nummer</text><text fill="#000000" font-family="sans-serif" font-size="13" lengthAdjust="spacing" textLength="247.7109" x="343.6387" y="581.4888">(bspw. im Patientenstamm) speichern</text><rect fill="#D1F2EB" height="3" style="stroke:#D1F2EB;stroke-width:1.0;" width="1719.9189" x="0" y="628.1211"/><line style="stroke:#000000;stroke-width:1.0;" x1="0" x2="1719.9189" y1="628.1211" y2="628.1211"/><line style="stroke:#000000;stroke-width:1.0;" x1="0" x2="1719.9189" y1="631.1211" y2="631.1211"/><rect fill="#D1F2EB" height="23.1328" style="stroke:#000000;stroke-width:2.0;" width="452.4263" x="633.7463" y="617.5547"/><text fill="#000000" font-family="sans-serif" font-size="13" font-weight="bold" lengthAdjust="spacing" textLength="433.9004" x="639.7463" y="633.6216">Fachdienst VSDM 2.0 Dienstlokalisierung (alle 24 Stunden)</text><rect fill="#EBF5FB" height="39.1016" style="stroke:#000000;stroke-width:1.5;" width="1446.8525" x="271.0664" y="650.6875"/><path d="M271.0664,650.6875 L336.0664,650.6875 L336.0664,657.6875 L326.0664,667.6875 L271.0664,667.6875 L271.0664,650.6875 " fill="#EEEEEE" style="stroke:#000000;stroke-width:2.0;"/><text fill="#000000" font-family="sans-serif" font-size="13" font-weight="bold" lengthAdjust="spacing" textLength="20.8838" x="284.0664" y="664.7544">ref</text><text fill="#000000" font-family="sans-serif" font-size="12" lengthAdjust="spacing" textLength="389.6484" x="799.6685" y="682.8262">Dienstlokalisierung mit FQDN &lt;ik-nummer&gt;.vsdm2.ti-dienste.de</text><rect fill="#D1F2EB" height="3" style="stroke:#D1F2EB;stroke-width:1.0;" width="1719.9189" x="0" y="715.3555"/><line style="stroke:#000000;stroke-width:1.0;" x1="0" x2="1719.9189" y1="715.3555" y2="715.3555"/><line style="stroke:#000000;stroke-width:1.0;" x1="0" x2="1719.9189" y1="718.3555" y2="718.3555"/><rect fill="#D1F2EB" height="23.1328" style="stroke:#000000;stroke-width:2.0;" width="266.6621" x="726.6284" y="704.7891"/><text fill="#000000" font-family="sans-serif" font-size="13" font-weight="bold" lengthAdjust="spacing" textLength="248.1362" x="732.6284" y="720.856">Versichertenstammdaten abrufen</text><rect fill="#EBF5FB" height="39.1016" style="stroke:#000000;stroke-width:1.5;" width="832.936" x="271.0664" y="737.9219"/><path d="M271.0664,737.9219 L336.0664,737.9219 L336.0664,744.9219 L326.0664,754.9219 L271.0664,754.9219 L271.0664,737.9219 " fill="#EEEEEE" style="stroke:#000000;stroke-width:2.0;"/><text fill="#000000" font-family="sans-serif" font-size="13" font-weight="bold" lengthAdjust="spacing" textLength="20.8838" x="284.0664" y="751.9888">ref</text><text fill="#000000" font-family="sans-serif" font-size="12" lengthAdjust="spacing" textLength="446.5371" x="464.2659" y="770.0605">Endpunkt-Lokalisierung Fachdienst VSDM 2.0 (siehe gemSpec_Zero-Trust)</text><polygon fill="#181818" points="853.9565,799.1563,863.9565,803.1563,853.9565,807.1563,857.9565,803.1563" style="stroke:#181818;stroke-width:1.0;"/><line style="stroke:#181818;stroke-width:1.0;" x1="336.6387" x2="859.9565" y1="803.1563" y2="803.1563"/><text fill="#000000" font-family="sans-serif" font-size="13" lengthAdjust="spacing" textLength="268.7725" x="343.6387" y="798.0903">GET /auth (optionaler scope : vsdservice)</text><rect fill="#EBF5FB" height="39.1016" style="stroke:#000000;stroke-width:1.5;" width="694.1772" x="271.0664" y="811.1563"/><path d="M271.0664,811.1563 L336.0664,811.1563 L336.0664,818.1563 L326.0664,828.1563 L271.0664,828.1563 L271.0664,811.1563 " fill="#EEEEEE" style="stroke:#000000;stroke-width:2.0;"/><text fill="#000000" font-family="sans-serif" font-size="13" font-weight="bold" lengthAdjust="spacing" textLength="20.8838" x="284.0664" y="825.2231">ref</text><text fill="#000000" font-family="sans-serif" font-size="12" lengthAdjust="spacing" textLength="485.0566" x="375.6267" y="843.2949">LEI-Authentifizierung (SMC-B) und LEI-Autorisierung (siehe gemSpec_Zero-Trust)</text><polygon fill="#181818" points="347.6387,872.3906,337.6387,876.3906,347.6387,880.3906,343.6387,876.3906" style="stroke:#181818;stroke-width:1.0;"/><line style="stroke:#181818;stroke-width:1.0;" x1="341.6387" x2="869.9565" y1="876.3906" y2="876.3906"/><text fill="#000000" font-family="sans-serif" font-size="13" lengthAdjust="spacing" textLength="291.2686" x="353.6387" y="871.3247">HTTP 200 OK (Refresh-Token, Access-Token)</text><polygon fill="#181818" points="1019.623,931.7891,1029.623,935.7891,1019.623,939.7891,1023.623,935.7891" style="stroke:#181818;stroke-width:1.0;"/><line style="stroke:#181818;stroke-width:1.0;" x1="336.6387" x2="1025.623" y1="935.7891" y2="935.7891"/><text fill="#000000" font-family="sans-serif" font-size="13" lengthAdjust="spacing" textLength="208.7236" x="343.6387" y="900.4575">GET /vsdservice/v1/vsdmbundle</text><text fill="#000000" font-family="sans-serif" font-size="13" lengthAdjust="spacing" textLength="271.3369" x="343.6387" y="915.5903">HTTP-Header: Access-Token, PoPP-Token,</text><text fill="#000000" font-family="sans-serif" font-size="13" lengthAdjust="spacing" textLength="204.9531" x="343.6387" y="930.7231">If-None-Match: "&lt;etag_value&gt;"</text><line style="stroke:#181818;stroke-width:1.0;" x1="1041.623" x2="1083.623" y1="964.9219" y2="964.9219"/><line style="stroke:#181818;stroke-width:1.0;" x1="1083.623" x2="1083.623" y1="964.9219" y2="977.9219"/><line style="stroke:#181818;stroke-width:1.0;" x1="1042.623" x2="1083.623" y1="977.9219" y2="977.9219"/><polygon fill="#181818" points="1052.623,973.9219,1042.623,977.9219,1052.623,981.9219,1048.623,977.9219" style="stroke:#181818;stroke-width:1.0;"/><text fill="#000000" font-family="sans-serif" font-size="13" lengthAdjust="spacing" textLength="135.8652" x="1048.623" y="959.856">Access-Token pr&#252;fen</text><path d="M264.0664,992.9219 L328.5093,992.9219 L328.5093,1000.0547 L318.5093,1010.0547 L264.0664,1010.0547 L264.0664,992.9219 " fill="#EEEEEE" style="stroke:#000000;stroke-width:1.5;"/><rect fill="none" height="46.2656" style="stroke:#000000;stroke-width:1.5;" width="846.936" x="264.0664" y="992.9219"/><text fill="#000000" font-family="sans-serif" font-size="13" font-weight="bold" lengthAdjust="spacing" textLength="19.4429" x="279.0664" y="1005.9888">alt</text><text fill="#000000" font-family="sans-serif" font-size="11" font-weight="bold" lengthAdjust="spacing" textLength="287.6865" x="343.5093" y="1005.1323">[Access-Token nicht vorhanden oder ung&#252;ltig]</text><polygon fill="#181818" points="347.6387,1027.1875,337.6387,1031.1875,347.6387,1035.1875,343.6387,1031.1875" style="stroke:#181818;stroke-width:1.0;"/><line style="stroke:#181818;stroke-width:1.0;" x1="341.6387" x2="1030.623" y1="1031.1875" y2="1031.1875"/><text fill="#000000" font-family="sans-serif" font-size="13" lengthAdjust="spacing" textLength="153.8545" x="353.6387" y="1026.1216">HTTP 401 Unauthorized</text><line style="stroke:#181818;stroke-width:1.0;" x1="1041.623" x2="1083.623" y1="1067.3203" y2="1067.3203"/><line style="stroke:#181818;stroke-width:1.0;" x1="1083.623" x2="1083.623" y1="1067.3203" y2="1080.3203"/><line style="stroke:#181818;stroke-width:1.0;" x1="1042.623" x2="1083.623" y1="1080.3203" y2="1080.3203"/><polygon fill="#181818" points="1052.623,1076.3203,1042.623,1080.3203,1052.623,1084.3203,1048.623,1080.3203" style="stroke:#181818;stroke-width:1.0;"/><text fill="#000000" font-family="sans-serif" font-size="13" lengthAdjust="spacing" textLength="122.605" x="1048.623" y="1062.2544">PoPP-Token pr&#252;fen</text><path d="M264.0664,1095.3203 L328.5093,1095.3203 L328.5093,1102.4531 L318.5093,1112.4531 L264.0664,1112.4531 L264.0664,1095.3203 " fill="#EEEEEE" style="stroke:#000000;stroke-width:1.5;"/><rect fill="none" height="46.2656" style="stroke:#000000;stroke-width:1.5;" width="846.936" x="264.0664" y="1095.3203"/><text fill="#000000" font-family="sans-serif" font-size="13" font-weight="bold" lengthAdjust="spacing" textLength="19.4429" x="279.0664" y="1108.3872">alt</text><text fill="#000000" font-family="sans-serif" font-size="11" font-weight="bold" lengthAdjust="spacing" textLength="277.3203" x="343.5093" y="1107.5308">[PoPP-Token nicht vorhanden oder ung&#252;ltig]</text><polygon fill="#181818" points="347.6387,1129.5859,337.6387,1133.5859,347.6387,1137.5859,343.6387,1133.5859" style="stroke:#181818;stroke-width:1.0;"/><line style="stroke:#181818;stroke-width:1.0;" x1="341.6387" x2="1030.623" y1="1133.5859" y2="1133.5859"/><text fill="#000000" font-family="sans-serif" font-size="13" lengthAdjust="spacing" textLength="131.9551" x="353.6387" y="1128.52">HTTP 403 Forbidden</text><line style="stroke:#181818;stroke-width:1.0;" x1="1041.623" x2="1083.623" y1="1184.8516" y2="1184.8516"/><line style="stroke:#181818;stroke-width:1.0;" x1="1083.623" x2="1083.623" y1="1184.8516" y2="1197.8516"/><line style="stroke:#181818;stroke-width:1.0;" x1="1042.623" x2="1083.623" y1="1197.8516" y2="1197.8516"/><polygon fill="#181818" points="1052.623,1193.8516,1042.623,1197.8516,1052.623,1201.8516,1048.623,1197.8516" style="stroke:#181818;stroke-width:1.0;"/><text fill="#000000" font-family="sans-serif" font-size="13" lengthAdjust="spacing" textLength="207.2573" x="1048.623" y="1164.6528">HTTP-Method und API-Endpunkt</text><text fill="#000000" font-family="sans-serif" font-size="13" lengthAdjust="spacing" textLength="169.6538" x="1048.623" y="1179.7856">des Client-Request pr&#252;fen</text><path d="M264.0664,1212.8516 L328.5093,1212.8516 L328.5093,1219.9844 L318.5093,1229.9844 L264.0664,1229.9844 L264.0664,1212.8516 " fill="#EEEEEE" style="stroke:#000000;stroke-width:1.5;"/><rect fill="none" height="46.2656" style="stroke:#000000;stroke-width:1.5;" width="846.936" x="264.0664" y="1212.8516"/><text fill="#000000" font-family="sans-serif" font-size="13" font-weight="bold" lengthAdjust="spacing" textLength="19.4429" x="279.0664" y="1225.9185">alt</text><text fill="#000000" font-family="sans-serif" font-size="11" font-weight="bold" lengthAdjust="spacing" textLength="119.2705" x="343.5093" y="1225.062">[Request not valid]</text><polygon fill="#181818" points="347.6387,1247.1172,337.6387,1251.1172,347.6387,1255.1172,343.6387,1251.1172" style="stroke:#181818;stroke-width:1.0;"/><line style="stroke:#181818;stroke-width:1.0;" x1="341.6387" x2="1030.623" y1="1251.1172" y2="1251.1172"/><text fill="#000000" font-family="sans-serif" font-size="13" lengthAdjust="spacing" textLength="149.2334" x="353.6387" y="1246.0513">HTTP 400 Bad Request</text><polygon fill="#181818" points="1265.0127,1343.7813,1275.0127,1347.7813,1265.0127,1351.7813,1269.0127,1347.7813" style="stroke:#181818;stroke-width:1.0;"/><line style="stroke:#181818;stroke-width:1.0;" x1="1041.623" x2="1271.0127" y1="1347.7813" y2="1347.7813"/><text fill="#000000" font-family="sans-serif" font-size="13" lengthAdjust="spacing" textLength="208.7236" x="1048.623" y="1282.1841">GET /vsdservice/v1/vsdmbundle</text><text fill="#000000" font-family="sans-serif" font-size="13" lengthAdjust="spacing" textLength="201.1191" x="1048.623" y="1297.3169">HTTP-Header: X-ZTA-User-Info,</text><text fill="#000000" font-family="sans-serif" font-size="13" lengthAdjust="spacing" textLength="180.375" x="1048.623" y="1312.4497">X-ZTA-PoPP-Token-Content,</text><text fill="#000000" font-family="sans-serif" font-size="13" lengthAdjust="spacing" textLength="121.5259" x="1048.623" y="1327.5825">X-ZTA-Client-Data,</text><text fill="#000000" font-family="sans-serif" font-size="13" lengthAdjust="spacing" textLength="204.9531" x="1048.623" y="1342.7153">If-None-Match: "&lt;etag_value&gt;"</text><line style="stroke:#181818;stroke-width:1.0;" x1="1287.0127" x2="1329.0127" y1="1376.9141" y2="1376.9141"/><line style="stroke:#181818;stroke-width:1.0;" x1="1329.0127" x2="1329.0127" y1="1376.9141" y2="1389.9141"/><line style="stroke:#181818;stroke-width:1.0;" x1="1288.0127" x2="1329.0127" y1="1389.9141" y2="1389.9141"/><polygon fill="#181818" points="1298.0127,1385.9141,1288.0127,1389.9141,1298.0127,1393.9141,1294.0127,1389.9141" style="stroke:#181818;stroke-width:1.0;"/><text fill="#000000" font-family="sans-serif" font-size="13" lengthAdjust="spacing" textLength="137.5854" x="1294.0127" y="1371.8481">X-ZTA Header pr&#252;fen</text><path d="M264.0664,1404.9141 L328.5093,1404.9141 L328.5093,1412.0469 L318.5093,1422.0469 L264.0664,1422.0469 L264.0664,1404.9141 " fill="#EEEEEE" style="stroke:#000000;stroke-width:1.5;"/><rect fill="none" height="75.3984" style="stroke:#000000;stroke-width:1.5;" width="1102.376" x="264.0664" y="1404.9141"/><text fill="#000000" font-family="sans-serif" font-size="13" font-weight="bold" lengthAdjust="spacing" textLength="19.4429" x="279.0664" y="1417.981">alt</text><text fill="#000000" font-family="sans-serif" font-size="11" font-weight="bold" lengthAdjust="spacing" textLength="275.4941" x="343.5093" y="1417.1245">[Zero-Trust Access Header nicht vorhanden]</text><polygon fill="#181818" points="1052.623,1439.1797,1042.623,1443.1797,1052.623,1447.1797,1048.623,1443.1797" style="stroke:#181818;stroke-width:1.0;"/><line style="stroke:#181818;stroke-width:1.0;" x1="1046.623" x2="1276.0127" y1="1443.1797" y2="1443.1797"/><text fill="#000000" font-family="sans-serif" font-size="13" lengthAdjust="spacing" textLength="149.2334" x="1058.623" y="1438.1138">HTTP 400 Bad Request</text><polygon fill="#181818" points="347.6387,1468.3125,337.6387,1472.3125,347.6387,1476.3125,343.6387,1472.3125" style="stroke:#181818;stroke-width:1.0;"/><line style="stroke:#181818;stroke-width:1.0;" x1="341.6387" x2="1030.623" y1="1472.3125" y2="1472.3125"/><text fill="#000000" font-family="sans-serif" font-size="13" lengthAdjust="spacing" textLength="420.4814" x="353.6387" y="1467.2466">HTTP 400/500 (abh&#228;ngig, welcher header fehlt oder ung&#252;ltig ist)</text><line style="stroke:#181818;stroke-width:1.0;" x1="1287.0127" x2="1329.0127" y1="1508.4453" y2="1508.4453"/><line style="stroke:#181818;stroke-width:1.0;" x1="1329.0127" x2="1329.0127" y1="1508.4453" y2="1521.4453"/><line style="stroke:#181818;stroke-width:1.0;" x1="1288.0127" x2="1329.0127" y1="1521.4453" y2="1521.4453"/><polygon fill="#181818" points="1298.0127,1517.4453,1288.0127,1521.4453,1298.0127,1525.4453,1294.0127,1521.4453" style="stroke:#181818;stroke-width:1.0;"/><text fill="#000000" font-family="sans-serif" font-size="13" lengthAdjust="spacing" textLength="254.1411" x="1294.0127" y="1503.3794">zeitliche G&#252;ltigkeit(PoPP-Token) pr&#252;fen</text><path d="M264.0664,1536.4453 L328.5093,1536.4453 L328.5093,1543.5781 L318.5093,1553.5781 L264.0664,1553.5781 L264.0664,1536.4453 " fill="#EEEEEE" style="stroke:#000000;stroke-width:1.5;"/><rect fill="none" height="75.3984" style="stroke:#000000;stroke-width:1.5;" width="1102.376" x="264.0664" y="1536.4453"/><text fill="#000000" font-family="sans-serif" font-size="13" font-weight="bold" lengthAdjust="spacing" textLength="19.4429" x="279.0664" y="1549.5122">alt</text><text fill="#000000" font-family="sans-serif" font-size="11" font-weight="bold" lengthAdjust="spacing" textLength="337.5303" x="343.5093" y="1548.6558">[PoPP-Token ist f&#252;r das aktuelle Quartal NICHT g&#252;ltig]</text><polygon fill="#181818" points="1052.623,1570.7109,1042.623,1574.7109,1052.623,1578.7109,1048.623,1574.7109" style="stroke:#181818;stroke-width:1.0;"/><line style="stroke:#181818;stroke-width:1.0;" x1="1046.623" x2="1276.0127" y1="1574.7109" y2="1574.7109"/><text fill="#000000" font-family="sans-serif" font-size="13" lengthAdjust="spacing" textLength="131.9551" x="1058.623" y="1569.645">HTTP 403 Forbidden</text><polygon fill="#181818" points="347.6387,1599.8438,337.6387,1603.8438,347.6387,1607.8438,343.6387,1603.8438" style="stroke:#181818;stroke-width:1.0;"/><line style="stroke:#181818;stroke-width:1.0;" x1="341.6387" x2="1030.623" y1="1603.8438" y2="1603.8438"/><text fill="#000000" font-family="sans-serif" font-size="13" lengthAdjust="spacing" textLength="131.9551" x="353.6387" y="1598.7778">HTTP 403 Forbidden</text><line style="stroke:#181818;stroke-width:1.0;" x1="1287.0127" x2="1329.0127" y1="1639.9766" y2="1639.9766"/><line style="stroke:#181818;stroke-width:1.0;" x1="1329.0127" x2="1329.0127" y1="1639.9766" y2="1652.9766"/><line style="stroke:#181818;stroke-width:1.0;" x1="1288.0127" x2="1329.0127" y1="1652.9766" y2="1652.9766"/><polygon fill="#181818" points="1298.0127,1648.9766,1288.0127,1652.9766,1298.0127,1656.9766,1294.0127,1652.9766" style="stroke:#181818;stroke-width:1.0;"/><text fill="#000000" font-family="sans-serif" font-size="13" lengthAdjust="spacing" textLength="121.8052" x="1294.0127" y="1634.9106">vsd-version pr&#252;fen</text><path d="M66.6426,1667.9766 L131.0854,1667.9766 L131.0854,1675.1094 L121.0854,1685.1094 L66.6426,1685.1094 L66.6426,1667.9766 " fill="#EEEEEE" style="stroke:#000000;stroke-width:1.5;"/><rect fill="none" height="413.1953" style="stroke:#000000;stroke-width:1.5;" width="1492.1362" x="66.6426" y="1667.9766"/><text fill="#000000" font-family="sans-serif" font-size="13" font-weight="bold" lengthAdjust="spacing" textLength="19.4429" x="81.6426" y="1681.0435">alt</text><text fill="#000000" font-family="sans-serif" font-size="11" font-weight="bold" lengthAdjust="spacing" textLength="259.9072" x="146.0854" y="1680.187">[etag_value(client) == etag_value(VSDD)]</text><polygon fill="#181818" points="1052.623,1732.5078,1042.623,1736.5078,1052.623,1740.5078,1048.623,1736.5078" style="stroke:#181818;stroke-width:1.0;"/><line style="stroke:#181818;stroke-width:1.0;" x1="1046.623" x2="1276.0127" y1="1736.5078" y2="1736.5078"/><text fill="#000000" font-family="sans-serif" font-size="13" lengthAdjust="spacing" textLength="148.9541" x="1058.623" y="1701.1763">HTTP 304 Not Modified</text><text fill="#000000" font-family="sans-serif" font-size="13" lengthAdjust="spacing" textLength="145.9517" x="1058.623" y="1716.3091">ETag: "&lt;etag_value&gt;"</text><text fill="#000000" font-family="sans-serif" font-size="13" lengthAdjust="spacing" textLength="207.5493" x="1058.623" y="1731.4419">VSDM-Pn: &lt;Pr&#252;fungsnachweis&gt;</text><polygon fill="#181818" points="347.6387,1791.9063,337.6387,1795.9063,347.6387,1799.9063,343.6387,1795.9063" style="stroke:#181818;stroke-width:1.0;"/><line style="stroke:#181818;stroke-width:1.0;" x1="341.6387" x2="1030.623" y1="1795.9063" y2="1795.9063"/><text fill="#000000" font-family="sans-serif" font-size="13" lengthAdjust="spacing" textLength="148.9541" x="353.6387" y="1760.5747">HTTP 304 Not Modified</text><text fill="#000000" font-family="sans-serif" font-size="13" lengthAdjust="spacing" textLength="145.9517" x="353.6387" y="1775.7075">ETag: "&lt;etag_value&gt;"</text><text fill="#000000" font-family="sans-serif" font-size="13" lengthAdjust="spacing" textLength="207.5493" x="353.6387" y="1790.8403">VSDM-Pn: &lt;Pr&#252;fungsnachweis&gt;</text><line style="stroke:#000000;stroke-width:1.0;stroke-dasharray:2.0,2.0;" x1="66.6426" x2="1558.7788" y1="1804.9063" y2="1804.9063"/><text fill="#000000" font-family="sans-serif" font-size="11" font-weight="bold" lengthAdjust="spacing" textLength="255.707" x="71.6426" y="1815.1167">[etag_value(client) != etag_value(VSDD)]</text><line style="stroke:#181818;stroke-width:1.0;" x1="1287.0127" x2="1329.0127" y1="1839.8438" y2="1839.8438"/><line style="stroke:#181818;stroke-width:1.0;" x1="1329.0127" x2="1329.0127" y1="1839.8438" y2="1852.8438"/><line style="stroke:#181818;stroke-width:1.0;" x1="1288.0127" x2="1329.0127" y1="1852.8438" y2="1852.8438"/><polygon fill="#181818" points="1298.0127,1848.8438,1288.0127,1852.8438,1298.0127,1856.8438,1294.0127,1852.8438" style="stroke:#181818;stroke-width:1.0;"/><text fill="#000000" font-family="sans-serif" font-size="13" lengthAdjust="spacing" textLength="242.7661" x="1294.0127" y="1834.7778">lokalisiere VSD zu KVNR(PoPP-Token)</text><polygon fill="#181818" points="1052.623,1923.375,1042.623,1927.375,1052.623,1931.375,1048.623,1927.375" style="stroke:#181818;stroke-width:1.0;"/><line style="stroke:#181818;stroke-width:1.0;" x1="1046.623" x2="1276.0127" y1="1927.375" y2="1927.375"/><text fill="#000000" font-family="sans-serif" font-size="13" lengthAdjust="spacing" textLength="85.3315" x="1058.623" y="1876.9106">HTTP 200 OK</text><text fill="#000000" font-family="sans-serif" font-size="13" lengthAdjust="spacing" textLength="179.3213" x="1058.623" y="1892.0435">ETag: "&lt;new_etag_value&gt;"</text><text fill="#000000" font-family="sans-serif" font-size="13" lengthAdjust="spacing" textLength="207.5493" x="1058.623" y="1907.1763">VSDM-Pn: &lt;Pr&#252;fungsnachweis&gt;</text><text fill="#000000" font-family="sans-serif" font-size="13" lengthAdjust="spacing" textLength="83.6304" x="1058.623" y="1922.3091">VSDMBundle</text><polygon fill="#181818" points="347.6387,1997.9063,337.6387,2001.9063,347.6387,2005.9063,343.6387,2001.9063" style="stroke:#181818;stroke-width:1.0;"/><line style="stroke:#181818;stroke-width:1.0;" x1="341.6387" x2="1030.623" y1="2001.9063" y2="2001.9063"/><text fill="#000000" font-family="sans-serif" font-size="13" lengthAdjust="spacing" textLength="85.3315" x="353.6387" y="1951.4419">HTTP 200 OK</text><text fill="#000000" font-family="sans-serif" font-size="13" lengthAdjust="spacing" textLength="179.3213" x="353.6387" y="1966.5747">ETag: "&lt;new_etag_value&gt;"</text><text fill="#000000" font-family="sans-serif" font-size="13" lengthAdjust="spacing" textLength="207.5493" x="353.6387" y="1981.7075">VSDM-Pn: &lt;Pr&#252;fungsnachweis&gt;</text><text fill="#000000" font-family="sans-serif" font-size="13" lengthAdjust="spacing" textLength="83.6304" x="353.6387" y="1996.8403">VSDMBundle</text><line style="stroke:#181818;stroke-width:1.0;" x1="336.6387" x2="378.6387" y1="2031.0391" y2="2031.0391"/><line style="stroke:#181818;stroke-width:1.0;" x1="378.6387" x2="378.6387" y1="2031.0391" y2="2044.0391"/><line style="stroke:#181818;stroke-width:1.0;" x1="337.6387" x2="378.6387" y1="2044.0391" y2="2044.0391"/><polygon fill="#181818" points="347.6387,2040.0391,337.6387,2044.0391,347.6387,2048.0391,343.6387,2044.0391" style="stroke:#181818;stroke-width:1.0;"/><text fill="#000000" font-family="sans-serif" font-size="13" lengthAdjust="spacing" textLength="107.9609" x="343.6387" y="2025.9731">Aktualisiere VSD</text><polygon fill="#181818" points="147.0762,2069.1719,137.0762,2073.1719,147.0762,2077.1719,143.0762,2073.1719" style="stroke:#181818;stroke-width:1.0;"/><line style="stroke:#181818;stroke-width:1.0;" x1="141.0762" x2="325.6387" y1="2073.1719" y2="2073.1719"/><text fill="#000000" font-family="sans-serif" font-size="13" lengthAdjust="spacing" textLength="88.3911" x="153.0762" y="2068.106">Zeige VSD an</text><line style="stroke:#181818;stroke-width:1.0;" x1="336.6387" x2="378.6387" y1="2109.3047" y2="2109.3047"/><line style="stroke:#181818;stroke-width:1.0;" x1="378.6387" x2="378.6387" y1="2109.3047" y2="2122.3047"/><line style="stroke:#181818;stroke-width:1.0;" x1="337.6387" x2="378.6387" y1="2122.3047" y2="2122.3047"/><polygon fill="#181818" points="347.6387,2118.3047,337.6387,2122.3047,347.6387,2126.3047,343.6387,2122.3047" style="stroke:#181818;stroke-width:1.0;"/><text fill="#000000" font-family="sans-serif" font-size="13" lengthAdjust="spacing" textLength="198.9165" x="343.6387" y="2104.2388">Aktualisiere Pr&#252;fungsnachweis</text><line style="stroke:#181818;stroke-width:1.0;" x1="1292.0127" x2="1334.0127" y1="2151.4375" y2="2151.4375"/><line style="stroke:#181818;stroke-width:1.0;" x1="1334.0127" x2="1334.0127" y1="2151.4375" y2="2164.4375"/><line style="stroke:#181818;stroke-width:1.0;" x1="1293.0127" x2="1334.0127" y1="2164.4375" y2="2164.4375"/><polygon fill="#181818" points="1303.0127,2160.4375,1293.0127,2164.4375,1303.0127,2168.4375,1299.0127,2164.4375" style="stroke:#181818;stroke-width:1.0;"/><text fill="#000000" font-family="sans-serif" font-size="13" lengthAdjust="spacing" textLength="324.7842" x="1299.0127" y="2146.3716">write Zugriffsprotokoll(KVNR) mit Inhalt: User-Info</text><rect fill="#D1F2EB" height="3" style="stroke:#D1F2EB;stroke-width:1.0;" width="1719.9189" x="0" y="2223.0039"/><line style="stroke:#000000;stroke-width:1.0;" x1="0" x2="1719.9189" y1="2223.0039" y2="2223.0039"/><line style="stroke:#000000;stroke-width:1.0;" x1="0" x2="1719.9189" y1="2226.0039" y2="2226.0039"/><rect fill="#D1F2EB" height="23.1328" style="stroke:#000000;stroke-width:2.0;" width="511.9102" x="604.0044" y="2212.4375"/><text fill="#000000" font-family="sans-serif" font-size="13" font-weight="bold" lengthAdjust="spacing" textLength="493.3843" x="610.0044" y="2228.5044">Fehlerbehandlung HTTP 401 Unauthorized (Access-Token ung&#252;ltig)</text><polygon fill="#181818" points="853.9565,2262.7031,863.9565,2266.7031,853.9565,2270.7031,857.9565,2266.7031" style="stroke:#181818;stroke-width:1.0;"/><line style="stroke:#181818;stroke-width:1.0;" x1="336.6387" x2="859.9565" y1="2266.7031" y2="2266.7031"/><text fill="#000000" font-family="sans-serif" font-size="13" lengthAdjust="spacing" textLength="332.9155" x="343.6387" y="2261.6372">GET /auth_endpoint (optionaler scope : vsdservice)</text><rect fill="#EBF5FB" height="39.1016" style="stroke:#000000;stroke-width:1.5;" width="694.1772" x="271.0664" y="2274.7031"/><path d="M271.0664,2274.7031 L336.0664,2274.7031 L336.0664,2281.7031 L326.0664,2291.7031 L271.0664,2291.7031 L271.0664,2274.7031 " fill="#EEEEEE" style="stroke:#000000;stroke-width:2.0;"/><text fill="#000000" font-family="sans-serif" font-size="13" font-weight="bold" lengthAdjust="spacing" textLength="20.8838" x="284.0664" y="2288.77">ref</text><text fill="#000000" font-family="sans-serif" font-size="12" lengthAdjust="spacing" textLength="485.0566" x="375.6267" y="2306.8418">LEI-Authentifizierung (SMC-B) und LEI-Autorisierung (siehe gemSpec_Zero-Trust)</text><polygon fill="#181818" points="342.6387,2351.0703,332.6387,2355.0703,342.6387,2359.0703,338.6387,2355.0703" style="stroke:#181818;stroke-width:1.0;"/><line style="stroke:#181818;stroke-width:1.0;" x1="336.6387" x2="869.9565" y1="2355.0703" y2="2355.0703"/><text fill="#000000" font-family="sans-serif" font-size="13" lengthAdjust="spacing" textLength="85.3315" x="348.6387" y="2334.8716">HTTP 200 OK</text><text fill="#000000" font-family="sans-serif" font-size="13" lengthAdjust="spacing" textLength="505.3179" x="348.6387" y="2350.0044">(Refresh-Token mit scope : vsdservice, Access-Token  mit scope : vsdservice)</text><rect fill="#D1F2EB" height="3" style="stroke:#D1F2EB;stroke-width:1.0;" width="1719.9189" x="0" y="2383.6367"/><line style="stroke:#000000;stroke-width:1.0;" x1="0" x2="1719.9189" y1="2383.6367" y2="2383.6367"/><line style="stroke:#000000;stroke-width:1.0;" x1="0" x2="1719.9189" y1="2386.6367" y2="2386.6367"/><rect fill="#D1F2EB" height="23.1328" style="stroke:#000000;stroke-width:2.0;" width="668.0942" x="525.9124" y="2373.0703"/><text fill="#000000" font-family="sans-serif" font-size="13" font-weight="bold" lengthAdjust="spacing" textLength="649.5684" x="531.9124" y="2389.1372">Fehlerbehandlung HTTP 403 Forbidden (Versorgungskontext bzw. PoPP-Token ung&#252;ltig)</text><polygon fill="#181818" points="1623.7969,2423.3359,1633.7969,2427.3359,1623.7969,2431.3359,1627.7969,2427.3359" style="stroke:#181818;stroke-width:1.0;"/><line style="stroke:#181818;stroke-width:1.0;" x1="336.6387" x2="1629.7969" y1="2427.3359" y2="2427.3359"/><text fill="#000000" font-family="sans-serif" font-size="13" lengthAdjust="spacing" textLength="110.7666" x="343.6387" y="2422.27">GET /popp_token</text><rect fill="#EBF5FB" height="39.1016" style="stroke:#000000;stroke-width:1.5;" width="1715.9189" x="2" y="2435.3359"/><path d="M2,2435.3359 L67,2435.3359 L67,2442.3359 L57,2452.3359 L2,2452.3359 L2,2435.3359 " fill="#EEEEEE" style="stroke:#000000;stroke-width:2.0;"/><text fill="#000000" font-family="sans-serif" font-size="13" font-weight="bold" lengthAdjust="spacing" textLength="20.8838" x="15" y="2449.4028">ref</text><text fill="#000000" font-family="sans-serif" font-size="12" lengthAdjust="spacing" textLength="544.3301" x="587.7944" y="2467.4746">Versorgungskontext mit eGK oder GesundheitsID herstellen (siehe gemSpec_PoPP_Dienst)</text><polygon fill="#181818" points="342.6387,2511.7031,332.6387,2515.7031,342.6387,2519.7031,338.6387,2515.7031" style="stroke:#181818;stroke-width:1.0;"/><line style="stroke:#181818;stroke-width:1.0;" x1="336.6387" x2="1639.7969" y1="2515.7031" y2="2515.7031"/><text fill="#000000" font-family="sans-serif" font-size="13" lengthAdjust="spacing" textLength="101.3276" x="348.6387" y="2495.5044">PoPP-Token mit</text><text fill="#000000" font-family="sans-serif" font-size="13" lengthAdjust="spacing" textLength="236.7358" x="348.6387" y="2510.6372">KVNR, IK-Nummer, OID, Zeitstempel</text><!--SRC=[pLVRRjj647qslsAgFaG2HD-Il0Ys0STo7C6NA9OI56uAOIKEnOMeNNQvb1CN-PjyHjxyOvrTaY8fKN8Cj6ZzP0rtPkTovinim3q4NqezbbySHtCT8dmQTA_XS7SV1lXdWkB1usogs7mEZK-eOZu9K6aKiIQHn-W_I8G7VVNumq_4D1Pi4jmZZu6DLUAZQ3WEcsYfW9I1nT3eCyrHw4OclZgtqglpddlDDLDZv1fLmucOqdp28oOqz0SWbKVw1_2xitDCPvqTb_wSdKQZh_ZyyRkAlyOQvus6yqT5asBfZauJ7Tpb5lQj2PAxNMwYA2oPOrBn1_9F2dU0Qa5-r1hiA_dbQsxmOAF1TyDXtxLdwysaL-Hs3ZVQkSKubecQu2Qd-hBVpymSfl4PYJtD9rZALKbgZJX7iVuQuea34DjYJx2RLXl-8Xc0GX-L4MU_0TwmoUn2IQhvcGofVh_Ys7_jZ-tNRyutvsWlCndFk20doTHWQNf1S5F6mhHimJlm3t7iECV7C204QA1_70CNzuJWqO5JCSVG8t0PoF05OOx43Wir24peM8OePuUmH2hzGISNeM29BrWmfoGiTVi3PuSGbPtaWclEGeBnKiT26wOeK74JFJWeFAV6U7gGhh18jm6O5f5gQZfX9kdC5mtKBuJDq5pH58a2GZWOqPo5V5guZsAnr0K-Xmy9fOA5BSg6ysAhsR9h1Was9EjvaJ3pmQ5gWZIG8tFjz6odpkCvru0Nbo0DeYumfb85r9Pnhri99kOO8ELfFeXmCZBcHYbqMuwrRNs2r2btA6UaOon_5fUVRcxRqBjqRvBvtBZoljTjmvsvWfeumj3niEfvNg-gjJX2IqU2R3R7SNI_Qn9NBKzhWww7C-cbvJNyjUBIDeF5jRRYRudmF1jsmPnf6a8ven9JbfGfQPDHrk3m5M6SBaHX2xkiI7-mB4YTiidRsm_T6pZYCrTO5qzs5x4tFzpLt4slnrqFbnYieUcCa2sUB071kV2YHCnCForl8z1Kd2eHNcUfu5vLlAjBmGewxb19TwWI0uuNXcafeTpd3va5KuBJZpGFbZQ9DwmjIzuPyO57B1ZuZpy2usPQrnB3T-3YV0XxZ7v0KqQ6ngcn5SGJ6I5zfNp5AVcrYiOez6lYpksQwRJkT7DmVUQ-QLddinEb0BOae6GxHwQP5KJU-_3-4fgtw2kCWnIfRJYTJ6W2fBzQvTOe-LxEHbujcuqYwBt5WVar7vE_XCJFmiwdTyYeopkLIzgbHcdJmPxltaY1xZNJaw03ZIFKR3fQi331ayPAAktbZbDoPDMjyaqGcRs1YlbYmAU2wOJ8e4kNjvT58zLiOW5bFo3MDxH6t5yn8mZl6XPI1SpqLifSL8N77w7cKpkSgXuLIN-rVm0V1Sk6FtgMxBVvNoAH6k-76EAS26FMwpOhXOFZohV2Iik6KxBwH30xcoDv2M-b6dEFj9uCmrR_6YbiBss_Vi_D-vjgxc4CPw7XFVVMp6_gxJnQusuk4v8y9IhmjhcrJrk3bwjiT2phyMVYzZVtRdZgVgIpRa_uqi0r5HK9TS_CN1Ew-9O5rcMQFHVVgPTP09dBQn7OMo1riPAsWWKo_EQ7LcfU87RbYdBrrZAx7URxUw_fV9EDWyVlOigdRRZ7q8m96khM1ny3Sh6ADk26i8gIROhuWOPtQ8OENAIACnAKGLv9GmdiP1-8qOdRwHd0PZenoqM-_C1Dx-pT4DRQU7jIobsmFINr_R8fHWAXQtOqcYkLQ0gqD2SMM6QqbwN6J2jha6sklzn_1JVKKDUqcVWSFOBc-P1DLn59OZCQtRxemD7Qm-jaSoV-G_OnZB4kw5z-DkXbHeibntONF2Hs4QkGuzDfoyPc4Op0-z4p0ag_lh7qiZbv_-mjfQNqb41VpaB-aRRwZbcAfsbkM0RHJPfhDsu7yxsYTpRS9LF5VJ-EbDHo9iEmQVBViljcJvXfsu4bjzOpONbL7wnj9-awi2fTLzqWfdUUtR69cL2DqP1ZQ9QhsiaDbO5RS5ZwXFhtbyuHrIUId1xaFxrzKiR-pvielO8gkwZ5nNf0rHKLDfngFG6LR97TKkuINKEpvjqwVg07MscsL16GDKxwoB95YsGKZRGvMb-HcaVprNbxfIZb9rAxZEF_x8Nzt0VsOEsv_JS0]--></g></svg>