<svg xmlns="http://www.w3.org/2000/svg" xmlns:xlink="http://www.w3.org/1999/xlink" contentStyleType="text/css" height="2469px" preserveAspectRatio="none" style="width:1618px;height:2469px;background:#FFFFFF;" version="1.1" viewBox="0 0 1618 2469" width="1618px" zoomAndPan="magnify"><title>VSDM 2.0 Sequenzdiagramm "Versichertenstammdaten und Pr&#252;fungsnachweis abrufen"</title><defs/><g><text fill="#000000" font-family="sans-serif" font-size="14" font-weight="bold" lengthAdjust="spacing" textLength="699.1523" x="455.5747" y="27.9951">VSDM 2.0 Sequenzdiagramm "Versichertenstammdaten und Pr&#252;fungsnachweis abrufen"</text><rect fill="#FFFFFF" height="1981.7109" style="stroke:#181818;stroke-width:1.0;" width="10" x="126.0762" y="192.8594"/><rect fill="#FFFFFF" height="1928.4453" style="stroke:#181818;stroke-width:1.0;" width="10" x="326.6387" y="246.125"/><rect fill="#FFFFFF" height="1251.6484" style="stroke:#181818;stroke-width:1.0;" width="10" x="879.1987" y="922.9219"/><rect fill="#FFFFFF" height="839.6563" style="stroke:#181818;stroke-width:1.0;" width="10" x="1168.3955" y="1334.9141"/><rect fill="#FFFFFF" height="28" style="stroke:#181818;stroke-width:1.0;" width="10" x="1173.3955" y="2146.5703"/><rect fill="none" height="88.3984" style="stroke:#000000;stroke-width:1.5;" width="537.522" x="66.6426" y="207.8594"/><rect fill="none" height="46.2656" style="stroke:#000000;stroke-width:1.5;" width="694.5117" x="264.0664" y="980.0547"/><rect fill="none" height="46.2656" style="stroke:#000000;stroke-width:1.5;" width="694.5117" x="264.0664" y="1082.4531"/><rect fill="none" height="46.2656" style="stroke:#000000;stroke-width:1.5;" width="694.5117" x="264.0664" y="1199.9844"/><rect fill="none" height="75.3984" style="stroke:#000000;stroke-width:1.5;" width="993.7588" x="264.0664" y="1392.0469"/><rect fill="none" height="75.3984" style="stroke:#000000;stroke-width:1.5;" width="993.7588" x="264.0664" y="1523.5781"/><rect fill="none" height="413.1953" style="stroke:#000000;stroke-width:1.5;" width="1383.519" x="66.6426" y="1655.1094"/><line style="stroke:#181818;stroke-width:0.5;stroke-dasharray:5.0,5.0;" x1="32" x2="32" y1="118.5938" y2="2462.5703"/><line style="stroke:#181818;stroke-width:0.5;stroke-dasharray:5.0,5.0;" x1="130.6426" x2="130.6426" y1="118.5938" y2="2462.5703"/><line style="stroke:#181818;stroke-width:0.5;stroke-dasharray:5.0,5.0;" x1="331.0664" x2="331.0664" y1="118.5938" y2="2462.5703"/><line style="stroke:#181818;stroke-width:0.5;stroke-dasharray:5.0,5.0;" x1="718.2451" x2="718.2451" y1="118.5938" y2="2462.5703"/><line style="stroke:#181818;stroke-width:0.5;stroke-dasharray:5.0,5.0;" x1="883.8193" x2="883.8193" y1="118.5938" y2="2462.5703"/><line style="stroke:#181818;stroke-width:0.5;stroke-dasharray:5.0,5.0;" x1="1172.9658" x2="1172.9658" y1="118.5938" y2="2462.5703"/><line style="stroke:#181818;stroke-width:0.5;stroke-dasharray:5.0,5.0;" x1="1532.0576" x2="1532.0576" y1="118.5938" y2="2462.5703"/><text fill="#000000" font-family="sans-serif" font-size="14" lengthAdjust="spacing" textLength="49.376" x="5" y="115.292">Patient</text><ellipse cx="32.688" cy="50.7969" fill="#E2E2F0" rx="8" ry="8" style="stroke:#181818;stroke-width:0.5;"/><path d="M32.688,58.7969 L32.688,85.7969 M19.688,66.7969 L45.688,66.7969 M32.688,85.7969 L19.688,100.7969 M32.688,85.7969 L45.688,100.7969 " fill="none" style="stroke:#181818;stroke-width:0.5;"/><text fill="#000000" font-family="sans-serif" font-size="14" lengthAdjust="spacing" textLength="102.8672" x="76.6426" y="115.292">LEI-Mitarbeiter</text><ellipse cx="131.0762" cy="50.7969" fill="#E2E2F0" rx="8" ry="8" style="stroke:#181818;stroke-width:0.5;"/><path d="M131.0762,58.7969 L131.0762,85.7969 M118.0762,66.7969 L144.0762,66.7969 M131.0762,85.7969 L118.0762,100.7969 M131.0762,85.7969 L144.0762,100.7969 " fill="none" style="stroke:#181818;stroke-width:0.5;"/><rect fill="#E2E2F0" height="61.25" rx="2.5" ry="2.5" style="stroke:#181818;stroke-width:0.5;" width="115.1445" x="274.0664" y="56.3438"/><text fill="#000000" font-family="sans-serif" font-size="18" font-weight="bold" lengthAdjust="spacing" textLength="30.4629" x="316.4072" y="80.0518">LEI</text><line style="stroke:#181818;stroke-width:1.0;" x1="274.0664" x2="389.2109" y1="89.2969" y2="89.2969"/><text fill="#000000" font-family="monospace" font-size="14" lengthAdjust="spacing" textLength="101.1445" x="281.0664" y="107.292">Prim&#228;rsystem</text><rect fill="#E2E2F0" height="61.25" rx="2.5" ry="2.5" style="stroke:#181818;stroke-width:0.5;" width="182.5742" x="627.2451" y="56.3438"/><text fill="#000000" font-family="sans-serif" font-size="18" font-weight="bold" lengthAdjust="spacing" textLength="114.7588" x="661.1528" y="80.0518">VSD-Dienst</text><line style="stroke:#181818;stroke-width:1.0;" x1="627.2451" x2="809.8193" y1="89.2969" y2="89.2969"/><text fill="#000000" font-family="monospace" font-size="14" lengthAdjust="spacing" textLength="168.5742" x="634.2451" y="107.292">Authorization-Server</text><rect fill="#E2E2F0" height="61.25" rx="2.5" ry="2.5" style="stroke:#181818;stroke-width:0.5;" width="128.7588" x="819.8193" y="56.3438"/><text fill="#000000" font-family="sans-serif" font-size="18" font-weight="bold" lengthAdjust="spacing" textLength="114.7588" x="826.8193" y="80.0518">VSD-Dienst</text><line style="stroke:#181818;stroke-width:1.0;" x1="819.8193" x2="948.5781" y1="89.2969" y2="89.2969"/><text fill="#000000" font-family="monospace" font-size="14" lengthAdjust="spacing" textLength="84.2871" x="842.0552" y="107.292">HTTP-Proxy</text><rect fill="#E2E2F0" height="61.25" rx="2.5" ry="2.5" style="stroke:#181818;stroke-width:0.5;" width="148.8594" x="1098.9658" y="56.3438"/><text fill="#000000" font-family="sans-serif" font-size="18" font-weight="bold" lengthAdjust="spacing" textLength="114.7588" x="1116.0161" y="80.0518">VSD-Dienst</text><line style="stroke:#181818;stroke-width:1.0;" x1="1098.9658" x2="1247.8252" y1="89.2969" y2="89.2969"/><text fill="#000000" font-family="monospace" font-size="14" lengthAdjust="spacing" textLength="134.8594" x="1105.9658" y="107.292">Ressource-Server</text><rect fill="#E2E2F0" height="61.25" rx="2.5" ry="2.5" style="stroke:#181818;stroke-width:0.5;" width="148.2441" x="1458.0576" y="56.3438"/><text fill="#000000" font-family="sans-serif" font-size="18" font-weight="bold" lengthAdjust="spacing" textLength="134.2441" x="1465.0576" y="80.0518">PoPP-Service</text><line style="stroke:#181818;stroke-width:1.0;" x1="1458.0576" x2="1606.3018" y1="89.2969" y2="89.2969"/><text fill="#000000" font-family="monospace" font-size="14" lengthAdjust="spacing" textLength="101.1445" x="1481.6074" y="107.292">PoPP-Service</text><rect fill="#FFFFFF" height="1981.7109" style="stroke:#181818;stroke-width:1.0;" width="10" x="126.0762" y="192.8594"/><rect fill="#FFFFFF" height="1928.4453" style="stroke:#181818;stroke-width:1.0;" width="10" x="326.6387" y="246.125"/><rect fill="#FFFFFF" height="1251.6484" style="stroke:#181818;stroke-width:1.0;" width="10" x="879.1987" y="922.9219"/><rect fill="#FFFFFF" height="839.6563" style="stroke:#181818;stroke-width:1.0;" width="10" x="1168.3955" y="1334.9141"/><rect fill="#FFFFFF" height="28" style="stroke:#181818;stroke-width:1.0;" width="10" x="1173.3955" y="2146.5703"/><rect fill="#D1F2EB" height="3" style="stroke:#D1F2EB;stroke-width:1.0;" width="1611.3018" x="0" y="149.1602"/><line style="stroke:#000000;stroke-width:1.0;" x1="0" x2="1611.3018" y1="149.1602" y2="149.1602"/><line style="stroke:#000000;stroke-width:1.0;" x1="0" x2="1611.3018" y1="152.1602" y2="152.1602"/><rect fill="#D1F2EB" height="23.1328" style="stroke:#000000;stroke-width:2.0;" width="55.501" x="777.9004" y="138.5938"/><text fill="#000000" font-family="sans-serif" font-size="13" font-weight="bold" lengthAdjust="spacing" textLength="36.9751" x="783.9004" y="154.6606">Start</text><polygon fill="#181818" points="114.0762,188.8594,124.0762,192.8594,114.0762,196.8594,118.0762,192.8594" style="stroke:#181818;stroke-width:1.0;"/><line style="stroke:#181818;stroke-width:1.0;" x1="32.688" x2="120.0762" y1="192.8594" y2="192.8594"/><text fill="#000000" font-family="sans-serif" font-size="13" lengthAdjust="spacing" textLength="74.3882" x="39.688" y="187.7935">Anmeldung</text><path d="M66.6426,207.8594 L131.0854,207.8594 L131.0854,214.9922 L121.0854,224.9922 L66.6426,224.9922 L66.6426,207.8594 " fill="#EEEEEE" style="stroke:#000000;stroke-width:1.5;"/><rect fill="none" height="88.3984" style="stroke:#000000;stroke-width:1.5;" width="537.522" x="66.6426" y="207.8594"/><text fill="#000000" font-family="sans-serif" font-size="13" font-weight="bold" lengthAdjust="spacing" textLength="19.4429" x="81.6426" y="220.9263">alt</text><text fill="#000000" font-family="sans-serif" font-size="11" font-weight="bold" lengthAdjust="spacing" textLength="94.9556" x="146.0854" y="220.0698">[neuer Patient]</text><polygon fill="#181818" points="314.6387,242.125,324.6387,246.125,314.6387,250.125,318.6387,246.125" style="stroke:#181818;stroke-width:1.0;"/><line style="stroke:#181818;stroke-width:1.0;" x1="136.0762" x2="320.6387" y1="246.125" y2="246.125"/><text fill="#000000" font-family="sans-serif" font-size="13" lengthAdjust="spacing" textLength="127.9751" x="143.0762" y="241.0591">Patientenaufnahme</text><line style="stroke:#181818;stroke-width:1.0;" x1="336.6387" x2="378.6387" y1="275.2578" y2="275.2578"/><line style="stroke:#181818;stroke-width:1.0;" x1="378.6387" x2="378.6387" y1="275.2578" y2="288.2578"/><line style="stroke:#181818;stroke-width:1.0;" x1="337.6387" x2="378.6387" y1="288.2578" y2="288.2578"/><polygon fill="#181818" points="347.6387,284.2578,337.6387,288.2578,347.6387,292.2578,343.6387,288.2578" style="stroke:#181818;stroke-width:1.0;"/><text fill="#000000" font-family="sans-serif" font-size="13" lengthAdjust="spacing" textLength="238.5259" x="343.6387" y="270.1919">initialen Patientenstamm generieren</text><polygon fill="#181818" points="314.6387,320.3906,324.6387,324.3906,314.6387,328.3906,318.6387,324.3906" style="stroke:#181818;stroke-width:1.0;"/><line style="stroke:#181818;stroke-width:1.0;" x1="136.0762" x2="320.6387" y1="324.3906" y2="324.3906"/><text fill="#000000" font-family="sans-serif" font-size="13" lengthAdjust="spacing" textLength="166.5625" x="143.0762" y="319.3247">Patientenstamm aufrufen</text><rect fill="#D1F2EB" height="3" style="stroke:#D1F2EB;stroke-width:1.0;" width="1611.3018" x="0" y="352.957"/><line style="stroke:#000000;stroke-width:1.0;" x1="0" x2="1611.3018" y1="352.957" y2="352.957"/><line style="stroke:#000000;stroke-width:1.0;" x1="0" x2="1611.3018" y1="355.957" y2="355.957"/><rect fill="#D1F2EB" height="23.1328" style="stroke:#000000;stroke-width:2.0;" width="646.6265" x="482.3376" y="342.3906"/><text fill="#000000" font-family="sans-serif" font-size="13" font-weight="bold" lengthAdjust="spacing" textLength="628.1006" x="488.3376" y="358.4575">Versorgungskontext herstellen (nur bei erstmaliger Patientenversorgung im Quartal)</text><rect fill="#EBF5FB" height="39.1016" style="stroke:#000000;stroke-width:1.5;" width="1607.3018" x="2" y="375.5234"/><path d="M2,375.5234 L67,375.5234 L67,382.5234 L57,392.5234 L2,392.5234 L2,375.5234 " fill="#EEEEEE" style="stroke:#000000;stroke-width:2.0;"/><text fill="#000000" font-family="sans-serif" font-size="13" font-weight="bold" lengthAdjust="spacing" textLength="20.8838" x="15" y="389.5903">ref</text><text fill="#000000" font-family="sans-serif" font-size="12" lengthAdjust="spacing" textLength="550.1602" x="530.5708" y="407.6621">Versorgungskontext mit eGK oder GesundheitsID herstellen (siehe gemSpec_PoPP_Service)</text><polygon fill="#181818" points="347.6387,451.8906,337.6387,455.8906,347.6387,459.8906,343.6387,455.8906" style="stroke:#181818;stroke-width:1.0;"/><line style="stroke:#181818;stroke-width:1.0;" x1="341.6387" x2="1531.1797" y1="455.8906" y2="455.8906"/><text fill="#000000" font-family="sans-serif" font-size="13" lengthAdjust="spacing" textLength="101.3276" x="353.6387" y="435.6919">PoPP-Token mit</text><text fill="#000000" font-family="sans-serif" font-size="13" lengthAdjust="spacing" textLength="236.7358" x="353.6387" y="450.8247">KVNR, IK-Nummer, OID, Zeitstempel</text><line style="stroke:#181818;stroke-width:1.0;" x1="336.6387" x2="378.6387" y1="500.1563" y2="500.1563"/><line style="stroke:#181818;stroke-width:1.0;" x1="378.6387" x2="378.6387" y1="500.1563" y2="513.1563"/><line style="stroke:#181818;stroke-width:1.0;" x1="337.6387" x2="378.6387" y1="513.1563" y2="513.1563"/><polygon fill="#181818" points="347.6387,509.1563,337.6387,513.1563,347.6387,517.1563,343.6387,513.1563" style="stroke:#181818;stroke-width:1.0;"/><text fill="#000000" font-family="sans-serif" font-size="13" lengthAdjust="spacing" textLength="143.5586" x="343.6387" y="479.9575">PoPP-Token speichern</text><text fill="#000000" font-family="sans-serif" font-size="13" lengthAdjust="spacing" textLength="179.9751" x="343.6387" y="495.0903">(bspw. im Patientenstamm)</text><line style="stroke:#181818;stroke-width:1.0;" x1="336.6387" x2="378.6387" y1="557.4219" y2="557.4219"/><line style="stroke:#181818;stroke-width:1.0;" x1="378.6387" x2="378.6387" y1="557.4219" y2="570.4219"/><line style="stroke:#181818;stroke-width:1.0;" x1="337.6387" x2="378.6387" y1="570.4219" y2="570.4219"/><polygon fill="#181818" points="347.6387,566.4219,337.6387,570.4219,347.6387,574.4219,343.6387,570.4219" style="stroke:#181818;stroke-width:1.0;"/><text fill="#000000" font-family="sans-serif" font-size="13" lengthAdjust="spacing" textLength="304.2495" x="343.6387" y="537.2231">PoPP-Token dekodieren und KVNR, IK-Nummer</text><text fill="#000000" font-family="sans-serif" font-size="13" lengthAdjust="spacing" textLength="247.7109" x="343.6387" y="552.356">(bspw. im Patientenstamm) speichern</text><rect fill="#D1F2EB" height="3" style="stroke:#D1F2EB;stroke-width:1.0;" width="1611.3018" x="0" y="598.9883"/><line style="stroke:#000000;stroke-width:1.0;" x1="0" x2="1611.3018" y1="598.9883" y2="598.9883"/><line style="stroke:#000000;stroke-width:1.0;" x1="0" x2="1611.3018" y1="601.9883" y2="601.9883"/><rect fill="#D1F2EB" height="23.1328" style="stroke:#000000;stroke-width:2.0;" width="452.4263" x="579.4377" y="588.4219"/><text fill="#000000" font-family="sans-serif" font-size="13" font-weight="bold" lengthAdjust="spacing" textLength="433.9004" x="585.4377" y="604.4888">Fachdienst VSDM 2.0 Dienstlokalisierung (alle 24 Stunden)</text><rect fill="#EBF5FB" height="39.1016" style="stroke:#000000;stroke-width:1.5;" width="1338.2354" x="271.0664" y="621.5547"/><path d="M271.0664,621.5547 L336.0664,621.5547 L336.0664,628.5547 L326.0664,638.5547 L271.0664,638.5547 L271.0664,621.5547 " fill="#EEEEEE" style="stroke:#000000;stroke-width:2.0;"/><text fill="#000000" font-family="sans-serif" font-size="13" font-weight="bold" lengthAdjust="spacing" textLength="20.8838" x="284.0664" y="635.6216">ref</text><text fill="#000000" font-family="sans-serif" font-size="12" lengthAdjust="spacing" textLength="389.6484" x="745.3599" y="653.6934">Dienstlokalisierung mit FQDN &lt;ik-nummer&gt;.vsdm2.ti-dienste.de</text><rect fill="#D1F2EB" height="3" style="stroke:#D1F2EB;stroke-width:1.0;" width="1611.3018" x="0" y="686.2227"/><line style="stroke:#000000;stroke-width:1.0;" x1="0" x2="1611.3018" y1="686.2227" y2="686.2227"/><line style="stroke:#000000;stroke-width:1.0;" x1="0" x2="1611.3018" y1="689.2227" y2="689.2227"/><rect fill="#D1F2EB" height="23.1328" style="stroke:#000000;stroke-width:2.0;" width="266.6621" x="672.3198" y="675.6563"/><text fill="#000000" font-family="sans-serif" font-size="13" font-weight="bold" lengthAdjust="spacing" textLength="248.1362" x="678.3198" y="691.7231">Versichertenstammdaten abrufen</text><rect fill="#EBF5FB" height="39.1016" style="stroke:#000000;stroke-width:1.5;" width="680.5117" x="271.0664" y="708.7891"/><path d="M271.0664,708.7891 L336.0664,708.7891 L336.0664,715.7891 L326.0664,725.7891 L271.0664,725.7891 L271.0664,708.7891 " fill="#EEEEEE" style="stroke:#000000;stroke-width:2.0;"/><text fill="#000000" font-family="sans-serif" font-size="13" font-weight="bold" lengthAdjust="spacing" textLength="20.8838" x="284.0664" y="722.856">ref</text><text fill="#000000" font-family="sans-serif" font-size="12" lengthAdjust="spacing" textLength="446.5371" x="388.0537" y="740.9277">Endpunkt-Lokalisierung Fachdienst VSDM 2.0 (siehe gemSpec_Zero-Trust)</text><rect fill="#EBF5FB" height="39.1016" style="stroke:#000000;stroke-width:1.5;" width="541.7529" x="271.0664" y="752.8906"/><path d="M271.0664,752.8906 L336.0664,752.8906 L336.0664,759.8906 L326.0664,769.8906 L271.0664,769.8906 L271.0664,752.8906 " fill="#EEEEEE" style="stroke:#000000;stroke-width:2.0;"/><text fill="#000000" font-family="sans-serif" font-size="13" font-weight="bold" lengthAdjust="spacing" textLength="20.8838" x="284.0664" y="766.9575">ref</text><text fill="#000000" font-family="sans-serif" font-size="12" lengthAdjust="spacing" textLength="485.0566" x="299.4146" y="785.0293">LEI-Authentifizierung (SMC-B) und LEI-Autorisierung (siehe gemSpec_Zero-Trust)</text><polygon fill="#181818" points="347.6387,829.2578,337.6387,833.2578,347.6387,837.2578,343.6387,833.2578" style="stroke:#181818;stroke-width:1.0;"/><line style="stroke:#181818;stroke-width:1.0;" x1="341.6387" x2="717.5322" y1="833.2578" y2="833.2578"/><text fill="#000000" font-family="sans-serif" font-size="13" lengthAdjust="spacing" textLength="85.3315" x="353.6387" y="813.0591">HTTP 200 OK</text><text fill="#000000" font-family="sans-serif" font-size="13" lengthAdjust="spacing" textLength="357.8936" x="353.6387" y="828.1919">{Refresh-Token, Access-Token} mit scope : vsdservice</text><polygon fill="#181818" points="867.1987,918.9219,877.1987,922.9219,867.1987,926.9219,871.1987,922.9219" style="stroke:#181818;stroke-width:1.0;"/><line style="stroke:#181818;stroke-width:1.0;" x1="336.6387" x2="873.1987" y1="922.9219" y2="922.9219"/><text fill="#000000" font-family="sans-serif" font-size="13" lengthAdjust="spacing" textLength="208.7236" x="343.6387" y="857.3247">GET /vsdservice/v1/vsdmbundle</text><text fill="#000000" font-family="sans-serif" font-size="13" lengthAdjust="spacing" textLength="242.2646" x="343.6387" y="872.4575">Authorization: DPoP &lt;access_token&gt;</text><text fill="#000000" font-family="sans-serif" font-size="13" lengthAdjust="spacing" textLength="163.0713" x="343.6387" y="887.5903">DPoP: &lt;dpop_proof_jwt&gt;</text><text fill="#000000" font-family="sans-serif" font-size="13" lengthAdjust="spacing" textLength="185.4976" x="343.6387" y="902.7231">PoPP: Bearer &lt;popp_token&gt;</text><text fill="#000000" font-family="sans-serif" font-size="13" lengthAdjust="spacing" textLength="204.9531" x="343.6387" y="917.856">If-None-Match: "&lt;etag_value&gt;"</text><line style="stroke:#181818;stroke-width:1.0;" x1="889.1987" x2="931.1987" y1="952.0547" y2="952.0547"/><line style="stroke:#181818;stroke-width:1.0;" x1="931.1987" x2="931.1987" y1="952.0547" y2="965.0547"/><line style="stroke:#181818;stroke-width:1.0;" x1="890.1987" x2="931.1987" y1="965.0547" y2="965.0547"/><polygon fill="#181818" points="900.1987,961.0547,890.1987,965.0547,900.1987,969.0547,896.1987,965.0547" style="stroke:#181818;stroke-width:1.0;"/><text fill="#000000" font-family="sans-serif" font-size="13" lengthAdjust="spacing" textLength="135.8652" x="896.1987" y="946.9888">Access-Token pr&#252;fen</text><path d="M264.0664,980.0547 L328.5093,980.0547 L328.5093,987.1875 L318.5093,997.1875 L264.0664,997.1875 L264.0664,980.0547 " fill="#EEEEEE" style="stroke:#000000;stroke-width:1.5;"/><rect fill="none" height="46.2656" style="stroke:#000000;stroke-width:1.5;" width="694.5117" x="264.0664" y="980.0547"/><text fill="#000000" font-family="sans-serif" font-size="13" font-weight="bold" lengthAdjust="spacing" textLength="19.4429" x="279.0664" y="993.1216">alt</text><text fill="#000000" font-family="sans-serif" font-size="11" font-weight="bold" lengthAdjust="spacing" textLength="287.6865" x="343.5093" y="992.2651">[Access-Token nicht vorhanden oder ung&#252;ltig]</text><polygon fill="#181818" points="347.6387,1014.3203,337.6387,1018.3203,347.6387,1022.3203,343.6387,1018.3203" style="stroke:#181818;stroke-width:1.0;"/><line style="stroke:#181818;stroke-width:1.0;" x1="341.6387" x2="878.1987" y1="1018.3203" y2="1018.3203"/><text fill="#000000" font-family="sans-serif" font-size="13" lengthAdjust="spacing" textLength="153.8545" x="353.6387" y="1013.2544">HTTP 401 Unauthorized</text><line style="stroke:#181818;stroke-width:1.0;" x1="889.1987" x2="931.1987" y1="1054.4531" y2="1054.4531"/><line style="stroke:#181818;stroke-width:1.0;" x1="931.1987" x2="931.1987" y1="1054.4531" y2="1067.4531"/><line style="stroke:#181818;stroke-width:1.0;" x1="890.1987" x2="931.1987" y1="1067.4531" y2="1067.4531"/><polygon fill="#181818" points="900.1987,1063.4531,890.1987,1067.4531,900.1987,1071.4531,896.1987,1067.4531" style="stroke:#181818;stroke-width:1.0;"/><text fill="#000000" font-family="sans-serif" font-size="13" lengthAdjust="spacing" textLength="122.605" x="896.1987" y="1049.3872">PoPP-Token pr&#252;fen</text><path d="M264.0664,1082.4531 L328.5093,1082.4531 L328.5093,1089.5859 L318.5093,1099.5859 L264.0664,1099.5859 L264.0664,1082.4531 " fill="#EEEEEE" style="stroke:#000000;stroke-width:1.5;"/><rect fill="none" height="46.2656" style="stroke:#000000;stroke-width:1.5;" width="694.5117" x="264.0664" y="1082.4531"/><text fill="#000000" font-family="sans-serif" font-size="13" font-weight="bold" lengthAdjust="spacing" textLength="19.4429" x="279.0664" y="1095.52">alt</text><text fill="#000000" font-family="sans-serif" font-size="11" font-weight="bold" lengthAdjust="spacing" textLength="277.3203" x="343.5093" y="1094.6636">[PoPP-Token nicht vorhanden oder ung&#252;ltig]</text><polygon fill="#181818" points="347.6387,1116.7188,337.6387,1120.7188,347.6387,1124.7188,343.6387,1120.7188" style="stroke:#181818;stroke-width:1.0;"/><line style="stroke:#181818;stroke-width:1.0;" x1="341.6387" x2="878.1987" y1="1120.7188" y2="1120.7188"/><text fill="#000000" font-family="sans-serif" font-size="13" lengthAdjust="spacing" textLength="131.9551" x="353.6387" y="1115.6528">HTTP 403 Forbidden</text><line style="stroke:#181818;stroke-width:1.0;" x1="889.1987" x2="931.1987" y1="1171.9844" y2="1171.9844"/><line style="stroke:#181818;stroke-width:1.0;" x1="931.1987" x2="931.1987" y1="1171.9844" y2="1184.9844"/><line style="stroke:#181818;stroke-width:1.0;" x1="890.1987" x2="931.1987" y1="1184.9844" y2="1184.9844"/><polygon fill="#181818" points="900.1987,1180.9844,890.1987,1184.9844,900.1987,1188.9844,896.1987,1184.9844" style="stroke:#181818;stroke-width:1.0;"/><text fill="#000000" font-family="sans-serif" font-size="13" lengthAdjust="spacing" textLength="207.2573" x="896.1987" y="1151.7856">HTTP-Method und API-Endpunkt</text><text fill="#000000" font-family="sans-serif" font-size="13" lengthAdjust="spacing" textLength="169.6538" x="896.1987" y="1166.9185">des Client-Request pr&#252;fen</text><path d="M264.0664,1199.9844 L328.5093,1199.9844 L328.5093,1207.1172 L318.5093,1217.1172 L264.0664,1217.1172 L264.0664,1199.9844 " fill="#EEEEEE" style="stroke:#000000;stroke-width:1.5;"/><rect fill="none" height="46.2656" style="stroke:#000000;stroke-width:1.5;" width="694.5117" x="264.0664" y="1199.9844"/><text fill="#000000" font-family="sans-serif" font-size="13" font-weight="bold" lengthAdjust="spacing" textLength="19.4429" x="279.0664" y="1213.0513">alt</text><text fill="#000000" font-family="sans-serif" font-size="11" font-weight="bold" lengthAdjust="spacing" textLength="119.2705" x="343.5093" y="1212.1948">[Request not valid]</text><polygon fill="#181818" points="347.6387,1234.25,337.6387,1238.25,347.6387,1242.25,343.6387,1238.25" style="stroke:#181818;stroke-width:1.0;"/><line style="stroke:#181818;stroke-width:1.0;" x1="341.6387" x2="878.1987" y1="1238.25" y2="1238.25"/><text fill="#000000" font-family="sans-serif" font-size="13" lengthAdjust="spacing" textLength="149.2334" x="353.6387" y="1233.1841">HTTP 400 Bad Request</text><polygon fill="#181818" points="1156.3955,1330.9141,1166.3955,1334.9141,1156.3955,1338.9141,1160.3955,1334.9141" style="stroke:#181818;stroke-width:1.0;"/><line style="stroke:#181818;stroke-width:1.0;" x1="889.1987" x2="1162.3955" y1="1334.9141" y2="1334.9141"/><text fill="#000000" font-family="sans-serif" font-size="13" lengthAdjust="spacing" textLength="208.7236" x="896.1987" y="1269.3169">GET /vsdservice/v1/vsdmbundle</text><text fill="#000000" font-family="sans-serif" font-size="13" lengthAdjust="spacing" textLength="192.2388" x="896.1987" y="1284.4497">X-ZTA-User-Info &lt;user_info&gt;,</text><text fill="#000000" font-family="sans-serif" font-size="13" lengthAdjust="spacing" textLength="256.0645" x="896.1987" y="1299.5825">X-ZTA-PoPP-Token-Content &lt;content&gt;,</text><text fill="#000000" font-family="sans-serif" font-size="13" lengthAdjust="spacing" textLength="216.563" x="896.1987" y="1314.7153">X-ZTA-Client-Data &lt;client data&gt;,</text><text fill="#000000" font-family="sans-serif" font-size="13" lengthAdjust="spacing" textLength="204.9531" x="896.1987" y="1329.8481">If-None-Match: "&lt;etag_value&gt;"</text><line style="stroke:#181818;stroke-width:1.0;" x1="1178.3955" x2="1220.3955" y1="1364.0469" y2="1364.0469"/><line style="stroke:#181818;stroke-width:1.0;" x1="1220.3955" x2="1220.3955" y1="1364.0469" y2="1377.0469"/><line style="stroke:#181818;stroke-width:1.0;" x1="1179.3955" x2="1220.3955" y1="1377.0469" y2="1377.0469"/><polygon fill="#181818" points="1189.3955,1373.0469,1179.3955,1377.0469,1189.3955,1381.0469,1185.3955,1377.0469" style="stroke:#181818;stroke-width:1.0;"/><text fill="#000000" font-family="sans-serif" font-size="13" lengthAdjust="spacing" textLength="137.5854" x="1185.3955" y="1358.981">X-ZTA Header pr&#252;fen</text><path d="M264.0664,1392.0469 L328.5093,1392.0469 L328.5093,1399.1797 L318.5093,1409.1797 L264.0664,1409.1797 L264.0664,1392.0469 " fill="#EEEEEE" style="stroke:#000000;stroke-width:1.5;"/><rect fill="none" height="75.3984" style="stroke:#000000;stroke-width:1.5;" width="993.7588" x="264.0664" y="1392.0469"/><text fill="#000000" font-family="sans-serif" font-size="13" font-weight="bold" lengthAdjust="spacing" textLength="19.4429" x="279.0664" y="1405.1138">alt</text><text fill="#000000" font-family="sans-serif" font-size="11" font-weight="bold" lengthAdjust="spacing" textLength="275.4941" x="343.5093" y="1404.2573">[Zero-Trust Access Header nicht vorhanden]</text><polygon fill="#181818" points="900.1987,1426.3125,890.1987,1430.3125,900.1987,1434.3125,896.1987,1430.3125" style="stroke:#181818;stroke-width:1.0;"/><line style="stroke:#181818;stroke-width:1.0;" x1="894.1987" x2="1167.3955" y1="1430.3125" y2="1430.3125"/><text fill="#000000" font-family="sans-serif" font-size="13" lengthAdjust="spacing" textLength="149.2334" x="906.1987" y="1425.2466">HTTP 400 Bad Request</text><polygon fill="#181818" points="347.6387,1455.4453,337.6387,1459.4453,347.6387,1463.4453,343.6387,1459.4453" style="stroke:#181818;stroke-width:1.0;"/><line style="stroke:#181818;stroke-width:1.0;" x1="341.6387" x2="878.1987" y1="1459.4453" y2="1459.4453"/><text fill="#000000" font-family="sans-serif" font-size="13" lengthAdjust="spacing" textLength="420.4814" x="353.6387" y="1454.3794">HTTP 400/500 (abh&#228;ngig, welcher header fehlt oder ung&#252;ltig ist)</text><line style="stroke:#181818;stroke-width:1.0;" x1="1178.3955" x2="1220.3955" y1="1495.5781" y2="1495.5781"/><line style="stroke:#181818;stroke-width:1.0;" x1="1220.3955" x2="1220.3955" y1="1495.5781" y2="1508.5781"/><line style="stroke:#181818;stroke-width:1.0;" x1="1179.3955" x2="1220.3955" y1="1508.5781" y2="1508.5781"/><polygon fill="#181818" points="1189.3955,1504.5781,1179.3955,1508.5781,1189.3955,1512.5781,1185.3955,1508.5781" style="stroke:#181818;stroke-width:1.0;"/><text fill="#000000" font-family="sans-serif" font-size="13" lengthAdjust="spacing" textLength="254.1411" x="1185.3955" y="1490.5122">zeitliche G&#252;ltigkeit(PoPP-Token) pr&#252;fen</text><path d="M264.0664,1523.5781 L328.5093,1523.5781 L328.5093,1530.7109 L318.5093,1540.7109 L264.0664,1540.7109 L264.0664,1523.5781 " fill="#EEEEEE" style="stroke:#000000;stroke-width:1.5;"/><rect fill="none" height="75.3984" style="stroke:#000000;stroke-width:1.5;" width="993.7588" x="264.0664" y="1523.5781"/><text fill="#000000" font-family="sans-serif" font-size="13" font-weight="bold" lengthAdjust="spacing" textLength="19.4429" x="279.0664" y="1536.645">alt</text><text fill="#000000" font-family="sans-serif" font-size="11" font-weight="bold" lengthAdjust="spacing" textLength="337.5303" x="343.5093" y="1535.7886">[PoPP-Token ist f&#252;r das aktuelle Quartal NICHT g&#252;ltig]</text><polygon fill="#181818" points="900.1987,1557.8438,890.1987,1561.8438,900.1987,1565.8438,896.1987,1561.8438" style="stroke:#181818;stroke-width:1.0;"/><line style="stroke:#181818;stroke-width:1.0;" x1="894.1987" x2="1167.3955" y1="1561.8438" y2="1561.8438"/><text fill="#000000" font-family="sans-serif" font-size="13" lengthAdjust="spacing" textLength="131.9551" x="906.1987" y="1556.7778">HTTP 403 Forbidden</text><polygon fill="#181818" points="347.6387,1586.9766,337.6387,1590.9766,347.6387,1594.9766,343.6387,1590.9766" style="stroke:#181818;stroke-width:1.0;"/><line style="stroke:#181818;stroke-width:1.0;" x1="341.6387" x2="878.1987" y1="1590.9766" y2="1590.9766"/><text fill="#000000" font-family="sans-serif" font-size="13" lengthAdjust="spacing" textLength="131.9551" x="353.6387" y="1585.9106">HTTP 403 Forbidden</text><line style="stroke:#181818;stroke-width:1.0;" x1="1178.3955" x2="1220.3955" y1="1627.1094" y2="1627.1094"/><line style="stroke:#181818;stroke-width:1.0;" x1="1220.3955" x2="1220.3955" y1="1627.1094" y2="1640.1094"/><line style="stroke:#181818;stroke-width:1.0;" x1="1179.3955" x2="1220.3955" y1="1640.1094" y2="1640.1094"/><polygon fill="#181818" points="1189.3955,1636.1094,1179.3955,1640.1094,1189.3955,1644.1094,1185.3955,1640.1094" style="stroke:#181818;stroke-width:1.0;"/><text fill="#000000" font-family="sans-serif" font-size="13" lengthAdjust="spacing" textLength="121.8052" x="1185.3955" y="1622.0435">vsd-version pr&#252;fen</text><path d="M66.6426,1655.1094 L131.0854,1655.1094 L131.0854,1662.2422 L121.0854,1672.2422 L66.6426,1672.2422 L66.6426,1655.1094 " fill="#EEEEEE" style="stroke:#000000;stroke-width:1.5;"/><rect fill="none" height="413.1953" style="stroke:#000000;stroke-width:1.5;" width="1383.519" x="66.6426" y="1655.1094"/><text fill="#000000" font-family="sans-serif" font-size="13" font-weight="bold" lengthAdjust="spacing" textLength="19.4429" x="81.6426" y="1668.1763">alt</text><text fill="#000000" font-family="sans-serif" font-size="11" font-weight="bold" lengthAdjust="spacing" textLength="259.9072" x="146.0854" y="1667.3198">[etag_value(client) == etag_value(VSDD)]</text><polygon fill="#181818" points="900.1987,1719.6406,890.1987,1723.6406,900.1987,1727.6406,896.1987,1723.6406" style="stroke:#181818;stroke-width:1.0;"/><line style="stroke:#181818;stroke-width:1.0;" x1="894.1987" x2="1167.3955" y1="1723.6406" y2="1723.6406"/><text fill="#000000" font-family="sans-serif" font-size="13" lengthAdjust="spacing" textLength="148.9541" x="906.1987" y="1688.3091">HTTP 304 Not Modified</text><text fill="#000000" font-family="sans-serif" font-size="13" lengthAdjust="spacing" textLength="145.9517" x="906.1987" y="1703.4419">ETag: "&lt;etag_value&gt;"</text><text fill="#000000" font-family="sans-serif" font-size="13" lengthAdjust="spacing" textLength="207.5493" x="906.1987" y="1718.5747">VSDM-Pn: &lt;Pr&#252;fungsnachweis&gt;</text><polygon fill="#181818" points="347.6387,1779.0391,337.6387,1783.0391,347.6387,1787.0391,343.6387,1783.0391" style="stroke:#181818;stroke-width:1.0;"/><line style="stroke:#181818;stroke-width:1.0;" x1="341.6387" x2="878.1987" y1="1783.0391" y2="1783.0391"/><text fill="#000000" font-family="sans-serif" font-size="13" lengthAdjust="spacing" textLength="148.9541" x="353.6387" y="1747.7075">HTTP 304 Not Modified</text><text fill="#000000" font-family="sans-serif" font-size="13" lengthAdjust="spacing" textLength="145.9517" x="353.6387" y="1762.8403">ETag: "&lt;etag_value&gt;"</text><text fill="#000000" font-family="sans-serif" font-size="13" lengthAdjust="spacing" textLength="207.5493" x="353.6387" y="1777.9731">VSDM-Pn: &lt;Pr&#252;fungsnachweis&gt;</text><line style="stroke:#000000;stroke-width:1.0;stroke-dasharray:2.0,2.0;" x1="66.6426" x2="1450.1616" y1="1792.0391" y2="1792.0391"/><text fill="#000000" font-family="sans-serif" font-size="11" font-weight="bold" lengthAdjust="spacing" textLength="255.707" x="71.6426" y="1802.2495">[etag_value(client) != etag_value(VSDD)]</text><line style="stroke:#181818;stroke-width:1.0;" x1="1178.3955" x2="1220.3955" y1="1826.9766" y2="1826.9766"/><line style="stroke:#181818;stroke-width:1.0;" x1="1220.3955" x2="1220.3955" y1="1826.9766" y2="1839.9766"/><line style="stroke:#181818;stroke-width:1.0;" x1="1179.3955" x2="1220.3955" y1="1839.9766" y2="1839.9766"/><polygon fill="#181818" points="1189.3955,1835.9766,1179.3955,1839.9766,1189.3955,1843.9766,1185.3955,1839.9766" style="stroke:#181818;stroke-width:1.0;"/><text fill="#000000" font-family="sans-serif" font-size="13" lengthAdjust="spacing" textLength="242.7661" x="1185.3955" y="1821.9106">lokalisiere VSD zu KVNR(PoPP-Token)</text><polygon fill="#181818" points="900.1987,1910.5078,890.1987,1914.5078,900.1987,1918.5078,896.1987,1914.5078" style="stroke:#181818;stroke-width:1.0;"/><line style="stroke:#181818;stroke-width:1.0;" x1="894.1987" x2="1167.3955" y1="1914.5078" y2="1914.5078"/><text fill="#000000" font-family="sans-serif" font-size="13" lengthAdjust="spacing" textLength="85.3315" x="906.1987" y="1864.0435">HTTP 200 OK</text><text fill="#000000" font-family="sans-serif" font-size="13" lengthAdjust="spacing" textLength="179.3213" x="906.1987" y="1879.1763">ETag: "&lt;new_etag_value&gt;"</text><text fill="#000000" font-family="sans-serif" font-size="13" lengthAdjust="spacing" textLength="207.5493" x="906.1987" y="1894.3091">VSDM-Pn: &lt;Pr&#252;fungsnachweis&gt;</text><text fill="#000000" font-family="sans-serif" font-size="13" lengthAdjust="spacing" textLength="83.6304" x="906.1987" y="1909.4419">VSDMBundle</text><polygon fill="#181818" points="347.6387,1985.0391,337.6387,1989.0391,347.6387,1993.0391,343.6387,1989.0391" style="stroke:#181818;stroke-width:1.0;"/><line style="stroke:#181818;stroke-width:1.0;" x1="341.6387" x2="878.1987" y1="1989.0391" y2="1989.0391"/><text fill="#000000" font-family="sans-serif" font-size="13" lengthAdjust="spacing" textLength="85.3315" x="353.6387" y="1938.5747">HTTP 200 OK</text><text fill="#000000" font-family="sans-serif" font-size="13" lengthAdjust="spacing" textLength="179.3213" x="353.6387" y="1953.7075">ETag: "&lt;new_etag_value&gt;"</text><text fill="#000000" font-family="sans-serif" font-size="13" lengthAdjust="spacing" textLength="207.5493" x="353.6387" y="1968.8403">VSDM-Pn: &lt;Pr&#252;fungsnachweis&gt;</text><text fill="#000000" font-family="sans-serif" font-size="13" lengthAdjust="spacing" textLength="83.6304" x="353.6387" y="1983.9731">VSDMBundle</text><line style="stroke:#181818;stroke-width:1.0;" x1="336.6387" x2="378.6387" y1="2018.1719" y2="2018.1719"/><line style="stroke:#181818;stroke-width:1.0;" x1="378.6387" x2="378.6387" y1="2018.1719" y2="2031.1719"/><line style="stroke:#181818;stroke-width:1.0;" x1="337.6387" x2="378.6387" y1="2031.1719" y2="2031.1719"/><polygon fill="#181818" points="347.6387,2027.1719,337.6387,2031.1719,347.6387,2035.1719,343.6387,2031.1719" style="stroke:#181818;stroke-width:1.0;"/><text fill="#000000" font-family="sans-serif" font-size="13" lengthAdjust="spacing" textLength="107.9609" x="343.6387" y="2013.106">Aktualisiere VSD</text><polygon fill="#181818" points="147.0762,2056.3047,137.0762,2060.3047,147.0762,2064.3047,143.0762,2060.3047" style="stroke:#181818;stroke-width:1.0;"/><line style="stroke:#181818;stroke-width:1.0;" x1="141.0762" x2="325.6387" y1="2060.3047" y2="2060.3047"/><text fill="#000000" font-family="sans-serif" font-size="13" lengthAdjust="spacing" textLength="88.3911" x="153.0762" y="2055.2388">Zeige VSD an</text><line style="stroke:#181818;stroke-width:1.0;" x1="336.6387" x2="378.6387" y1="2096.4375" y2="2096.4375"/><line style="stroke:#181818;stroke-width:1.0;" x1="378.6387" x2="378.6387" y1="2096.4375" y2="2109.4375"/><line style="stroke:#181818;stroke-width:1.0;" x1="337.6387" x2="378.6387" y1="2109.4375" y2="2109.4375"/><polygon fill="#181818" points="347.6387,2105.4375,337.6387,2109.4375,347.6387,2113.4375,343.6387,2109.4375" style="stroke:#181818;stroke-width:1.0;"/><text fill="#000000" font-family="sans-serif" font-size="13" lengthAdjust="spacing" textLength="198.9165" x="343.6387" y="2091.3716">Aktualisiere Pr&#252;fungsnachweis</text><line style="stroke:#181818;stroke-width:1.0;" x1="1183.3955" x2="1225.3955" y1="2138.5703" y2="2138.5703"/><line style="stroke:#181818;stroke-width:1.0;" x1="1225.3955" x2="1225.3955" y1="2138.5703" y2="2151.5703"/><line style="stroke:#181818;stroke-width:1.0;" x1="1184.3955" x2="1225.3955" y1="2151.5703" y2="2151.5703"/><polygon fill="#181818" points="1194.3955,2147.5703,1184.3955,2151.5703,1194.3955,2155.5703,1190.3955,2151.5703" style="stroke:#181818;stroke-width:1.0;"/><text fill="#000000" font-family="sans-serif" font-size="13" lengthAdjust="spacing" textLength="324.7842" x="1190.3955" y="2133.5044">write Zugriffsprotokoll(KVNR) mit Inhalt: User-Info</text><rect fill="#D1F2EB" height="3" style="stroke:#D1F2EB;stroke-width:1.0;" width="1611.3018" x="0" y="2210.1367"/><line style="stroke:#000000;stroke-width:1.0;" x1="0" x2="1611.3018" y1="2210.1367" y2="2210.1367"/><line style="stroke:#000000;stroke-width:1.0;" x1="0" x2="1611.3018" y1="2213.1367" y2="2213.1367"/><rect fill="#D1F2EB" height="23.1328" style="stroke:#000000;stroke-width:2.0;" width="511.9102" x="549.6958" y="2199.5703"/><text fill="#000000" font-family="sans-serif" font-size="13" font-weight="bold" lengthAdjust="spacing" textLength="493.3843" x="555.6958" y="2215.6372">Fehlerbehandlung HTTP 401 Unauthorized (Access-Token ung&#252;ltig)</text><rect fill="#EBF5FB" height="39.1016" style="stroke:#000000;stroke-width:1.5;" width="541.7529" x="271.0664" y="2232.7031"/><path d="M271.0664,2232.7031 L336.0664,2232.7031 L336.0664,2239.7031 L326.0664,2249.7031 L271.0664,2249.7031 L271.0664,2232.7031 " fill="#EEEEEE" style="stroke:#000000;stroke-width:2.0;"/><text fill="#000000" font-family="sans-serif" font-size="13" font-weight="bold" lengthAdjust="spacing" textLength="20.8838" x="284.0664" y="2246.77">ref</text><text fill="#000000" font-family="sans-serif" font-size="12" lengthAdjust="spacing" textLength="485.0566" x="299.4146" y="2264.8418">LEI-Authentifizierung (SMC-B) und LEI-Autorisierung (siehe gemSpec_Zero-Trust)</text><polygon fill="#181818" points="342.6387,2309.0703,332.6387,2313.0703,342.6387,2317.0703,338.6387,2313.0703" style="stroke:#181818;stroke-width:1.0;"/><line style="stroke:#181818;stroke-width:1.0;" x1="336.6387" x2="717.5322" y1="2313.0703" y2="2313.0703"/><text fill="#000000" font-family="sans-serif" font-size="13" lengthAdjust="spacing" textLength="85.3315" x="348.6387" y="2292.8716">HTTP 200 OK</text><text fill="#000000" font-family="sans-serif" font-size="13" lengthAdjust="spacing" textLength="357.8936" x="348.6387" y="2308.0044">{Refresh-Token, Access-Token} mit scope : vsdservice</text><rect fill="#D1F2EB" height="3" style="stroke:#D1F2EB;stroke-width:1.0;" width="1611.3018" x="0" y="2341.6367"/><line style="stroke:#000000;stroke-width:1.0;" x1="0" x2="1611.3018" y1="2341.6367" y2="2341.6367"/><line style="stroke:#000000;stroke-width:1.0;" x1="0" x2="1611.3018" y1="2344.6367" y2="2344.6367"/><rect fill="#D1F2EB" height="23.1328" style="stroke:#000000;stroke-width:2.0;" width="668.0942" x="471.6038" y="2331.0703"/><text fill="#000000" font-family="sans-serif" font-size="13" font-weight="bold" lengthAdjust="spacing" textLength="649.5684" x="477.6038" y="2347.1372">Fehlerbehandlung HTTP 403 Forbidden (Versorgungskontext bzw. PoPP-Token ung&#252;ltig)</text><rect fill="#EBF5FB" height="39.1016" style="stroke:#000000;stroke-width:1.5;" width="1607.3018" x="2" y="2364.2031"/><path d="M2,2364.2031 L67,2364.2031 L67,2371.2031 L57,2381.2031 L2,2381.2031 L2,2364.2031 " fill="#EEEEEE" style="stroke:#000000;stroke-width:2.0;"/><text fill="#000000" font-family="sans-serif" font-size="13" font-weight="bold" lengthAdjust="spacing" textLength="20.8838" x="15" y="2378.27">ref</text><text fill="#000000" font-family="sans-serif" font-size="12" lengthAdjust="spacing" textLength="550.1602" x="530.5708" y="2396.3418">Versorgungskontext mit eGK oder GesundheitsID herstellen (siehe gemSpec_PoPP_Service)</text><polygon fill="#181818" points="342.6387,2440.5703,332.6387,2444.5703,342.6387,2448.5703,338.6387,2444.5703" style="stroke:#181818;stroke-width:1.0;"/><line style="stroke:#181818;stroke-width:1.0;" x1="336.6387" x2="1531.1797" y1="2444.5703" y2="2444.5703"/><text fill="#000000" font-family="sans-serif" font-size="13" lengthAdjust="spacing" textLength="101.3276" x="348.6387" y="2424.3716">PoPP-Token mit</text><text fill="#000000" font-family="sans-serif" font-size="13" lengthAdjust="spacing" textLength="236.7358" x="348.6387" y="2439.5044">KVNR, IK-Nummer, OID, Zeitstempel</text><!--SRC=[xLVRRjiu47sElcBM-r0Ri79h-sAu0P8uJOrSwiPkiSXsOT3IoE9Q8hqKvRGf-ZVzZBxbntP8oReujjC21VPb_IGFESEvd3aSXjn72AJK4_d9SJJN4SA7OUyA3dVtOOZ_f2ZkVSwcYiKnD3wWIhWNej8e4aqYdz4NfCA7WNhu7gHYcWZcXNV84s0JbGOe6ex3F2qLa3Am11e3fZaAtSZ5bsTMUddMTw-uPcg2NADgE7EcDFVud0aDWo58vPF-0VpfxBoYlSwEIpzdfz4OA1u_V5F9vqHZt6WuVzKqAPRU-3ZLuUtImhurGNAtnqqKfIMpJIf-J_v9uGvHBSYFjGO7Idxwl3HuiD7Wcz5euDgzwyraHopj76wqSuD98bFbuIQd1d8moCqSPl4PYTtDFQpagYArHfnkeZz7UEG09BRO7lQoQiCNaW4e350PSVuVu8HvitCbgUQdCgBw_OwJu6KmiQjVdQzEToytcSou82V9rB0mlI2uAMDXMhNW7mI7E76SLwzWI0ZGG1-EWOjxHF3emB68CV89N0OoV46O8x738Wq2KzgM8yhP8IoHoc3OMOfGi3GGB8mf2ONkOEZi4ABodLnmpLb4C2vqBBHXYW8LDz63Wy9trXZFDj8H5kas0DCYKarD9ymaxVcaWVg5i1cP8veYLK081oEAMSIdfVie5eKky1ZUfPGA5hKe6ywphMOTgX980oNQrixGq5ddISmruFa5I8EKSqoe126rMzBlrPnCE8P8ySV3ENfZOswSWwRbMECs3tI4nTD8paZ9cFueBZvStxIXV-5Uft5iV7dRxxNXrfn1tJd7o5aclgwTpD7oYY0RpKaolzir6QZdkRL1ryUPzBCw6I9QSM6RmV9OMxhNn5o-RRsI0hDMZEICQaLfKQOsJKPfWiCN15Ow48MjK562mR2em3fbawVNxthNqEKpLrWNZtONYHyVxchkPiVZhey5cDRmRSwi5XYMIU1C-FDKp4nZ5ATLSM6SgZ1Nfr1mBslUhKl12XnkKKbtfD94jvndXZ8feJpWzxa5KuBZzqJiXKqY06lBid3EOE0JdON1m_TmlPiPOtV0t0gFpsWEhqxTavOzAzzHEM-BlnNRIo0PZYRIt8Ut5mILBpSOA4p235fjEFOyujxitrTRkyIJSoGzAbcIqskEorf-pyz6i5VksLiSc7_nX5mcx7mKjRk6a4A8WIwpfusrEUs8DXbf1xh-NCx7SoLbCFxxJfi5WwyEd21JbBGkBSzBfNxWNak1xXNJNjY1HXSrcuuNB4hng54IQEcjurGyNusZcW2OcpkUwlLioAU2wPJwsxZOBf92gZbH05Ki98QctOQdQsO4GLh3GggGcVR9s8Wgz_0zqdngBvAwHsMXNkmVm7lYz2nvw5jYtkP_XIVMU3_226CgmQpVQrPTf8wkhPLMMZQSYjKdWjdP7CbpU2tLXFkazMGOTfAuGWhRppfiq7UNBKmrzp61qyXGctjZxbfgtsMqnjsbJ4ZobBhTt-RMFjtm_b9besDv6pyDz3_Ssz6n-vwMtRu897HJ-Xnp-Zng5yjbFjrJSrNHIDFrie_AhZp27jECbkqV849aTilFm3vpFeyhZ-HHOFPCU8FC5BIQpP9GSbWlDwr0eGJooX7LeZvA-7Rqx- -zfFrDDWaVleafdxRX3YDpGT3zRNq8C2GNwo04RhYlhEIcYE_fcexCTGFdcUAC15Nirz9GwG6o3yJbnEeqoREPJiqSiPnVuBf_-cO4ZxfxUrAgpR4z9UlRQ5ECX4tNZ5d4khLeIhGqCsIPIxqgDMPQUTziS_tv_WkufZwxefaauEWJDCz6RBgAI1ARIz4T4Fbt7xsTZZOtw2-oZr62wuB-xKU3BZ9QZZUsk-0-jIDOZJEVJbjn0o-34NWt_ec0ijKJopgRa_ThJwcCeyS4-ceMbelqPkYOyNUQvORb4Dsa-UZ4xM2-K_HKXjjqgdWG93GXq10WewXfyj-oqqfVc4ku0mN_hcT27wkFeyg_ofImAdsika5CJpKxNHCp8Rtk3Jb6PavRUw53xHukEInx1Vq_RdguDPaLCeJccWVWv9uUGXNchkUt_eoyF6klPAZwXcXNo_tVlJb_vCdvBm00]--></g></svg>