<svg xmlns="http://www.w3.org/2000/svg" xmlns:xlink="http://www.w3.org/1999/xlink" contentStyleType="text/css" height="2570px" preserveAspectRatio="none" style="width:1770px;height:2570px;background:#FFFFFF;" version="1.1" viewBox="0 0 1770 2570" width="1770px" zoomAndPan="magnify"><title>VSDM 2.0 Sequenzdiagramm "Versichertenstammdaten und Pr&#252;fungsnachweis abrufen"</title><defs/><g><text fill="#000000" font-family="sans-serif" font-size="14" font-weight="bold" lengthAdjust="spacing" textLength="699.1523" x="531.7869" y="27.9951">VSDM 2.0 Sequenzdiagramm "Versichertenstammdaten und Pr&#252;fungsnachweis abrufen"</text><rect fill="#FFFFFF" height="2024.8438" style="stroke:#181818;stroke-width:1.0;" width="10" x="126.0762" y="192.8594"/><rect fill="#FFFFFF" height="88.3672" style="stroke:#181818;stroke-width:1.0;" width="10" x="126.0762" y="2457.6016"/><rect fill="#FFFFFF" height="1971.5781" style="stroke:#181818;stroke-width:1.0;" width="10" x="326.6387" y="246.125"/><rect fill="#FFFFFF" height="88.3672" style="stroke:#181818;stroke-width:1.0;" width="10" x="326.6387" y="2296.9688"/><rect fill="#FFFFFF" height="88.3672" style="stroke:#181818;stroke-width:1.0;" width="10" x="326.6387" y="2457.6016"/><rect fill="#FFFFFF" height="73.2344" style="stroke:#181818;stroke-width:1.0;" width="10" x="865.9565" y="803.1563"/><rect fill="#FFFFFF" height="88.3672" style="stroke:#181818;stroke-width:1.0;" width="10" x="865.9565" y="2296.9688"/><rect fill="#FFFFFF" height="1251.6484" style="stroke:#181818;stroke-width:1.0;" width="10" x="1031.623" y="966.0547"/><rect fill="#FFFFFF" height="839.6563" style="stroke:#181818;stroke-width:1.0;" width="10" x="1320.8198" y="1378.0469"/><rect fill="#FFFFFF" height="28" style="stroke:#181818;stroke-width:1.0;" width="10" x="1325.8198" y="2189.7031"/><rect fill="#FFFFFF" height="88.3672" style="stroke:#181818;stroke-width:1.0;" width="10" x="1679.604" y="396.6563"/><rect fill="#FFFFFF" height="88.3672" style="stroke:#181818;stroke-width:1.0;" width="10" x="1679.604" y="2457.6016"/><rect fill="none" height="88.3984" style="stroke:#000000;stroke-width:1.5;" width="537.522" x="66.6426" y="207.8594"/><rect fill="none" height="46.2656" style="stroke:#000000;stroke-width:1.5;" width="846.936" x="264.0664" y="1023.1875"/><rect fill="none" height="46.2656" style="stroke:#000000;stroke-width:1.5;" width="846.936" x="264.0664" y="1125.5859"/><rect fill="none" height="46.2656" style="stroke:#000000;stroke-width:1.5;" width="846.936" x="264.0664" y="1243.1172"/><rect fill="none" height="75.3984" style="stroke:#000000;stroke-width:1.5;" width="1146.1831" x="264.0664" y="1435.1797"/><rect fill="none" height="75.3984" style="stroke:#000000;stroke-width:1.5;" width="1146.1831" x="264.0664" y="1566.7109"/><rect fill="none" height="413.1953" style="stroke:#000000;stroke-width:1.5;" width="1535.9434" x="66.6426" y="1698.2422"/><line style="stroke:#181818;stroke-width:0.5;stroke-dasharray:5.0,5.0;" x1="32" x2="32" y1="118.5938" y2="2563.9688"/><line style="stroke:#181818;stroke-width:0.5;stroke-dasharray:5.0,5.0;" x1="130.6426" x2="130.6426" y1="118.5938" y2="2563.9688"/><line style="stroke:#181818;stroke-width:0.5;stroke-dasharray:5.0,5.0;" x1="331.0664" x2="331.0664" y1="118.5938" y2="2563.9688"/><line style="stroke:#181818;stroke-width:0.5;stroke-dasharray:5.0,5.0;" x1="870.6694" x2="870.6694" y1="118.5938" y2="2563.9688"/><line style="stroke:#181818;stroke-width:0.5;stroke-dasharray:5.0,5.0;" x1="1036.2437" x2="1036.2437" y1="118.5938" y2="2563.9688"/><line style="stroke:#181818;stroke-width:0.5;stroke-dasharray:5.0,5.0;" x1="1325.3901" x2="1325.3901" y1="118.5938" y2="2563.9688"/><line style="stroke:#181818;stroke-width:0.5;stroke-dasharray:5.0,5.0;" x1="1684.4819" x2="1684.4819" y1="118.5938" y2="2563.9688"/><text fill="#000000" font-family="sans-serif" font-size="14" lengthAdjust="spacing" textLength="49.376" x="5" y="115.292">Patient</text><ellipse cx="32.688" cy="50.7969" fill="#E2E2F0" rx="8" ry="8" style="stroke:#181818;stroke-width:0.5;"/><path d="M32.688,58.7969 L32.688,85.7969 M19.688,66.7969 L45.688,66.7969 M32.688,85.7969 L19.688,100.7969 M32.688,85.7969 L45.688,100.7969 " fill="none" style="stroke:#181818;stroke-width:0.5;"/><text fill="#000000" font-family="sans-serif" font-size="14" lengthAdjust="spacing" textLength="102.8672" x="76.6426" y="115.292">LEI-Mitarbeiter</text><ellipse cx="131.0762" cy="50.7969" fill="#E2E2F0" rx="8" ry="8" style="stroke:#181818;stroke-width:0.5;"/><path d="M131.0762,58.7969 L131.0762,85.7969 M118.0762,66.7969 L144.0762,66.7969 M131.0762,85.7969 L118.0762,100.7969 M131.0762,85.7969 L144.0762,100.7969 " fill="none" style="stroke:#181818;stroke-width:0.5;"/><rect fill="#E2E2F0" height="61.25" rx="2.5" ry="2.5" style="stroke:#181818;stroke-width:0.5;" width="115.1445" x="274.0664" y="56.3438"/><text fill="#000000" font-family="sans-serif" font-size="18" font-weight="bold" lengthAdjust="spacing" textLength="30.4629" x="316.4072" y="80.0518">LEI</text><line style="stroke:#181818;stroke-width:1.0;" x1="274.0664" x2="389.2109" y1="89.2969" y2="89.2969"/><text fill="#000000" font-family="monospace" font-size="14" lengthAdjust="spacing" textLength="101.1445" x="281.0664" y="107.292">Prim&#228;rsystem</text><rect fill="#E2E2F0" height="61.25" rx="2.5" ry="2.5" style="stroke:#181818;stroke-width:0.5;" width="182.5742" x="779.6694" y="56.3438"/><text fill="#000000" font-family="sans-serif" font-size="18" font-weight="bold" lengthAdjust="spacing" textLength="114.7588" x="813.5771" y="80.0518">VSD-Dienst</text><line style="stroke:#181818;stroke-width:1.0;" x1="779.6694" x2="962.2437" y1="89.2969" y2="89.2969"/><text fill="#000000" font-family="monospace" font-size="14" lengthAdjust="spacing" textLength="168.5742" x="786.6694" y="107.292">Authorization-Server</text><rect fill="#E2E2F0" height="61.25" rx="2.5" ry="2.5" style="stroke:#181818;stroke-width:0.5;" width="128.7588" x="972.2437" y="56.3438"/><text fill="#000000" font-family="sans-serif" font-size="18" font-weight="bold" lengthAdjust="spacing" textLength="114.7588" x="979.2437" y="80.0518">VSD-Dienst</text><line style="stroke:#181818;stroke-width:1.0;" x1="972.2437" x2="1101.0024" y1="89.2969" y2="89.2969"/><text fill="#000000" font-family="monospace" font-size="14" lengthAdjust="spacing" textLength="84.2871" x="994.4795" y="107.292">HTTP-Proxy</text><rect fill="#E2E2F0" height="61.25" rx="2.5" ry="2.5" style="stroke:#181818;stroke-width:0.5;" width="148.8594" x="1251.3901" y="56.3438"/><text fill="#000000" font-family="sans-serif" font-size="18" font-weight="bold" lengthAdjust="spacing" textLength="114.7588" x="1268.4404" y="80.0518">VSD-Dienst</text><line style="stroke:#181818;stroke-width:1.0;" x1="1251.3901" x2="1400.2495" y1="89.2969" y2="89.2969"/><text fill="#000000" font-family="monospace" font-size="14" lengthAdjust="spacing" textLength="134.8594" x="1258.3901" y="107.292">Ressource-Server</text><rect fill="#E2E2F0" height="61.25" rx="2.5" ry="2.5" style="stroke:#181818;stroke-width:0.5;" width="148.2441" x="1610.4819" y="56.3438"/><text fill="#000000" font-family="sans-serif" font-size="18" font-weight="bold" lengthAdjust="spacing" textLength="134.2441" x="1617.4819" y="80.0518">PoPP-Service</text><line style="stroke:#181818;stroke-width:1.0;" x1="1610.4819" x2="1758.7261" y1="89.2969" y2="89.2969"/><text fill="#000000" font-family="monospace" font-size="14" lengthAdjust="spacing" textLength="101.1445" x="1634.0317" y="107.292">PoPP-Service</text><rect fill="#FFFFFF" height="2024.8438" style="stroke:#181818;stroke-width:1.0;" width="10" x="126.0762" y="192.8594"/><rect fill="#FFFFFF" height="88.3672" style="stroke:#181818;stroke-width:1.0;" width="10" x="126.0762" y="2457.6016"/><rect fill="#FFFFFF" height="1971.5781" style="stroke:#181818;stroke-width:1.0;" width="10" x="326.6387" y="246.125"/><rect fill="#FFFFFF" height="88.3672" style="stroke:#181818;stroke-width:1.0;" width="10" x="326.6387" y="2296.9688"/><rect fill="#FFFFFF" height="88.3672" style="stroke:#181818;stroke-width:1.0;" width="10" x="326.6387" y="2457.6016"/><rect fill="#FFFFFF" height="73.2344" style="stroke:#181818;stroke-width:1.0;" width="10" x="865.9565" y="803.1563"/><rect fill="#FFFFFF" height="88.3672" style="stroke:#181818;stroke-width:1.0;" width="10" x="865.9565" y="2296.9688"/><rect fill="#FFFFFF" height="1251.6484" style="stroke:#181818;stroke-width:1.0;" width="10" x="1031.623" y="966.0547"/><rect fill="#FFFFFF" height="839.6563" style="stroke:#181818;stroke-width:1.0;" width="10" x="1320.8198" y="1378.0469"/><rect fill="#FFFFFF" height="28" style="stroke:#181818;stroke-width:1.0;" width="10" x="1325.8198" y="2189.7031"/><rect fill="#FFFFFF" height="88.3672" style="stroke:#181818;stroke-width:1.0;" width="10" x="1679.604" y="396.6563"/><rect fill="#FFFFFF" height="88.3672" style="stroke:#181818;stroke-width:1.0;" width="10" x="1679.604" y="2457.6016"/><rect fill="#D1F2EB" height="3" style="stroke:#D1F2EB;stroke-width:1.0;" width="1763.7261" x="0" y="149.1602"/><line style="stroke:#000000;stroke-width:1.0;" x1="0" x2="1763.7261" y1="149.1602" y2="149.1602"/><line style="stroke:#000000;stroke-width:1.0;" x1="0" x2="1763.7261" y1="152.1602" y2="152.1602"/><rect fill="#D1F2EB" height="23.1328" style="stroke:#000000;stroke-width:2.0;" width="55.501" x="854.1125" y="138.5938"/><text fill="#000000" font-family="sans-serif" font-size="13" font-weight="bold" lengthAdjust="spacing" textLength="36.9751" x="860.1125" y="154.6606">Start</text><polygon fill="#181818" points="114.0762,188.8594,124.0762,192.8594,114.0762,196.8594,118.0762,192.8594" style="stroke:#181818;stroke-width:1.0;"/><line style="stroke:#181818;stroke-width:1.0;" x1="32.688" x2="120.0762" y1="192.8594" y2="192.8594"/><text fill="#000000" font-family="sans-serif" font-size="13" lengthAdjust="spacing" textLength="74.3882" x="39.688" y="187.7935">Anmeldung</text><path d="M66.6426,207.8594 L131.0854,207.8594 L131.0854,214.9922 L121.0854,224.9922 L66.6426,224.9922 L66.6426,207.8594 " fill="#EEEEEE" style="stroke:#000000;stroke-width:1.5;"/><rect fill="none" height="88.3984" style="stroke:#000000;stroke-width:1.5;" width="537.522" x="66.6426" y="207.8594"/><text fill="#000000" font-family="sans-serif" font-size="13" font-weight="bold" lengthAdjust="spacing" textLength="19.4429" x="81.6426" y="220.9263">alt</text><text fill="#000000" font-family="sans-serif" font-size="11" font-weight="bold" lengthAdjust="spacing" textLength="94.9556" x="146.0854" y="220.0698">[neuer Patient]</text><polygon fill="#181818" points="314.6387,242.125,324.6387,246.125,314.6387,250.125,318.6387,246.125" style="stroke:#181818;stroke-width:1.0;"/><line style="stroke:#181818;stroke-width:1.0;" x1="136.0762" x2="320.6387" y1="246.125" y2="246.125"/><text fill="#000000" font-family="sans-serif" font-size="13" lengthAdjust="spacing" textLength="127.9751" x="143.0762" y="241.0591">Patientenaufnahme</text><line style="stroke:#181818;stroke-width:1.0;" x1="336.6387" x2="378.6387" y1="275.2578" y2="275.2578"/><line style="stroke:#181818;stroke-width:1.0;" x1="378.6387" x2="378.6387" y1="275.2578" y2="288.2578"/><line style="stroke:#181818;stroke-width:1.0;" x1="337.6387" x2="378.6387" y1="288.2578" y2="288.2578"/><polygon fill="#181818" points="347.6387,284.2578,337.6387,288.2578,347.6387,292.2578,343.6387,288.2578" style="stroke:#181818;stroke-width:1.0;"/><text fill="#000000" font-family="sans-serif" font-size="13" lengthAdjust="spacing" textLength="238.5259" x="343.6387" y="270.1919">initialen Patientenstamm generieren</text><polygon fill="#181818" points="314.6387,320.3906,324.6387,324.3906,314.6387,328.3906,318.6387,324.3906" style="stroke:#181818;stroke-width:1.0;"/><line style="stroke:#181818;stroke-width:1.0;" x1="136.0762" x2="320.6387" y1="324.3906" y2="324.3906"/><text fill="#000000" font-family="sans-serif" font-size="13" lengthAdjust="spacing" textLength="166.5625" x="143.0762" y="319.3247">Patientenstamm aufrufen</text><rect fill="#D1F2EB" height="3" style="stroke:#D1F2EB;stroke-width:1.0;" width="1763.7261" x="0" y="352.957"/><line style="stroke:#000000;stroke-width:1.0;" x1="0" x2="1763.7261" y1="352.957" y2="352.957"/><line style="stroke:#000000;stroke-width:1.0;" x1="0" x2="1763.7261" y1="355.957" y2="355.957"/><rect fill="#D1F2EB" height="23.1328" style="stroke:#000000;stroke-width:2.0;" width="646.6265" x="558.5498" y="342.3906"/><text fill="#000000" font-family="sans-serif" font-size="13" font-weight="bold" lengthAdjust="spacing" textLength="628.1006" x="564.5498" y="358.4575">Versorgungskontext herstellen (nur bei erstmaliger Patientenversorgung im Quartal)</text><polygon fill="#181818" points="314.6387,392.6563,324.6387,396.6563,314.6387,400.6563,318.6387,396.6563" style="stroke:#181818;stroke-width:1.0;"/><line style="stroke:#181818;stroke-width:1.0;" x1="136.0762" x2="320.6387" y1="396.6563" y2="396.6563"/><text fill="#000000" font-family="sans-serif" font-size="13" lengthAdjust="spacing" textLength="92.9678" x="143.0762" y="391.5903">PoPP initiieren</text><rect fill="#EBF5FB" height="39.1016" style="stroke:#000000;stroke-width:1.5;" width="1759.7261" x="2" y="404.6563"/><path d="M2,404.6563 L67,404.6563 L67,411.6563 L57,421.6563 L2,421.6563 L2,404.6563 " fill="#EEEEEE" style="stroke:#000000;stroke-width:2.0;"/><text fill="#000000" font-family="sans-serif" font-size="13" font-weight="bold" lengthAdjust="spacing" textLength="20.8838" x="15" y="418.7231">ref</text><text fill="#000000" font-family="sans-serif" font-size="12" lengthAdjust="spacing" textLength="544.3301" x="609.698" y="436.7949">Versorgungskontext mit eGK oder GesundheitsID herstellen (siehe gemSpec_PoPP_Dienst)</text><polygon fill="#181818" points="347.6387,481.0234,337.6387,485.0234,347.6387,489.0234,343.6387,485.0234" style="stroke:#181818;stroke-width:1.0;"/><line style="stroke:#181818;stroke-width:1.0;" x1="341.6387" x2="1683.604" y1="485.0234" y2="485.0234"/><text fill="#000000" font-family="sans-serif" font-size="13" lengthAdjust="spacing" textLength="101.3276" x="353.6387" y="464.8247">PoPP-Token mit</text><text fill="#000000" font-family="sans-serif" font-size="13" lengthAdjust="spacing" textLength="236.7358" x="353.6387" y="479.9575">KVNR, IK-Nummer, OID, Zeitstempel</text><line style="stroke:#181818;stroke-width:1.0;" x1="336.6387" x2="378.6387" y1="529.2891" y2="529.2891"/><line style="stroke:#181818;stroke-width:1.0;" x1="378.6387" x2="378.6387" y1="529.2891" y2="542.2891"/><line style="stroke:#181818;stroke-width:1.0;" x1="337.6387" x2="378.6387" y1="542.2891" y2="542.2891"/><polygon fill="#181818" points="347.6387,538.2891,337.6387,542.2891,347.6387,546.2891,343.6387,542.2891" style="stroke:#181818;stroke-width:1.0;"/><text fill="#000000" font-family="sans-serif" font-size="13" lengthAdjust="spacing" textLength="143.5586" x="343.6387" y="509.0903">PoPP-Token speichern</text><text fill="#000000" font-family="sans-serif" font-size="13" lengthAdjust="spacing" textLength="179.9751" x="343.6387" y="524.2231">(bspw. im Patientenstamm)</text><line style="stroke:#181818;stroke-width:1.0;" x1="336.6387" x2="378.6387" y1="586.5547" y2="586.5547"/><line style="stroke:#181818;stroke-width:1.0;" x1="378.6387" x2="378.6387" y1="586.5547" y2="599.5547"/><line style="stroke:#181818;stroke-width:1.0;" x1="337.6387" x2="378.6387" y1="599.5547" y2="599.5547"/><polygon fill="#181818" points="347.6387,595.5547,337.6387,599.5547,347.6387,603.5547,343.6387,599.5547" style="stroke:#181818;stroke-width:1.0;"/><text fill="#000000" font-family="sans-serif" font-size="13" lengthAdjust="spacing" textLength="304.2495" x="343.6387" y="566.356">PoPP-Token dekodieren und KVNR, IK-Nummer</text><text fill="#000000" font-family="sans-serif" font-size="13" lengthAdjust="spacing" textLength="247.7109" x="343.6387" y="581.4888">(bspw. im Patientenstamm) speichern</text><rect fill="#D1F2EB" height="3" style="stroke:#D1F2EB;stroke-width:1.0;" width="1763.7261" x="0" y="628.1211"/><line style="stroke:#000000;stroke-width:1.0;" x1="0" x2="1763.7261" y1="628.1211" y2="628.1211"/><line style="stroke:#000000;stroke-width:1.0;" x1="0" x2="1763.7261" y1="631.1211" y2="631.1211"/><rect fill="#D1F2EB" height="23.1328" style="stroke:#000000;stroke-width:2.0;" width="452.4263" x="655.6499" y="617.5547"/><text fill="#000000" font-family="sans-serif" font-size="13" font-weight="bold" lengthAdjust="spacing" textLength="433.9004" x="661.6499" y="633.6216">Fachdienst VSDM 2.0 Dienstlokalisierung (alle 24 Stunden)</text><rect fill="#EBF5FB" height="39.1016" style="stroke:#000000;stroke-width:1.5;" width="1490.6597" x="271.0664" y="650.6875"/><path d="M271.0664,650.6875 L336.0664,650.6875 L336.0664,657.6875 L326.0664,667.6875 L271.0664,667.6875 L271.0664,650.6875 " fill="#EEEEEE" style="stroke:#000000;stroke-width:2.0;"/><text fill="#000000" font-family="sans-serif" font-size="13" font-weight="bold" lengthAdjust="spacing" textLength="20.8838" x="284.0664" y="664.7544">ref</text><text fill="#000000" font-family="sans-serif" font-size="12" lengthAdjust="spacing" textLength="389.6484" x="821.572" y="682.8262">Dienstlokalisierung mit FQDN &lt;ik-nummer&gt;.vsdm2.ti-dienste.de</text><rect fill="#D1F2EB" height="3" style="stroke:#D1F2EB;stroke-width:1.0;" width="1763.7261" x="0" y="715.3555"/><line style="stroke:#000000;stroke-width:1.0;" x1="0" x2="1763.7261" y1="715.3555" y2="715.3555"/><line style="stroke:#000000;stroke-width:1.0;" x1="0" x2="1763.7261" y1="718.3555" y2="718.3555"/><rect fill="#D1F2EB" height="23.1328" style="stroke:#000000;stroke-width:2.0;" width="266.6621" x="748.532" y="704.7891"/><text fill="#000000" font-family="sans-serif" font-size="13" font-weight="bold" lengthAdjust="spacing" textLength="248.1362" x="754.532" y="720.856">Versichertenstammdaten abrufen</text><rect fill="#EBF5FB" height="39.1016" style="stroke:#000000;stroke-width:1.5;" width="832.936" x="271.0664" y="737.9219"/><path d="M271.0664,737.9219 L336.0664,737.9219 L336.0664,744.9219 L326.0664,754.9219 L271.0664,754.9219 L271.0664,737.9219 " fill="#EEEEEE" style="stroke:#000000;stroke-width:2.0;"/><text fill="#000000" font-family="sans-serif" font-size="13" font-weight="bold" lengthAdjust="spacing" textLength="20.8838" x="284.0664" y="751.9888">ref</text><text fill="#000000" font-family="sans-serif" font-size="12" lengthAdjust="spacing" textLength="446.5371" x="464.2659" y="770.0605">Endpunkt-Lokalisierung Fachdienst VSDM 2.0 (siehe gemSpec_Zero-Trust)</text><polygon fill="#181818" points="853.9565,799.1563,863.9565,803.1563,853.9565,807.1563,857.9565,803.1563" style="stroke:#181818;stroke-width:1.0;"/><line style="stroke:#181818;stroke-width:1.0;" x1="336.6387" x2="859.9565" y1="803.1563" y2="803.1563"/><text fill="#000000" font-family="sans-serif" font-size="13" lengthAdjust="spacing" textLength="141.2354" x="343.6387" y="798.0903">get new access token</text><rect fill="#EBF5FB" height="39.1016" style="stroke:#000000;stroke-width:1.5;" width="694.1772" x="271.0664" y="811.1563"/><path d="M271.0664,811.1563 L336.0664,811.1563 L336.0664,818.1563 L326.0664,828.1563 L271.0664,828.1563 L271.0664,811.1563 " fill="#EEEEEE" style="stroke:#000000;stroke-width:2.0;"/><text fill="#000000" font-family="sans-serif" font-size="13" font-weight="bold" lengthAdjust="spacing" textLength="20.8838" x="284.0664" y="825.2231">ref</text><text fill="#000000" font-family="sans-serif" font-size="12" lengthAdjust="spacing" textLength="485.0566" x="375.6267" y="843.2949">LEI-Authentifizierung (SMC-B) und LEI-Autorisierung (siehe gemSpec_Zero-Trust)</text><polygon fill="#181818" points="347.6387,872.3906,337.6387,876.3906,347.6387,880.3906,343.6387,876.3906" style="stroke:#181818;stroke-width:1.0;"/><line style="stroke:#181818;stroke-width:1.0;" x1="341.6387" x2="869.9565" y1="876.3906" y2="876.3906"/><text fill="#000000" font-family="sans-serif" font-size="13" lengthAdjust="spacing" textLength="291.2686" x="353.6387" y="871.3247">HTTP 200 OK (Refresh-Token, Access-Token)</text><polygon fill="#181818" points="1019.623,962.0547,1029.623,966.0547,1019.623,970.0547,1023.623,966.0547" style="stroke:#181818;stroke-width:1.0;"/><line style="stroke:#181818;stroke-width:1.0;" x1="336.6387" x2="1025.623" y1="966.0547" y2="966.0547"/><text fill="#000000" font-family="sans-serif" font-size="13" lengthAdjust="spacing" textLength="208.7236" x="343.6387" y="900.4575">GET /vsdservice/v1/vsdmbundle</text><text fill="#000000" font-family="sans-serif" font-size="13" lengthAdjust="spacing" textLength="242.2646" x="343.6387" y="915.5903">Authorization: DPoP &lt;access_token&gt;</text><text fill="#000000" font-family="sans-serif" font-size="13" lengthAdjust="spacing" textLength="163.0713" x="343.6387" y="930.7231">DPoP: &lt;dpop_proof_jwt&gt;</text><text fill="#000000" font-family="sans-serif" font-size="13" lengthAdjust="spacing" textLength="185.4976" x="343.6387" y="945.856">PoPP: Bearer &lt;popp_token&gt;</text><text fill="#000000" font-family="sans-serif" font-size="13" lengthAdjust="spacing" textLength="204.9531" x="343.6387" y="960.9888">If-None-Match: "&lt;etag_value&gt;"</text><line style="stroke:#181818;stroke-width:1.0;" x1="1041.623" x2="1083.623" y1="995.1875" y2="995.1875"/><line style="stroke:#181818;stroke-width:1.0;" x1="1083.623" x2="1083.623" y1="995.1875" y2="1008.1875"/><line style="stroke:#181818;stroke-width:1.0;" x1="1042.623" x2="1083.623" y1="1008.1875" y2="1008.1875"/><polygon fill="#181818" points="1052.623,1004.1875,1042.623,1008.1875,1052.623,1012.1875,1048.623,1008.1875" style="stroke:#181818;stroke-width:1.0;"/><text fill="#000000" font-family="sans-serif" font-size="13" lengthAdjust="spacing" textLength="135.8652" x="1048.623" y="990.1216">Access-Token pr&#252;fen</text><path d="M264.0664,1023.1875 L328.5093,1023.1875 L328.5093,1030.3203 L318.5093,1040.3203 L264.0664,1040.3203 L264.0664,1023.1875 " fill="#EEEEEE" style="stroke:#000000;stroke-width:1.5;"/><rect fill="none" height="46.2656" style="stroke:#000000;stroke-width:1.5;" width="846.936" x="264.0664" y="1023.1875"/><text fill="#000000" font-family="sans-serif" font-size="13" font-weight="bold" lengthAdjust="spacing" textLength="19.4429" x="279.0664" y="1036.2544">alt</text><text fill="#000000" font-family="sans-serif" font-size="11" font-weight="bold" lengthAdjust="spacing" textLength="287.6865" x="343.5093" y="1035.3979">[Access-Token nicht vorhanden oder ung&#252;ltig]</text><polygon fill="#181818" points="347.6387,1057.4531,337.6387,1061.4531,347.6387,1065.4531,343.6387,1061.4531" style="stroke:#181818;stroke-width:1.0;"/><line style="stroke:#181818;stroke-width:1.0;" x1="341.6387" x2="1030.623" y1="1061.4531" y2="1061.4531"/><text fill="#000000" font-family="sans-serif" font-size="13" lengthAdjust="spacing" textLength="153.8545" x="353.6387" y="1056.3872">HTTP 401 Unauthorized</text><line style="stroke:#181818;stroke-width:1.0;" x1="1041.623" x2="1083.623" y1="1097.5859" y2="1097.5859"/><line style="stroke:#181818;stroke-width:1.0;" x1="1083.623" x2="1083.623" y1="1097.5859" y2="1110.5859"/><line style="stroke:#181818;stroke-width:1.0;" x1="1042.623" x2="1083.623" y1="1110.5859" y2="1110.5859"/><polygon fill="#181818" points="1052.623,1106.5859,1042.623,1110.5859,1052.623,1114.5859,1048.623,1110.5859" style="stroke:#181818;stroke-width:1.0;"/><text fill="#000000" font-family="sans-serif" font-size="13" lengthAdjust="spacing" textLength="122.605" x="1048.623" y="1092.52">PoPP-Token pr&#252;fen</text><path d="M264.0664,1125.5859 L328.5093,1125.5859 L328.5093,1132.7188 L318.5093,1142.7188 L264.0664,1142.7188 L264.0664,1125.5859 " fill="#EEEEEE" style="stroke:#000000;stroke-width:1.5;"/><rect fill="none" height="46.2656" style="stroke:#000000;stroke-width:1.5;" width="846.936" x="264.0664" y="1125.5859"/><text fill="#000000" font-family="sans-serif" font-size="13" font-weight="bold" lengthAdjust="spacing" textLength="19.4429" x="279.0664" y="1138.6528">alt</text><text fill="#000000" font-family="sans-serif" font-size="11" font-weight="bold" lengthAdjust="spacing" textLength="277.3203" x="343.5093" y="1137.7964">[PoPP-Token nicht vorhanden oder ung&#252;ltig]</text><polygon fill="#181818" points="347.6387,1159.8516,337.6387,1163.8516,347.6387,1167.8516,343.6387,1163.8516" style="stroke:#181818;stroke-width:1.0;"/><line style="stroke:#181818;stroke-width:1.0;" x1="341.6387" x2="1030.623" y1="1163.8516" y2="1163.8516"/><text fill="#000000" font-family="sans-serif" font-size="13" lengthAdjust="spacing" textLength="131.9551" x="353.6387" y="1158.7856">HTTP 403 Forbidden</text><line style="stroke:#181818;stroke-width:1.0;" x1="1041.623" x2="1083.623" y1="1215.1172" y2="1215.1172"/><line style="stroke:#181818;stroke-width:1.0;" x1="1083.623" x2="1083.623" y1="1215.1172" y2="1228.1172"/><line style="stroke:#181818;stroke-width:1.0;" x1="1042.623" x2="1083.623" y1="1228.1172" y2="1228.1172"/><polygon fill="#181818" points="1052.623,1224.1172,1042.623,1228.1172,1052.623,1232.1172,1048.623,1228.1172" style="stroke:#181818;stroke-width:1.0;"/><text fill="#000000" font-family="sans-serif" font-size="13" lengthAdjust="spacing" textLength="207.2573" x="1048.623" y="1194.9185">HTTP-Method und API-Endpunkt</text><text fill="#000000" font-family="sans-serif" font-size="13" lengthAdjust="spacing" textLength="169.6538" x="1048.623" y="1210.0513">des Client-Request pr&#252;fen</text><path d="M264.0664,1243.1172 L328.5093,1243.1172 L328.5093,1250.25 L318.5093,1260.25 L264.0664,1260.25 L264.0664,1243.1172 " fill="#EEEEEE" style="stroke:#000000;stroke-width:1.5;"/><rect fill="none" height="46.2656" style="stroke:#000000;stroke-width:1.5;" width="846.936" x="264.0664" y="1243.1172"/><text fill="#000000" font-family="sans-serif" font-size="13" font-weight="bold" lengthAdjust="spacing" textLength="19.4429" x="279.0664" y="1256.1841">alt</text><text fill="#000000" font-family="sans-serif" font-size="11" font-weight="bold" lengthAdjust="spacing" textLength="119.2705" x="343.5093" y="1255.3276">[Request not valid]</text><polygon fill="#181818" points="347.6387,1277.3828,337.6387,1281.3828,347.6387,1285.3828,343.6387,1281.3828" style="stroke:#181818;stroke-width:1.0;"/><line style="stroke:#181818;stroke-width:1.0;" x1="341.6387" x2="1030.623" y1="1281.3828" y2="1281.3828"/><text fill="#000000" font-family="sans-serif" font-size="13" lengthAdjust="spacing" textLength="149.2334" x="353.6387" y="1276.3169">HTTP 400 Bad Request</text><polygon fill="#181818" points="1308.8198,1374.0469,1318.8198,1378.0469,1308.8198,1382.0469,1312.8198,1378.0469" style="stroke:#181818;stroke-width:1.0;"/><line style="stroke:#181818;stroke-width:1.0;" x1="1041.623" x2="1314.8198" y1="1378.0469" y2="1378.0469"/><text fill="#000000" font-family="sans-serif" font-size="13" lengthAdjust="spacing" textLength="208.7236" x="1048.623" y="1312.4497">GET /vsdservice/v1/vsdmbundle</text><text fill="#000000" font-family="sans-serif" font-size="13" lengthAdjust="spacing" textLength="192.2388" x="1048.623" y="1327.5825">X-ZTA-User-Info &lt;user_info&gt;,</text><text fill="#000000" font-family="sans-serif" font-size="13" lengthAdjust="spacing" textLength="256.0645" x="1048.623" y="1342.7153">X-ZTA-PoPP-Token-Content &lt;content&gt;,</text><text fill="#000000" font-family="sans-serif" font-size="13" lengthAdjust="spacing" textLength="216.563" x="1048.623" y="1357.8481">X-ZTA-Client-Data &lt;client data&gt;,</text><text fill="#000000" font-family="sans-serif" font-size="13" lengthAdjust="spacing" textLength="204.9531" x="1048.623" y="1372.981">If-None-Match: "&lt;etag_value&gt;"</text><line style="stroke:#181818;stroke-width:1.0;" x1="1330.8198" x2="1372.8198" y1="1407.1797" y2="1407.1797"/><line style="stroke:#181818;stroke-width:1.0;" x1="1372.8198" x2="1372.8198" y1="1407.1797" y2="1420.1797"/><line style="stroke:#181818;stroke-width:1.0;" x1="1331.8198" x2="1372.8198" y1="1420.1797" y2="1420.1797"/><polygon fill="#181818" points="1341.8198,1416.1797,1331.8198,1420.1797,1341.8198,1424.1797,1337.8198,1420.1797" style="stroke:#181818;stroke-width:1.0;"/><text fill="#000000" font-family="sans-serif" font-size="13" lengthAdjust="spacing" textLength="137.5854" x="1337.8198" y="1402.1138">X-ZTA Header pr&#252;fen</text><path d="M264.0664,1435.1797 L328.5093,1435.1797 L328.5093,1442.3125 L318.5093,1452.3125 L264.0664,1452.3125 L264.0664,1435.1797 " fill="#EEEEEE" style="stroke:#000000;stroke-width:1.5;"/><rect fill="none" height="75.3984" style="stroke:#000000;stroke-width:1.5;" width="1146.1831" x="264.0664" y="1435.1797"/><text fill="#000000" font-family="sans-serif" font-size="13" font-weight="bold" lengthAdjust="spacing" textLength="19.4429" x="279.0664" y="1448.2466">alt</text><text fill="#000000" font-family="sans-serif" font-size="11" font-weight="bold" lengthAdjust="spacing" textLength="275.4941" x="343.5093" y="1447.3901">[Zero-Trust Access Header nicht vorhanden]</text><polygon fill="#181818" points="1052.623,1469.4453,1042.623,1473.4453,1052.623,1477.4453,1048.623,1473.4453" style="stroke:#181818;stroke-width:1.0;"/><line style="stroke:#181818;stroke-width:1.0;" x1="1046.623" x2="1319.8198" y1="1473.4453" y2="1473.4453"/><text fill="#000000" font-family="sans-serif" font-size="13" lengthAdjust="spacing" textLength="149.2334" x="1058.623" y="1468.3794">HTTP 400 Bad Request</text><polygon fill="#181818" points="347.6387,1498.5781,337.6387,1502.5781,347.6387,1506.5781,343.6387,1502.5781" style="stroke:#181818;stroke-width:1.0;"/><line style="stroke:#181818;stroke-width:1.0;" x1="341.6387" x2="1030.623" y1="1502.5781" y2="1502.5781"/><text fill="#000000" font-family="sans-serif" font-size="13" lengthAdjust="spacing" textLength="420.4814" x="353.6387" y="1497.5122">HTTP 400/500 (abh&#228;ngig, welcher header fehlt oder ung&#252;ltig ist)</text><line style="stroke:#181818;stroke-width:1.0;" x1="1330.8198" x2="1372.8198" y1="1538.7109" y2="1538.7109"/><line style="stroke:#181818;stroke-width:1.0;" x1="1372.8198" x2="1372.8198" y1="1538.7109" y2="1551.7109"/><line style="stroke:#181818;stroke-width:1.0;" x1="1331.8198" x2="1372.8198" y1="1551.7109" y2="1551.7109"/><polygon fill="#181818" points="1341.8198,1547.7109,1331.8198,1551.7109,1341.8198,1555.7109,1337.8198,1551.7109" style="stroke:#181818;stroke-width:1.0;"/><text fill="#000000" font-family="sans-serif" font-size="13" lengthAdjust="spacing" textLength="254.1411" x="1337.8198" y="1533.645">zeitliche G&#252;ltigkeit(PoPP-Token) pr&#252;fen</text><path d="M264.0664,1566.7109 L328.5093,1566.7109 L328.5093,1573.8438 L318.5093,1583.8438 L264.0664,1583.8438 L264.0664,1566.7109 " fill="#EEEEEE" style="stroke:#000000;stroke-width:1.5;"/><rect fill="none" height="75.3984" style="stroke:#000000;stroke-width:1.5;" width="1146.1831" x="264.0664" y="1566.7109"/><text fill="#000000" font-family="sans-serif" font-size="13" font-weight="bold" lengthAdjust="spacing" textLength="19.4429" x="279.0664" y="1579.7778">alt</text><text fill="#000000" font-family="sans-serif" font-size="11" font-weight="bold" lengthAdjust="spacing" textLength="337.5303" x="343.5093" y="1578.9214">[PoPP-Token ist f&#252;r das aktuelle Quartal NICHT g&#252;ltig]</text><polygon fill="#181818" points="1052.623,1600.9766,1042.623,1604.9766,1052.623,1608.9766,1048.623,1604.9766" style="stroke:#181818;stroke-width:1.0;"/><line style="stroke:#181818;stroke-width:1.0;" x1="1046.623" x2="1319.8198" y1="1604.9766" y2="1604.9766"/><text fill="#000000" font-family="sans-serif" font-size="13" lengthAdjust="spacing" textLength="131.9551" x="1058.623" y="1599.9106">HTTP 403 Forbidden</text><polygon fill="#181818" points="347.6387,1630.1094,337.6387,1634.1094,347.6387,1638.1094,343.6387,1634.1094" style="stroke:#181818;stroke-width:1.0;"/><line style="stroke:#181818;stroke-width:1.0;" x1="341.6387" x2="1030.623" y1="1634.1094" y2="1634.1094"/><text fill="#000000" font-family="sans-serif" font-size="13" lengthAdjust="spacing" textLength="131.9551" x="353.6387" y="1629.0435">HTTP 403 Forbidden</text><line style="stroke:#181818;stroke-width:1.0;" x1="1330.8198" x2="1372.8198" y1="1670.2422" y2="1670.2422"/><line style="stroke:#181818;stroke-width:1.0;" x1="1372.8198" x2="1372.8198" y1="1670.2422" y2="1683.2422"/><line style="stroke:#181818;stroke-width:1.0;" x1="1331.8198" x2="1372.8198" y1="1683.2422" y2="1683.2422"/><polygon fill="#181818" points="1341.8198,1679.2422,1331.8198,1683.2422,1341.8198,1687.2422,1337.8198,1683.2422" style="stroke:#181818;stroke-width:1.0;"/><text fill="#000000" font-family="sans-serif" font-size="13" lengthAdjust="spacing" textLength="121.8052" x="1337.8198" y="1665.1763">vsd-version pr&#252;fen</text><path d="M66.6426,1698.2422 L131.0854,1698.2422 L131.0854,1705.375 L121.0854,1715.375 L66.6426,1715.375 L66.6426,1698.2422 " fill="#EEEEEE" style="stroke:#000000;stroke-width:1.5;"/><rect fill="none" height="413.1953" style="stroke:#000000;stroke-width:1.5;" width="1535.9434" x="66.6426" y="1698.2422"/><text fill="#000000" font-family="sans-serif" font-size="13" font-weight="bold" lengthAdjust="spacing" textLength="19.4429" x="81.6426" y="1711.3091">alt</text><text fill="#000000" font-family="sans-serif" font-size="11" font-weight="bold" lengthAdjust="spacing" textLength="259.9072" x="146.0854" y="1710.4526">[etag_value(client) == etag_value(VSDD)]</text><polygon fill="#181818" points="1052.623,1762.7734,1042.623,1766.7734,1052.623,1770.7734,1048.623,1766.7734" style="stroke:#181818;stroke-width:1.0;"/><line style="stroke:#181818;stroke-width:1.0;" x1="1046.623" x2="1319.8198" y1="1766.7734" y2="1766.7734"/><text fill="#000000" font-family="sans-serif" font-size="13" lengthAdjust="spacing" textLength="148.9541" x="1058.623" y="1731.4419">HTTP 304 Not Modified</text><text fill="#000000" font-family="sans-serif" font-size="13" lengthAdjust="spacing" textLength="145.9517" x="1058.623" y="1746.5747">ETag: "&lt;etag_value&gt;"</text><text fill="#000000" font-family="sans-serif" font-size="13" lengthAdjust="spacing" textLength="207.5493" x="1058.623" y="1761.7075">VSDM-Pn: &lt;Pr&#252;fungsnachweis&gt;</text><polygon fill="#181818" points="347.6387,1822.1719,337.6387,1826.1719,347.6387,1830.1719,343.6387,1826.1719" style="stroke:#181818;stroke-width:1.0;"/><line style="stroke:#181818;stroke-width:1.0;" x1="341.6387" x2="1030.623" y1="1826.1719" y2="1826.1719"/><text fill="#000000" font-family="sans-serif" font-size="13" lengthAdjust="spacing" textLength="148.9541" x="353.6387" y="1790.8403">HTTP 304 Not Modified</text><text fill="#000000" font-family="sans-serif" font-size="13" lengthAdjust="spacing" textLength="145.9517" x="353.6387" y="1805.9731">ETag: "&lt;etag_value&gt;"</text><text fill="#000000" font-family="sans-serif" font-size="13" lengthAdjust="spacing" textLength="207.5493" x="353.6387" y="1821.106">VSDM-Pn: &lt;Pr&#252;fungsnachweis&gt;</text><line style="stroke:#000000;stroke-width:1.0;stroke-dasharray:2.0,2.0;" x1="66.6426" x2="1602.5859" y1="1835.1719" y2="1835.1719"/><text fill="#000000" font-family="sans-serif" font-size="11" font-weight="bold" lengthAdjust="spacing" textLength="255.707" x="71.6426" y="1845.3823">[etag_value(client) != etag_value(VSDD)]</text><line style="stroke:#181818;stroke-width:1.0;" x1="1330.8198" x2="1372.8198" y1="1870.1094" y2="1870.1094"/><line style="stroke:#181818;stroke-width:1.0;" x1="1372.8198" x2="1372.8198" y1="1870.1094" y2="1883.1094"/><line style="stroke:#181818;stroke-width:1.0;" x1="1331.8198" x2="1372.8198" y1="1883.1094" y2="1883.1094"/><polygon fill="#181818" points="1341.8198,1879.1094,1331.8198,1883.1094,1341.8198,1887.1094,1337.8198,1883.1094" style="stroke:#181818;stroke-width:1.0;"/><text fill="#000000" font-family="sans-serif" font-size="13" lengthAdjust="spacing" textLength="242.7661" x="1337.8198" y="1865.0435">lokalisiere VSD zu KVNR(PoPP-Token)</text><polygon fill="#181818" points="1052.623,1953.6406,1042.623,1957.6406,1052.623,1961.6406,1048.623,1957.6406" style="stroke:#181818;stroke-width:1.0;"/><line style="stroke:#181818;stroke-width:1.0;" x1="1046.623" x2="1319.8198" y1="1957.6406" y2="1957.6406"/><text fill="#000000" font-family="sans-serif" font-size="13" lengthAdjust="spacing" textLength="85.3315" x="1058.623" y="1907.1763">HTTP 200 OK</text><text fill="#000000" font-family="sans-serif" font-size="13" lengthAdjust="spacing" textLength="179.3213" x="1058.623" y="1922.3091">ETag: "&lt;new_etag_value&gt;"</text><text fill="#000000" font-family="sans-serif" font-size="13" lengthAdjust="spacing" textLength="207.5493" x="1058.623" y="1937.4419">VSDM-Pn: &lt;Pr&#252;fungsnachweis&gt;</text><text fill="#000000" font-family="sans-serif" font-size="13" lengthAdjust="spacing" textLength="83.6304" x="1058.623" y="1952.5747">VSDMBundle</text><polygon fill="#181818" points="347.6387,2028.1719,337.6387,2032.1719,347.6387,2036.1719,343.6387,2032.1719" style="stroke:#181818;stroke-width:1.0;"/><line style="stroke:#181818;stroke-width:1.0;" x1="341.6387" x2="1030.623" y1="2032.1719" y2="2032.1719"/><text fill="#000000" font-family="sans-serif" font-size="13" lengthAdjust="spacing" textLength="85.3315" x="353.6387" y="1981.7075">HTTP 200 OK</text><text fill="#000000" font-family="sans-serif" font-size="13" lengthAdjust="spacing" textLength="179.3213" x="353.6387" y="1996.8403">ETag: "&lt;new_etag_value&gt;"</text><text fill="#000000" font-family="sans-serif" font-size="13" lengthAdjust="spacing" textLength="207.5493" x="353.6387" y="2011.9731">VSDM-Pn: &lt;Pr&#252;fungsnachweis&gt;</text><text fill="#000000" font-family="sans-serif" font-size="13" lengthAdjust="spacing" textLength="83.6304" x="353.6387" y="2027.106">VSDMBundle</text><line style="stroke:#181818;stroke-width:1.0;" x1="336.6387" x2="378.6387" y1="2061.3047" y2="2061.3047"/><line style="stroke:#181818;stroke-width:1.0;" x1="378.6387" x2="378.6387" y1="2061.3047" y2="2074.3047"/><line style="stroke:#181818;stroke-width:1.0;" x1="337.6387" x2="378.6387" y1="2074.3047" y2="2074.3047"/><polygon fill="#181818" points="347.6387,2070.3047,337.6387,2074.3047,347.6387,2078.3047,343.6387,2074.3047" style="stroke:#181818;stroke-width:1.0;"/><text fill="#000000" font-family="sans-serif" font-size="13" lengthAdjust="spacing" textLength="107.9609" x="343.6387" y="2056.2388">Aktualisiere VSD</text><polygon fill="#181818" points="147.0762,2099.4375,137.0762,2103.4375,147.0762,2107.4375,143.0762,2103.4375" style="stroke:#181818;stroke-width:1.0;"/><line style="stroke:#181818;stroke-width:1.0;" x1="141.0762" x2="325.6387" y1="2103.4375" y2="2103.4375"/><text fill="#000000" font-family="sans-serif" font-size="13" lengthAdjust="spacing" textLength="88.3911" x="153.0762" y="2098.3716">Zeige VSD an</text><line style="stroke:#181818;stroke-width:1.0;" x1="336.6387" x2="378.6387" y1="2139.5703" y2="2139.5703"/><line style="stroke:#181818;stroke-width:1.0;" x1="378.6387" x2="378.6387" y1="2139.5703" y2="2152.5703"/><line style="stroke:#181818;stroke-width:1.0;" x1="337.6387" x2="378.6387" y1="2152.5703" y2="2152.5703"/><polygon fill="#181818" points="347.6387,2148.5703,337.6387,2152.5703,347.6387,2156.5703,343.6387,2152.5703" style="stroke:#181818;stroke-width:1.0;"/><text fill="#000000" font-family="sans-serif" font-size="13" lengthAdjust="spacing" textLength="198.9165" x="343.6387" y="2134.5044">Aktualisiere Pr&#252;fungsnachweis</text><line style="stroke:#181818;stroke-width:1.0;" x1="1335.8198" x2="1377.8198" y1="2181.7031" y2="2181.7031"/><line style="stroke:#181818;stroke-width:1.0;" x1="1377.8198" x2="1377.8198" y1="2181.7031" y2="2194.7031"/><line style="stroke:#181818;stroke-width:1.0;" x1="1336.8198" x2="1377.8198" y1="2194.7031" y2="2194.7031"/><polygon fill="#181818" points="1346.8198,2190.7031,1336.8198,2194.7031,1346.8198,2198.7031,1342.8198,2194.7031" style="stroke:#181818;stroke-width:1.0;"/><text fill="#000000" font-family="sans-serif" font-size="13" lengthAdjust="spacing" textLength="324.7842" x="1342.8198" y="2176.6372">write Zugriffsprotokoll(KVNR) mit Inhalt: User-Info</text><rect fill="#D1F2EB" height="3" style="stroke:#D1F2EB;stroke-width:1.0;" width="1763.7261" x="0" y="2253.2695"/><line style="stroke:#000000;stroke-width:1.0;" x1="0" x2="1763.7261" y1="2253.2695" y2="2253.2695"/><line style="stroke:#000000;stroke-width:1.0;" x1="0" x2="1763.7261" y1="2256.2695" y2="2256.2695"/><rect fill="#D1F2EB" height="23.1328" style="stroke:#000000;stroke-width:2.0;" width="511.9102" x="625.908" y="2242.7031"/><text fill="#000000" font-family="sans-serif" font-size="13" font-weight="bold" lengthAdjust="spacing" textLength="493.3843" x="631.908" y="2258.77">Fehlerbehandlung HTTP 401 Unauthorized (Access-Token ung&#252;ltig)</text><polygon fill="#181818" points="853.9565,2292.9688,863.9565,2296.9688,853.9565,2300.9688,857.9565,2296.9688" style="stroke:#181818;stroke-width:1.0;"/><line style="stroke:#181818;stroke-width:1.0;" x1="336.6387" x2="859.9565" y1="2296.9688" y2="2296.9688"/><text fill="#000000" font-family="sans-serif" font-size="13" lengthAdjust="spacing" textLength="141.2354" x="343.6387" y="2291.9028">get new access token</text><rect fill="#EBF5FB" height="39.1016" style="stroke:#000000;stroke-width:1.5;" width="694.1772" x="271.0664" y="2304.9688"/><path d="M271.0664,2304.9688 L336.0664,2304.9688 L336.0664,2311.9688 L326.0664,2321.9688 L271.0664,2321.9688 L271.0664,2304.9688 " fill="#EEEEEE" style="stroke:#000000;stroke-width:2.0;"/><text fill="#000000" font-family="sans-serif" font-size="13" font-weight="bold" lengthAdjust="spacing" textLength="20.8838" x="284.0664" y="2319.0356">ref</text><text fill="#000000" font-family="sans-serif" font-size="12" lengthAdjust="spacing" textLength="485.0566" x="375.6267" y="2337.1074">LEI-Authentifizierung (SMC-B) und LEI-Autorisierung (siehe gemSpec_Zero-Trust)</text><polygon fill="#181818" points="342.6387,2381.3359,332.6387,2385.3359,342.6387,2389.3359,338.6387,2385.3359" style="stroke:#181818;stroke-width:1.0;"/><line style="stroke:#181818;stroke-width:1.0;" x1="336.6387" x2="869.9565" y1="2385.3359" y2="2385.3359"/><text fill="#000000" font-family="sans-serif" font-size="13" lengthAdjust="spacing" textLength="85.3315" x="348.6387" y="2365.1372">HTTP 200 OK</text><text fill="#000000" font-family="sans-serif" font-size="13" lengthAdjust="spacing" textLength="505.3179" x="348.6387" y="2380.27">(Refresh-Token mit scope : vsdservice, Access-Token  mit scope : vsdservice)</text><rect fill="#D1F2EB" height="3" style="stroke:#D1F2EB;stroke-width:1.0;" width="1763.7261" x="0" y="2413.9023"/><line style="stroke:#000000;stroke-width:1.0;" x1="0" x2="1763.7261" y1="2413.9023" y2="2413.9023"/><line style="stroke:#000000;stroke-width:1.0;" x1="0" x2="1763.7261" y1="2416.9023" y2="2416.9023"/><rect fill="#D1F2EB" height="23.1328" style="stroke:#000000;stroke-width:2.0;" width="668.0942" x="547.8159" y="2403.3359"/><text fill="#000000" font-family="sans-serif" font-size="13" font-weight="bold" lengthAdjust="spacing" textLength="649.5684" x="553.8159" y="2419.4028">Fehlerbehandlung HTTP 403 Forbidden (Versorgungskontext bzw. PoPP-Token ung&#252;ltig)</text><polygon fill="#181818" points="314.6387,2453.6016,324.6387,2457.6016,314.6387,2461.6016,318.6387,2457.6016" style="stroke:#181818;stroke-width:1.0;"/><line style="stroke:#181818;stroke-width:1.0;" x1="136.0762" x2="320.6387" y1="2457.6016" y2="2457.6016"/><text fill="#000000" font-family="sans-serif" font-size="13" lengthAdjust="spacing" textLength="92.9678" x="143.0762" y="2452.5356">PoPP initiieren</text><rect fill="#EBF5FB" height="39.1016" style="stroke:#000000;stroke-width:1.5;" width="1759.7261" x="2" y="2465.6016"/><path d="M2,2465.6016 L67,2465.6016 L67,2472.6016 L57,2482.6016 L2,2482.6016 L2,2465.6016 " fill="#EEEEEE" style="stroke:#000000;stroke-width:2.0;"/><text fill="#000000" font-family="sans-serif" font-size="13" font-weight="bold" lengthAdjust="spacing" textLength="20.8838" x="15" y="2479.6685">ref</text><text fill="#000000" font-family="sans-serif" font-size="12" lengthAdjust="spacing" textLength="544.3301" x="609.698" y="2497.7402">Versorgungskontext mit eGK oder GesundheitsID herstellen (siehe gemSpec_PoPP_Dienst)</text><polygon fill="#181818" points="342.6387,2541.9688,332.6387,2545.9688,342.6387,2549.9688,338.6387,2545.9688" style="stroke:#181818;stroke-width:1.0;"/><line style="stroke:#181818;stroke-width:1.0;" x1="336.6387" x2="1683.604" y1="2545.9688" y2="2545.9688"/><text fill="#000000" font-family="sans-serif" font-size="13" lengthAdjust="spacing" textLength="101.3276" x="348.6387" y="2525.77">PoPP-Token mit</text><text fill="#000000" font-family="sans-serif" font-size="13" lengthAdjust="spacing" textLength="236.7358" x="348.6387" y="2540.9028">KVNR, IK-Nummer, OID, Zeitstempel</text><!--SRC=[pLXjRzf84FuS_uevxaD1mdbh-mMHI4b8KvINqa2hKwudjE0ntiEikRLDqfpwR_ep-Yr_x6RMDhR1a5QgrCidCxixEo_FF3CRJpe8RX14e-31iY8P-GWV-vrhEDpTXpx-4wDwTAIOQ36RGUqZwb2EFTGHgZ0YaIFe2sBbG4y_VNDZDGcL67ltA4CG8nsxg6gM9SPHe84EWmYXrXEHH1NLKl7LkP5UdNVjQna9FK8PeQvPSw4ZEPPpeIBezI7G3fq_W3-jdIFQQ-tOz6Vjr6ezBMTFNtNuEOnmLgjPVvLEaY-TuKaSUNUPXdsZWkHsHx8NkIRU5cZvIFO5okwZNf0TbGfxEdZud2aysAZmxM3GiytUQZN95PcUmurwRZ4CWrYFSPDHlQ3NIzKS9lwnnEoMOop4gY0rIgns67tsyTW224sonzX9iWt_aWn0eukQnUblW5CndbxeW79-5lYKlzznvBvsHsRrY_N5Qk-bAiEfL6GagUelLIy8RferJ8eQd0Ft44UMTNG4VK901FHXCLpiOu972qxK37s7mCMGaGl278ajuKUWCAPjAQAi7S8I7UdrMva8bOXT9RmP1M5vjjUtTWXHwKwfP2I5Jp1UdZ7GXWagr9Az1mkLOrKeJpRI5GRfnW4kaK1Fk1Ac0UrvY83gXR3fynLr5MiWX0EBPiANaznyL8lbMP0pU1zJA8JVe6XOBxQgBPh6I30k6SlpWF62HTc4W257wfh9tbQLnJCP0LvSGi28ki2GKkLHMORTJicPKAA75ATPVuxZ8QiR9j1jM4QtiGaIe-n1CAKphFcJklnuSzk4xgLz4yzcRCgxRgS9Ttm55V4SVSl1ikLPlihQmZaQEbAaipuAv_Ux7BXoUXeRpZeu3PmalSnVAoPjKvXVQpB-XWZFCMxdp9c4mG-cb6AAakQKrWL53GvV4SRfGbGciSkCzFhBX5GTvhYzUT-vWRQSsigOUBox29tPuMuaxUHwt7LmYS4Acau9sU39412SAsSUgodNq_8s0at9g0BXjPO7xAkITLKXM4777Uh07kYOmV62cPO2Abtvc6hW59nye7wmr4cyONGPyaw93nnYGSzz-kQncKbU2mpVejkO4-v1ZCV4cH1nflCQoBTMk9Yfu4QqRb-zVtrcdpQCdUcEWgrRV2tepa38RO5uUX_UNKBz5bsDePU0iWadnl3aLwDO1GNRYuvdYRau7y0UuI5Co7rlSS2_PYEobq3tIPLw6q6Ce0Rj94f34wLZsiJI5hITUJ0VpdKGkCE_xoDUO62su1I5feYrQNcU7-gwzasWqBuMqTXhGQsDaPWC5yAFyRYs4djZhMKLB5_re-W_p7cce0I-wCk94b5CHC4cDY4S1tDawkftqcu6b2wFEWAdc_f2IOsYMeXW4MXFSDqbh4PfU_hcHt9Y6bVPeZnBh_OFu0Fra2Huw9X6iCt-0i5KM3z07sUKWcctKozb6evAQxcMXd6deFKPPtOsU_8ItWHw91qwzQmRPdAvHdBRIKgprxMpsgUSEnZ2cS-SQDzoRwUwpxnbSpEP2iXIeWbdcrdxD54usP6DXgNr_ppG_x3l1YVs1rgskyeDe1tJvr3Ivt5pkPp7qpxZbaSZL7kSV1HsfHvsH2HesVm0Ob9Xjlm8x1FZKxzIJzOSCtV2MnISq68qSpP9OPrjMe523kILAuf9NGluTlJlxxsc_NKnyfw-gecSDE4UVUuiD0SO6rpqoCGo244oyUMPtEJn8_Lxd_iKN2G7foGeOhyKXa8Da7wW9a3jW5uEOXh5F8zaynBSTC_U3c2jkhS7fLWSsqDINKQRV2HisZpM4UkMlCdHKa-GnTD0KSfg6cdTR3FzvVuhkA4wkwPXnfNe43JF1sAoYaWISpUrUqJ-xRMtsl7c0lr9-j4FiShftxxNwML4yxd8L1SyncPsAt7cys5Bss_k34qDmnzmA5azDQopENW_zvR277j2e2z68LkaXq2Bv-X94XkHGdJJoRKRjuFvNjFJ7ExYYPQk6zA4G4D0uFjrZd_3ZAXTnKsu1Kl-hMR2udJVNvjoaYbXLRf-T8EOdePcB2TcGZr29aUVXxJAXWwbFfnpMFBg-aLpAiNa_popqjEeDBMQp6SZMTwQoyCiRDZLU0OCwSYx9Q45GePwnMDsz4Ylk4BtAEVuEvxE_B-6gjHKFAclpfihsIa-e9f5oFwoz_SFFh_9-uqPCX7u3m00]--></g></svg>