<?xml version="1.0" encoding="us-ascii" standalone="no"?><svg xmlns="http://www.w3.org/2000/svg" xmlns:xlink="http://www.w3.org/1999/xlink" contentStyleType="text/css" height="530px" preserveAspectRatio="none" style="width:935px;height:530px;background:#FFFFFF;" version="1.1" viewBox="0 0 935 530" width="935px" zoomAndPan="magnify"><defs/><g><text fill="#000000" font-family="sans-serif" font-size="14" font-weight="bold" lengthAdjust="spacing" textLength="208" x="365.25" y="27.9951">Read VSD 2 (conceptually)</text><rect fill="#8DA5C4" height="355.7266" style="stroke:#181818;stroke-width:1.0;" width="10" x="372" y="149.7266"/><rect fill="#009A7C" height="29.1328" style="stroke:#181818;stroke-width:1.0;" width="10" x="887.5" y="275.3906"/><rect fill="none" height="82.5313" style="stroke:#000000;stroke-width:1.5;" width="919.5" x="10" y="164.7266"/><line style="stroke:#181818;stroke-width:0.5;stroke-dasharray:5.0,5.0;" x1="47" x2="47" y1="118.5938" y2="523.4531"/><line style="stroke:#181818;stroke-width:0.5;stroke-dasharray:5.0,5.0;" x1="140" x2="140" y1="118.5938" y2="523.4531"/><line style="stroke:#181818;stroke-width:0.5;stroke-dasharray:5.0,5.0;" x1="249" x2="249" y1="118.5938" y2="523.4531"/><line style="stroke:#181818;stroke-width:0.5;stroke-dasharray:5.0,5.0;" x1="376.5" x2="376.5" y1="118.5938" y2="523.4531"/><line style="stroke:#181818;stroke-width:0.5;stroke-dasharray:5.0,5.0;" x1="549.5" x2="549.5" y1="118.5938" y2="523.4531"/><line style="stroke:#181818;stroke-width:0.5;stroke-dasharray:5.0,5.0;" x1="675.5" x2="675.5" y1="118.5938" y2="523.4531"/><line style="stroke:#181818;stroke-width:0.5;stroke-dasharray:5.0,5.0;" x1="797.5" x2="797.5" y1="118.5938" y2="523.4531"/><line style="stroke:#181818;stroke-width:0.5;stroke-dasharray:5.0,5.0;" x1="892.5" x2="892.5" y1="118.5938" y2="523.4531"/><text fill="#000000" font-family="sans-serif" font-size="14" lengthAdjust="spacing" textLength="48" x="20" y="115.292">Patient</text><ellipse cx="47" cy="50.7969" fill="#EE8360" rx="8" ry="8" style="stroke:#181818;stroke-width:0.5;"/><path d="M47,58.7969 L47,85.7969 M34,66.7969 L60,66.7969 M47,85.7969 L34,100.7969 M47,85.7969 L60,100.7969 " fill="none" style="stroke:#181818;stroke-width:0.5;"/><rect fill="#EE8360" height="46.5938" rx="2.5" ry="2.5" style="stroke:#181818;stroke-width:0.5;" width="113" x="84" y="71"/><text fill="#000000" font-family="sans-serif" font-size="14" lengthAdjust="spacing" textLength="55" x="113" y="90.9951">Mean of</text><text fill="#000000" font-family="sans-serif" font-size="14" lengthAdjust="spacing" textLength="99" x="91" y="107.292">authentication</text><text fill="#000000" font-family="sans-serif" font-size="14" lengthAdjust="spacing" textLength="78" x="207" y="115.292">Practitioner</text><ellipse cx="249" cy="50.7969" fill="#8DA5C4" rx="8" ry="8" style="stroke:#181818;stroke-width:0.5;"/><path d="M249,58.7969 L249,85.7969 M236,66.7969 L262,66.7969 M249,85.7969 L236,100.7969 M249,85.7969 L262,100.7969 " fill="none" style="stroke:#181818;stroke-width:0.5;"/><rect fill="#8DA5C4" height="46.5938" rx="2.5" ry="2.5" style="stroke:#181818;stroke-width:0.5;" width="97" x="328.5" y="71"/><text fill="#000000" font-family="sans-serif" font-size="14" lengthAdjust="spacing" textLength="39" x="357.5" y="90.9951">Client</text><text fill="#000000" font-family="sans-serif" font-size="14" lengthAdjust="spacing" textLength="83" x="335.5" y="107.292">System (PS)</text><rect fill="#8DA5C4" height="46.5938" rx="2.5" ry="2.5" style="stroke:#181818;stroke-width:0.5;" width="113" x="493.5" y="71"/><text fill="#000000" font-family="sans-serif" font-size="14" lengthAdjust="spacing" textLength="55" x="522.5" y="90.9951">Mean of</text><text fill="#000000" font-family="sans-serif" font-size="14" lengthAdjust="spacing" textLength="99" x="500.5" y="107.292">authentication</text><rect fill="#009A7C" height="62.8906" rx="2.5" ry="2.5" style="stroke:#181818;stroke-width:0.5;" width="119" x="616.5" y="54.7031"/><text fill="#000000" font-family="sans-serif" font-size="14" lengthAdjust="spacing" textLength="55" x="648.5" y="74.6982">Double-</text><text fill="#000000" font-family="sans-serif" font-size="14" lengthAdjust="spacing" textLength="100" x="626" y="90.9951">Authentication</text><text fill="#000000" font-family="sans-serif" font-size="14" lengthAdjust="spacing" textLength="105" x="623.5" y="107.292">Service (PoP-X)</text><rect fill="#009A7C" height="46.5938" rx="2.5" ry="2.5" style="stroke:#181818;stroke-width:0.5;" width="105" x="745.5" y="71"/><text fill="#000000" font-family="sans-serif" font-size="14" lengthAdjust="spacing" textLength="91" x="752.5" y="90.9951">Authorization</text><text fill="#000000" font-family="sans-serif" font-size="14" lengthAdjust="spacing" textLength="50" x="773" y="107.292">Service</text><rect fill="#009A7C" height="46.5938" rx="2.5" ry="2.5" style="stroke:#181818;stroke-width:0.5;" width="64" x="860.5" y="71"/><text fill="#000000" font-family="sans-serif" font-size="14" lengthAdjust="spacing" textLength="34" x="875.5" y="90.9951">VSD-</text><text fill="#000000" font-family="sans-serif" font-size="14" lengthAdjust="spacing" textLength="50" x="867.5" y="107.292">Service</text><rect fill="#8DA5C4" height="355.7266" style="stroke:#181818;stroke-width:1.0;" width="10" x="372" y="149.7266"/><rect fill="#009A7C" height="29.1328" style="stroke:#181818;stroke-width:1.0;" width="10" x="887.5" y="275.3906"/><polygon fill="#181818" points="360,145.7266,370,149.7266,360,153.7266,364,149.7266" style="stroke:#181818;stroke-width:1.0;"/><line style="stroke:#181818;stroke-width:1.0;" x1="249" x2="366" y1="149.7266" y2="149.7266"/><text fill="#000000" font-family="sans-serif" font-size="13" lengthAdjust="spacing" textLength="104" x="256" y="144.6606">initiate use case</text><path d="M10,164.7266 L246,164.7266 L246,171.8594 L236,181.8594 L10,181.8594 L10,164.7266 " fill="#EEEEEE" style="stroke:#000000;stroke-width:1.5;"/><rect fill="none" height="82.5313" style="stroke:#000000;stroke-width:1.5;" width="919.5" x="10" y="164.7266"/><text fill="#000000" font-family="sans-serif" font-size="13" font-weight="bold" lengthAdjust="spacing" textLength="191" x="25" y="177.7935">Proof of Patient Presence</text><path d="M20,186.8594 L20,241.8594 L919,241.8594 L919,196.8594 L909,186.8594 L20,186.8594 " fill="#FEFFDD" style="stroke:#181818;stroke-width:0.5;"/><path d="M909,186.8594 L909,196.8594 L919,196.8594 L909,186.8594 " fill="#FEFFDD" style="stroke:#181818;stroke-width:0.5;"/><text fill="#000000" font-family="sans-serif" font-size="13" lengthAdjust="spacing" textLength="37" x="300.25" y="203.9263">PoP-P</text><text fill="#000000" font-family="sans-serif" font-size="13" lengthAdjust="spacing" textLength="330" x="300.25" y="219.0591">patient's and practitioner's means of authentication</text><text fill="#000000" font-family="sans-serif" font-size="13" lengthAdjust="spacing" textLength="277" x="300.25" y="234.1919">cryptographically joined into a JWT structure</text><polygon fill="#181818" points="875.5,271.3906,885.5,275.3906,875.5,279.3906,879.5,275.3906" style="stroke:#181818;stroke-width:1.0;"/><line style="stroke:#181818;stroke-width:1.0;" x1="382" x2="881.5" y1="275.3906" y2="275.3906"/><text fill="#000000" font-family="sans-serif" font-size="13" lengthAdjust="spacing" textLength="55" x="389" y="270.3247">GET /vsd</text><polygon fill="#181818" points="393,300.5234,383,304.5234,393,308.5234,389,304.5234" style="stroke:#181818;stroke-width:1.0;"/><line style="stroke:#181818;stroke-width:1.0;stroke-dasharray:2.0,2.0;" x1="387" x2="891.5" y1="304.5234" y2="304.5234"/><text fill="#000000" font-family="sans-serif" font-size="13" lengthAdjust="spacing" textLength="44" x="399" y="299.4575">{VSD}</text><line style="stroke:#181818;stroke-width:1.0;" x1="382" x2="424" y1="348.7891" y2="348.7891"/><line style="stroke:#181818;stroke-width:1.0;" x1="424" x2="424" y1="348.7891" y2="361.7891"/><line style="stroke:#181818;stroke-width:1.0;" x1="383" x2="424" y1="361.7891" y2="361.7891"/><polygon fill="#181818" points="393,357.7891,383,361.7891,393,365.7891,389,361.7891" style="stroke:#181818;stroke-width:1.0;"/><text fill="#000000" font-family="sans-serif" font-size="13" lengthAdjust="spacing" textLength="127" x="389" y="328.5903">Extract patient data</text><text fill="#000000" font-family="sans-serif" font-size="13" lengthAdjust="spacing" textLength="129" x="389" y="343.7231">from VSD &amp;&amp; PoP-P</text><line style="stroke:#181818;stroke-width:1.0;" x1="382" x2="424" y1="406.0547" y2="406.0547"/><line style="stroke:#181818;stroke-width:1.0;" x1="424" x2="424" y1="406.0547" y2="419.0547"/><line style="stroke:#181818;stroke-width:1.0;" x1="383" x2="424" y1="419.0547" y2="419.0547"/><polygon fill="#181818" points="393,415.0547,383,419.0547,393,423.0547,389,419.0547" style="stroke:#181818;stroke-width:1.0;"/><text fill="#000000" font-family="sans-serif" font-size="13" lengthAdjust="spacing" textLength="67" x="389" y="385.856">Store VSD</text><text fill="#000000" font-family="sans-serif" font-size="13" lengthAdjust="spacing" textLength="149" x="389" y="400.9888">for quarterly statement</text><line style="stroke:#181818;stroke-width:1.0;" x1="382" x2="424" y1="478.4531" y2="478.4531"/><line style="stroke:#181818;stroke-width:1.0;" x1="424" x2="424" y1="478.4531" y2="491.4531"/><line style="stroke:#181818;stroke-width:1.0;" x1="383" x2="424" y1="491.4531" y2="491.4531"/><polygon fill="#181818" points="393,487.4531,383,491.4531,393,495.4531,389,491.4531" style="stroke:#181818;stroke-width:1.0;"/><text fill="#000000" font-family="sans-serif" font-size="13" lengthAdjust="spacing" textLength="81" x="389" y="443.1216">Store signed</text><text fill="#000000" font-family="sans-serif" font-size="13" lengthAdjust="spacing" textLength="100" x="389" y="458.2544">PoP-P-structure</text><text fill="#000000" font-family="sans-serif" font-size="13" lengthAdjust="spacing" textLength="149" x="389" y="473.3872">for quarterly statement</text><polygon fill="#181818" points="260,501.4531,250,505.4531,260,509.4531,256,505.4531" style="stroke:#181818;stroke-width:1.0;"/><line style="stroke:#181818;stroke-width:1.0;stroke-dasharray:2.0,2.0;" x1="254" x2="376" y1="505.4531" y2="505.4531"/><!--SRC=[XL9TRnCn47pthrWLgRGI9qBvAdr0gcW5Gg8wSU53w5vSUvCONRo7lHSr8Fuxkqv24vgAU_7TtipipgndmIDCYFYQRWm7xX0-elNmkRc04pXo51tsFDYkMnuRwvWIr9R1PZYGCs3a0tY0UFhqnSZqDd5meRUHuVpJ-DsJ0lk0DW9DscW7dWa-EE5HlAMjLPESArrz2uh19AXJRv-xPplYTLE0RphjtyPccHddS5Gtn_lnEip9VuQvXtPLQ1SqN7TOjV5yXoQjCIs2G-bDTVLLsuz6h-nBTqVdMz5HEgNmSvUzdwKRK8wSrHweCQl4gjSInnc4A8bPHXWoWhCPDTQmq8gajN5dfec6Nh8ccaWCi5wX532ZRDg0F964H0iictwaSvo1sglRsA_m3pFOwA7VMfIKvf9jLbNxJqWkBNkcQRBzJ6foa-0xXOXUXcO22- -_Z25p6XmF2Gr6h-OQTLPwlxqSm-D5zhUED9fD3lfUhKFu9H-_ZSTju4PA_r_USCbiRGEyPTl6IQ9vaJmyNFdSOZHoDOkCmEII_XXaGPZ4GMRHdul87N0EK_7MnY9L_VLrlq1HK0cTRNlwkZ5_0000]--></g></svg>