<?xml version="1.0" encoding="us-ascii" standalone="no"?><svg xmlns="http://www.w3.org/2000/svg" xmlns:xlink="http://www.w3.org/1999/xlink" contentStyleType="text/css" height="981px" preserveAspectRatio="none" style="width:975px;height:981px;background:#FFFFFF;" version="1.1" viewBox="0 0 975 981" width="975px" zoomAndPan="magnify"><defs/><g><text fill="#000000" font-family="sans-serif" font-size="14" font-weight="bold" lengthAdjust="spacing" textLength="91" x="443" y="27.9951">Read VSD 2</text><rect fill="#EE8360" height="14" style="stroke:#181818;stroke-width:1.0;" width="10" x="120.5" y="388.3906"/><rect fill="#EE8360" height="29.1328" style="stroke:#181818;stroke-width:1.0;" width="10" x="120.5" y="833.9219"/><rect fill="#8DA5C4" height="777.5938" style="stroke:#181818;stroke-width:1.0;" width="10" x="357" y="178.8594"/><rect fill="#FFFFFF" height="168" style="stroke:#181818;stroke-width:1.0;" width="10" x="362" y="290.3906"/><rect fill="#8DA5C4" height="14" style="stroke:#181818;stroke-width:1.0;" width="10" x="530" y="332.3906"/><rect fill="#8DA5C4" height="29.1328" style="stroke:#181818;stroke-width:1.0;" width="10" x="530" y="703.2578"/><rect fill="#009A7C" height="14" style="stroke:#181818;stroke-width:1.0;" width="10" x="656" y="304.3906"/><rect fill="#009A7C" height="14" style="stroke:#181818;stroke-width:1.0;" width="10" x="656" y="360.3906"/><rect fill="#009A7C" height="14" style="stroke:#181818;stroke-width:1.0;" width="10" x="656" y="416.3906"/><rect fill="#009A7C" height="53.2656" style="stroke:#181818;stroke-width:1.0;" width="10" x="921" y="207.9922"/><rect fill="#009A7C" height="14" style="stroke:#181818;stroke-width:1.0;" width="10" x="921" y="444.3906"/><rect fill="none" height="648.0625" style="stroke:#000000;stroke-width:1.5;" width="909" x="59" y="222.9922"/><line style="stroke:#181818;stroke-width:0.5;stroke-dasharray:5.0,5.0;" x1="32" x2="32" y1="118.5938" y2="974.4531"/><line style="stroke:#181818;stroke-width:0.5;stroke-dasharray:5.0,5.0;" x1="125" x2="125" y1="118.5938" y2="974.4531"/><line style="stroke:#181818;stroke-width:0.5;stroke-dasharray:5.0,5.0;" x1="234" x2="234" y1="118.5938" y2="974.4531"/><line style="stroke:#181818;stroke-width:0.5;stroke-dasharray:5.0,5.0;" x1="361.5" x2="361.5" y1="118.5938" y2="974.4531"/><line style="stroke:#181818;stroke-width:0.5;stroke-dasharray:5.0,5.0;" x1="534.5" x2="534.5" y1="118.5938" y2="974.4531"/><line style="stroke:#181818;stroke-width:0.5;stroke-dasharray:5.0,5.0;" x1="660.5" x2="660.5" y1="118.5938" y2="974.4531"/><line style="stroke:#181818;stroke-width:0.5;stroke-dasharray:5.0,5.0;" x1="782.5" x2="782.5" y1="118.5938" y2="974.4531"/><line style="stroke:#181818;stroke-width:0.5;stroke-dasharray:5.0,5.0;" x1="926" x2="926" y1="118.5938" y2="974.4531"/><text fill="#000000" font-family="sans-serif" font-size="14" lengthAdjust="spacing" textLength="48" x="5" y="115.292">Patient</text><ellipse cx="32" cy="50.7969" fill="#EE8360" rx="8" ry="8" style="stroke:#181818;stroke-width:0.5;"/><path d="M32,58.7969 L32,85.7969 M19,66.7969 L45,66.7969 M32,85.7969 L19,100.7969 M32,85.7969 L45,100.7969 " fill="none" style="stroke:#181818;stroke-width:0.5;"/><rect fill="#EE8360" height="46.5938" rx="2.5" ry="2.5" style="stroke:#181818;stroke-width:0.5;" width="113" x="69" y="71"/><text fill="#000000" font-family="sans-serif" font-size="14" lengthAdjust="spacing" textLength="55" x="98" y="90.9951">Mean of</text><text fill="#000000" font-family="sans-serif" font-size="14" lengthAdjust="spacing" textLength="99" x="76" y="107.292">authentication</text><text fill="#000000" font-family="sans-serif" font-size="14" lengthAdjust="spacing" textLength="78" x="192" y="115.292">Practitioner</text><ellipse cx="234" cy="50.7969" fill="#8DA5C4" rx="8" ry="8" style="stroke:#181818;stroke-width:0.5;"/><path d="M234,58.7969 L234,85.7969 M221,66.7969 L247,66.7969 M234,85.7969 L221,100.7969 M234,85.7969 L247,100.7969 " fill="none" style="stroke:#181818;stroke-width:0.5;"/><rect fill="#8DA5C4" height="46.5938" rx="2.5" ry="2.5" style="stroke:#181818;stroke-width:0.5;" width="97" x="313.5" y="71"/><text fill="#000000" font-family="sans-serif" font-size="14" lengthAdjust="spacing" textLength="39" x="342.5" y="90.9951">Client</text><text fill="#000000" font-family="sans-serif" font-size="14" lengthAdjust="spacing" textLength="83" x="320.5" y="107.292">System (PS)</text><rect fill="#8DA5C4" height="46.5938" rx="2.5" ry="2.5" style="stroke:#181818;stroke-width:0.5;" width="113" x="478.5" y="71"/><text fill="#000000" font-family="sans-serif" font-size="14" lengthAdjust="spacing" textLength="55" x="507.5" y="90.9951">Mean of</text><text fill="#000000" font-family="sans-serif" font-size="14" lengthAdjust="spacing" textLength="99" x="485.5" y="107.292">authentication</text><rect fill="#009A7C" height="62.8906" rx="2.5" ry="2.5" style="stroke:#181818;stroke-width:0.5;" width="119" x="601.5" y="54.7031"/><text fill="#000000" font-family="sans-serif" font-size="14" lengthAdjust="spacing" textLength="55" x="633.5" y="74.6982">Double-</text><text fill="#000000" font-family="sans-serif" font-size="14" lengthAdjust="spacing" textLength="100" x="611" y="90.9951">Authentication</text><text fill="#000000" font-family="sans-serif" font-size="14" lengthAdjust="spacing" textLength="105" x="608.5" y="107.292">Service (PoP-X)</text><rect fill="#009A7C" height="46.5938" rx="2.5" ry="2.5" style="stroke:#181818;stroke-width:0.5;" width="105" x="730.5" y="71"/><text fill="#000000" font-family="sans-serif" font-size="14" lengthAdjust="spacing" textLength="91" x="737.5" y="90.9951">Authorization</text><text fill="#000000" font-family="sans-serif" font-size="14" lengthAdjust="spacing" textLength="50" x="758" y="107.292">Service</text><rect fill="#009A7C" height="46.5938" rx="2.5" ry="2.5" style="stroke:#181818;stroke-width:0.5;" width="64" x="894" y="71"/><text fill="#000000" font-family="sans-serif" font-size="14" lengthAdjust="spacing" textLength="34" x="909" y="90.9951">VSD-</text><text fill="#000000" font-family="sans-serif" font-size="14" lengthAdjust="spacing" textLength="50" x="901" y="107.292">Service</text><rect fill="#EE8360" height="14" style="stroke:#181818;stroke-width:1.0;" width="10" x="120.5" y="388.3906"/><rect fill="#EE8360" height="29.1328" style="stroke:#181818;stroke-width:1.0;" width="10" x="120.5" y="833.9219"/><rect fill="#8DA5C4" height="777.5938" style="stroke:#181818;stroke-width:1.0;" width="10" x="357" y="178.8594"/><rect fill="#FFFFFF" height="168" style="stroke:#181818;stroke-width:1.0;" width="10" x="362" y="290.3906"/><rect fill="#8DA5C4" height="14" style="stroke:#181818;stroke-width:1.0;" width="10" x="530" y="332.3906"/><rect fill="#8DA5C4" height="29.1328" style="stroke:#181818;stroke-width:1.0;" width="10" x="530" y="703.2578"/><rect fill="#009A7C" height="14" style="stroke:#181818;stroke-width:1.0;" width="10" x="656" y="304.3906"/><rect fill="#009A7C" height="14" style="stroke:#181818;stroke-width:1.0;" width="10" x="656" y="360.3906"/><rect fill="#009A7C" height="14" style="stroke:#181818;stroke-width:1.0;" width="10" x="656" y="416.3906"/><rect fill="#009A7C" height="53.2656" style="stroke:#181818;stroke-width:1.0;" width="10" x="921" y="207.9922"/><rect fill="#009A7C" height="14" style="stroke:#181818;stroke-width:1.0;" width="10" x="921" y="444.3906"/><polygon fill="#181818" points="113.5,145.7266,123.5,149.7266,113.5,153.7266,117.5,149.7266" style="stroke:#181818;stroke-width:1.0;"/><line style="stroke:#181818;stroke-width:1.0;" x1="32" x2="119.5" y1="149.7266" y2="149.7266"/><text fill="#000000" font-family="sans-serif" font-size="13" lengthAdjust="spacing" textLength="47" x="39" y="144.6606">provide</text><polygon fill="#181818" points="345,174.8594,355,178.8594,345,182.8594,349,178.8594" style="stroke:#181818;stroke-width:1.0;"/><line style="stroke:#181818;stroke-width:1.0;" x1="234" x2="351" y1="178.8594" y2="178.8594"/><text fill="#000000" font-family="sans-serif" font-size="13" lengthAdjust="spacing" textLength="104" x="241" y="173.7935">initiate use case</text><polygon fill="#181818" points="909,203.9922,919,207.9922,909,211.9922,913,207.9922" style="stroke:#181818;stroke-width:1.0;"/><line style="stroke:#181818;stroke-width:1.0;" x1="367" x2="915" y1="207.9922" y2="207.9922"/><text fill="#000000" font-family="sans-serif" font-size="13" lengthAdjust="spacing" textLength="55" x="374" y="202.9263">GET /vsd</text><path d="M59,222.9922 L123,222.9922 L123,230.125 L113,240.125 L59,240.125 L59,222.9922 " fill="#EEEEEE" style="stroke:#000000;stroke-width:1.5;"/><rect fill="none" height="648.0625" style="stroke:#000000;stroke-width:1.5;" width="909" x="59" y="222.9922"/><text fill="#000000" font-family="sans-serif" font-size="13" font-weight="bold" lengthAdjust="spacing" textLength="19" x="74" y="236.0591">alt</text><text fill="#000000" font-family="sans-serif" font-size="11" font-weight="bold" lengthAdjust="spacing" textLength="50" x="138" y="235.2026">[online]</text><polygon fill="#181818" points="794,257.2578,784,261.2578,794,265.2578,790,261.2578" style="stroke:#181818;stroke-width:1.0;"/><line style="stroke:#181818;stroke-width:1.0;" x1="788" x2="925" y1="261.2578" y2="261.2578"/><text fill="#000000" font-family="sans-serif" font-size="13" lengthAdjust="spacing" textLength="114" x="800" y="256.1919">not authenticated</text><polygon fill="#181818" points="383,286.3906,373,290.3906,383,294.3906,379,290.3906" style="stroke:#181818;stroke-width:1.0;"/><line style="stroke:#181818;stroke-width:1.0;" x1="377" x2="782" y1="290.3906" y2="290.3906"/><text fill="#000000" font-family="sans-serif" font-size="13" lengthAdjust="spacing" textLength="61" x="389" y="285.3247">challenge</text><polygon fill="#181818" points="644,300.3906,654,304.3906,644,308.3906,648,304.3906" style="stroke:#181818;stroke-width:1.0;"/><line style="stroke:#181818;stroke-width:1.0;" x1="372" x2="650" y1="304.3906" y2="304.3906"/><polygon fill="#181818" points="383,314.3906,373,318.3906,383,322.3906,379,318.3906" style="stroke:#181818;stroke-width:1.0;"/><line style="stroke:#181818;stroke-width:1.0;stroke-dasharray:2.0,2.0;" x1="377" x2="660" y1="318.3906" y2="318.3906"/><polygon fill="#181818" points="518,328.3906,528,332.3906,518,336.3906,522,332.3906" style="stroke:#181818;stroke-width:1.0;"/><line style="stroke:#181818;stroke-width:1.0;" x1="372" x2="524" y1="332.3906" y2="332.3906"/><polygon fill="#181818" points="383,342.3906,373,346.3906,383,350.3906,379,346.3906" style="stroke:#181818;stroke-width:1.0;"/><line style="stroke:#181818;stroke-width:1.0;stroke-dasharray:2.0,2.0;" x1="377" x2="534" y1="346.3906" y2="346.3906"/><polygon fill="#181818" points="644,356.3906,654,360.3906,644,364.3906,648,360.3906" style="stroke:#181818;stroke-width:1.0;"/><line style="stroke:#181818;stroke-width:1.0;" x1="372" x2="650" y1="360.3906" y2="360.3906"/><polygon fill="#181818" points="383,370.3906,373,374.3906,383,378.3906,379,374.3906" style="stroke:#181818;stroke-width:1.0;"/><line style="stroke:#181818;stroke-width:1.0;stroke-dasharray:2.0,2.0;" x1="377" x2="660" y1="374.3906" y2="374.3906"/><polygon fill="#181818" points="141.5,384.3906,131.5,388.3906,141.5,392.3906,137.5,388.3906" style="stroke:#181818;stroke-width:1.0;"/><line style="stroke:#181818;stroke-width:1.0;" x1="135.5" x2="361" y1="388.3906" y2="388.3906"/><polygon fill="#181818" points="350,398.3906,360,402.3906,350,406.3906,354,402.3906" style="stroke:#181818;stroke-width:1.0;"/><line style="stroke:#181818;stroke-width:1.0;stroke-dasharray:2.0,2.0;" x1="125.5" x2="356" y1="402.3906" y2="402.3906"/><polygon fill="#181818" points="644,412.3906,654,416.3906,644,420.3906,648,416.3906" style="stroke:#181818;stroke-width:1.0;"/><line style="stroke:#181818;stroke-width:1.0;" x1="372" x2="650" y1="416.3906" y2="416.3906"/><polygon fill="#181818" points="383,426.3906,373,430.3906,383,434.3906,379,430.3906" style="stroke:#181818;stroke-width:1.0;"/><line style="stroke:#181818;stroke-width:1.0;stroke-dasharray:2.0,2.0;" x1="377" x2="660" y1="430.3906" y2="430.3906"/><polygon fill="#181818" points="909,440.3906,919,444.3906,909,448.3906,913,444.3906" style="stroke:#181818;stroke-width:1.0;"/><line style="stroke:#181818;stroke-width:1.0;" x1="372" x2="915" y1="444.3906" y2="444.3906"/><polygon fill="#181818" points="378,454.3906,368,458.3906,378,462.3906,374,458.3906" style="stroke:#181818;stroke-width:1.0;"/><line style="stroke:#181818;stroke-width:1.0;stroke-dasharray:2.0,2.0;" x1="372" x2="925" y1="458.3906" y2="458.3906"/><line style="stroke:#181818;stroke-width:1.0;" x1="367" x2="409" y1="472.3906" y2="472.3906"/><line style="stroke:#181818;stroke-width:1.0;" x1="409" x2="409" y1="472.3906" y2="485.3906"/><line style="stroke:#181818;stroke-width:1.0;" x1="368" x2="409" y1="485.3906" y2="485.3906"/><polygon fill="#181818" points="378,481.3906,368,485.3906,378,489.3906,374,485.3906" style="stroke:#181818;stroke-width:1.0;"/><line style="stroke:#000000;stroke-width:1.0;stroke-dasharray:2.0,2.0;" x1="59" x2="968" y1="494.3906" y2="494.3906"/><text fill="#000000" font-family="sans-serif" font-size="11" font-weight="bold" lengthAdjust="spacing" textLength="52" x="64" y="504.6011">[offline]</text><polygon fill="#181818" points="378,525.3281,368,529.3281,378,533.3281,374,529.3281" style="stroke:#181818;stroke-width:1.0;"/><line style="stroke:#181818;stroke-width:1.0;stroke-dasharray:2.0,2.0;" x1="372" x2="925" y1="529.3281" y2="529.3281"/><text fill="#000000" font-family="sans-serif" font-size="13" lengthAdjust="spacing" textLength="50" x="384" y="524.2622">timeout</text><line style="stroke:#181818;stroke-width:1.0;" x1="367" x2="409" y1="573.5938" y2="573.5938"/><line style="stroke:#181818;stroke-width:1.0;" x1="409" x2="409" y1="573.5938" y2="586.5938"/><line style="stroke:#181818;stroke-width:1.0;" x1="368" x2="409" y1="586.5938" y2="586.5938"/><polygon fill="#181818" points="378,582.5938,368,586.5938,378,590.5938,374,586.5938" style="stroke:#181818;stroke-width:1.0;"/><text fill="#000000" font-family="sans-serif" font-size="13" lengthAdjust="spacing" textLength="88" x="374" y="553.395">Get challenge</text><text fill="#000000" font-family="sans-serif" font-size="13" lengthAdjust="spacing" textLength="132" x="374" y="568.5278">locally (Timestamp?)</text><line style="stroke:#181818;stroke-width:1.0;" x1="367" x2="409" y1="645.9922" y2="645.9922"/><line style="stroke:#181818;stroke-width:1.0;" x1="409" x2="409" y1="645.9922" y2="658.9922"/><line style="stroke:#181818;stroke-width:1.0;" x1="368" x2="409" y1="658.9922" y2="658.9922"/><polygon fill="#181818" points="378,654.9922,368,658.9922,378,662.9922,374,658.9922" style="stroke:#181818;stroke-width:1.0;"/><text fill="#000000" font-family="sans-serif" font-size="13" lengthAdjust="spacing" textLength="41" x="374" y="610.6606">create</text><text fill="#000000" font-family="sans-serif" font-size="13" lengthAdjust="spacing" textLength="119" x="374" y="625.7935">PoP-P-structure as</text><text fill="#000000" font-family="sans-serif" font-size="13" lengthAdjust="spacing" textLength="76" x="374" y="640.9263">Challenge-1</text><polygon fill="#181818" points="518,699.2578,528,703.2578,518,707.2578,522,703.2578" style="stroke:#181818;stroke-width:1.0;"/><line style="stroke:#181818;stroke-width:1.0;" x1="367" x2="524" y1="703.2578" y2="703.2578"/><text fill="#000000" font-family="sans-serif" font-size="13" lengthAdjust="spacing" textLength="132" x="374" y="683.0591">Sign PoP-P-structure</text><text fill="#000000" font-family="sans-serif" font-size="13" lengthAdjust="spacing" textLength="98" x="374" y="698.1919">as Challgenge1</text><polygon fill="#181818" points="378,728.3906,368,732.3906,378,736.3906,374,732.3906" style="stroke:#181818;stroke-width:1.0;"/><line style="stroke:#181818;stroke-width:1.0;stroke-dasharray:2.0,2.0;" x1="372" x2="534" y1="732.3906" y2="732.3906"/><text fill="#000000" font-family="sans-serif" font-size="13" lengthAdjust="spacing" textLength="62" x="384" y="727.3247">Response</text><line style="stroke:#181818;stroke-width:1.0;" x1="367" x2="409" y1="791.7891" y2="791.7891"/><line style="stroke:#181818;stroke-width:1.0;" x1="409" x2="409" y1="791.7891" y2="804.7891"/><line style="stroke:#181818;stroke-width:1.0;" x1="368" x2="409" y1="804.7891" y2="804.7891"/><polygon fill="#181818" points="378,800.7891,368,804.7891,378,808.7891,374,804.7891" style="stroke:#181818;stroke-width:1.0;"/><text fill="#000000" font-family="sans-serif" font-size="13" lengthAdjust="spacing" textLength="124" x="374" y="756.4575">prepare half-signed</text><text fill="#000000" font-family="sans-serif" font-size="13" lengthAdjust="spacing" textLength="119" x="374" y="771.5903">PoP-P-structure as</text><text fill="#000000" font-family="sans-serif" font-size="13" lengthAdjust="spacing" textLength="76" x="374" y="786.7231">Challenge-2</text><polygon fill="#181818" points="141.5,829.9219,131.5,833.9219,141.5,837.9219,137.5,833.9219" style="stroke:#181818;stroke-width:1.0;"/><line style="stroke:#181818;stroke-width:1.0;" x1="135.5" x2="356" y1="833.9219" y2="833.9219"/><text fill="#000000" font-family="sans-serif" font-size="13" lengthAdjust="spacing" textLength="108" x="147.5" y="828.856">Sign Challenge-2</text><polygon fill="#181818" points="345,859.0547,355,863.0547,345,867.0547,349,863.0547" style="stroke:#181818;stroke-width:1.0;"/><line style="stroke:#181818;stroke-width:1.0;stroke-dasharray:2.0,2.0;" x1="125.5" x2="351" y1="863.0547" y2="863.0547"/><text fill="#000000" font-family="sans-serif" font-size="13" lengthAdjust="spacing" textLength="62" x="132.5" y="857.9888">Response</text><line style="stroke:#181818;stroke-width:1.0;" x1="367" x2="409" y1="929.4531" y2="929.4531"/><line style="stroke:#181818;stroke-width:1.0;" x1="409" x2="409" y1="929.4531" y2="942.4531"/><line style="stroke:#181818;stroke-width:1.0;" x1="368" x2="409" y1="942.4531" y2="942.4531"/><polygon fill="#181818" points="378,938.4531,368,942.4531,378,946.4531,374,942.4531" style="stroke:#181818;stroke-width:1.0;"/><text fill="#000000" font-family="sans-serif" font-size="13" lengthAdjust="spacing" textLength="81" x="374" y="894.1216">Store signed</text><text fill="#000000" font-family="sans-serif" font-size="13" lengthAdjust="spacing" textLength="100" x="374" y="909.2544">PoP-P-structure</text><text fill="#000000" font-family="sans-serif" font-size="13" lengthAdjust="spacing" textLength="149" x="374" y="924.3872">for quarterly statement</text><polygon fill="#181818" points="245,952.4531,235,956.4531,245,960.4531,241,956.4531" style="stroke:#181818;stroke-width:1.0;"/><line style="stroke:#181818;stroke-width:1.0;stroke-dasharray:2.0,2.0;" x1="239" x2="361" y1="956.4531" y2="956.4531"/><!--SRC=[jLLDRvmm4BtpAqRf9JcWBlGhvT0eIgBaqWYLRLL5N1mpx5fYRMgRLTDVtx61PM59jZraBmOpxytppFFiMXG8fLBsKVqEhB0LmZTa1Vp8hY4E0iQjqf0o2yp02Qq2fJs1DuZdxpukWfffAxYecRHm-Nrv5_cmhyWag3ANhB5hYXUSS4eEi8vLqzhokYVXOb1Jr7d1Fl3t8_8qyu5NbSkVo-p9MDp0QPgTpSSxCV4HCS_0xZtiMZMF5OQvl1p1A3NghU18kLKQ_dJf5ulFx1C_u7dmF0wkjFWpHi-ZNCqTXjPm9ZHmRGY_j8LEeDPgIysZRLz7-f1c2GX9TMGMeJ48d1bqnHPRjqCrxCzCZnHFUHAulLd2swqfXZWdOvUJLHQKh8J40EZdldKI7XAGYletr0SB7rFWFfNVQklHIUHhLbKeLotZdZp_tahpZHX_RtlJ2-jPxo7qjDFC0y5062U7ZF6k9ZrZt34cSvJnQskCPZH6kulJCqOlQOnUKsFVqLctx1moIzL3zxP6FQSNhCYrgYp7VkjyOyK6LMD72F8lsi5HkQmKf-SdE5rIjB5iKr-SJH1S8-NEfRl0QMYiRhXjDDBLo-LLpnH61-Q1JAmaJ50qLmnurCh1elzo68rQKojfy9ZLN6ojaOO50kKgGqDIi3XsXlZ0NEqPfX7_whONzKO1ocAYEQCvZ_2Cs5oMz2_mgw49Y9fQHjsYeKwp9F3poL6uoHQC_F8N]--></g></svg>